<svg xmlns="http://www.w3.org/2000/svg" xmlns:xlink="http://www.w3.org/1999/xlink" width="195" zoomAndPan="magnify" viewBox="0 0 146.25 101.999999" height="136" preserveAspectRatio="xMidYMid meet" version="1.0"><defs><g/><clipPath id="0c1bfd3ed2"><path d="M 0 0.261719 L 145.503906 0.261719 L 145.503906 101.738281 L 0 101.738281 Z M 0 0.261719 " clip-rule="nonzero"/></clipPath><clipPath id="0a58148727"><path d="M 30.089844 0.261719 L 82 0.261719 L 82 65 L 30.089844 65 Z M 30.089844 0.261719 " clip-rule="nonzero"/></clipPath></defs><g clip-path="url(#0c1bfd3ed2)"><path fill="#ffffff" d="M 0 0.261719 L 145.503906 0.261719 L 145.503906 101.738281 L 0 101.738281 Z M 0 0.261719 " fill-opacity="1" fill-rule="nonzero"/></g><g clip-path="url(#0a58148727)"><path fill="#ac1929" d="M 77.351562 42.667969 L 70.175781 35.875 C 70.175781 35.875 75.175781 23.421875 77.351562 19.523438 C 78.28125 17.855469 79.394531 15.65625 80.035156 13.226562 C 80.09375 13.238281 80.152344 13.242188 80.210938 13.242188 C 81.148438 13.242188 81.90625 11.878906 81.90625 10.195312 C 81.90625 8.929688 81.480469 7.84375 80.867188 7.382812 C 80.867188 7.382812 80.019531 8.011719 79.964844 9.238281 C 79.964844 9.238281 79.730469 7.902344 80.796875 6.753906 C 80.617188 5.40625 80.289062 4.613281 79.484375 3.640625 C 78.058594 1.914062 75.871094 1.339844 72.554688 1.1875 C 69.445312 1.042969 67.203125 0.675781 64.570312 0.386719 C 63.664062 0.289062 64.054688 2.03125 64.296875 2.453125 C 64.785156 3.304688 65.480469 3.585938 67.957031 4.316406 C 67.957031 4.316406 65.976562 4.3125 63.949219 3.171875 C 63.488281 4.003906 63.234375 5.09375 63.148438 6.335938 C 64.773438 8.011719 64.425781 10.007812 64.425781 10.007812 C 64.34375 8.226562 63.113281 7.320312 63.113281 7.320312 C 62.453125 7.738281 61.980469 8.867188 61.980469 10.195312 C 61.980469 11.878906 62.738281 13.242188 63.675781 13.242188 C 63.765625 13.242188 63.855469 13.230469 63.941406 13.207031 C 64.671875 15.992188 65.824219 18.605469 67.101562 20.152344 C 66.425781 20.808594 65.777344 21.4375 65.171875 21.90625 C 68.980469 21.730469 71.945312 24.371094 71.945312 24.371094 C 71.945312 24.371094 66.671875 21.160156 62.59375 23.523438 C 56.9375 26.792969 50.804688 24.371094 50.804688 24.371094 C 50.804688 24.371094 56.34375 25.371094 62.214844 22.636719 C 62.339844 22.578125 62.46875 22.527344 62.59375 22.476562 C 59.515625 21.289062 56.664062 19.507812 49.238281 23.117188 C 49.238281 23.117188 47.3125 23.929688 46.210938 25.636719 C 46.210938 25.636719 46.511719 24.082031 48.191406 22.679688 C 46.71875 22.15625 43.941406 21.523438 41.554688 22.976562 C 41.554688 22.976562 39.628906 23.789062 38.527344 25.496094 C 38.527344 25.496094 39.363281 23.417969 41.703125 21.90625 C 42.054688 19.792969 43.152344 15.035156 46.15625 12.113281 C 46.296875 11.976562 46.425781 11.855469 46.546875 11.753906 C 45.582031 11.933594 44.800781 12.316406 44.800781 12.316406 C 46.367188 10.863281 47.769531 11.449219 48.792969 11.359375 C 50.003906 11.257812 51.457031 11.875 52.199219 11.765625 C 53.191406 11.621094 54.75 11.449219 55.136719 11.234375 C 56.203125 10.636719 55.472656 9.414062 54.632812 9.375 C 53.539062 9.324219 56.648438 9.410156 56.5625 8.148438 C 56.429688 6.199219 56.648438 5.582031 56.074219 4.816406 C 55.816406 4.472656 53.191406 2.085938 52.390625 2.085938 C 50.214844 2.09375 46.894531 4.128906 45.109375 4.933594 C 43.601562 5.613281 42.910156 6.984375 42.242188 8.074219 C 40.972656 10.148438 30.09375 23.714844 30.203125 27.828125 C 30.324219 32.296875 39.148438 36.898438 48.089844 33.914062 C 48.089844 33.914062 50.214844 32.925781 51.402344 32.042969 C 51.402344 32.042969 50.125 33.527344 48.550781 34.507812 C 49.054688 35.148438 49.65625 35.984375 50.320312 36.949219 C 52.445312 39.617188 56.363281 43.789062 61.417969 45.859375 C 61.417969 45.859375 58.707031 45.519531 54.953125 44.019531 C 55.800781 45.347656 56.652344 46.695312 57.472656 47.996094 C 58.484375 49.589844 59.789062 50.980469 61.332031 52.070312 C 62.652344 53 64.101562 53.839844 65.660156 54.476562 C 65.660156 54.476562 63.707031 54.230469 60.824219 53.242188 C 61.699219 54.589844 62.433594 55.679688 62.949219 56.363281 C 64.21875 58.054688 66.300781 59.632812 65.742188 64.605469 L 77.351562 42.667969 " fill-opacity="1" fill-rule="nonzero"/></g><path fill="#322f30" d="M 102.871094 8.074219 C 102.203125 6.984375 101.511719 5.613281 100.003906 4.933594 C 98.21875 4.128906 94.898438 2.09375 92.722656 2.085938 C 91.917969 2.085938 89.296875 4.472656 89.039062 4.816406 C 88.464844 5.582031 88.683594 6.199219 88.550781 8.148438 C 88.464844 9.410156 91.574219 9.324219 90.480469 9.375 C 89.640625 9.414062 88.910156 10.636719 89.976562 11.234375 C 90.363281 11.449219 91.921875 11.621094 92.914062 11.765625 C 93.65625 11.875 95.109375 11.257812 96.320312 11.359375 C 97.34375 11.449219 98.746094 10.863281 100.3125 12.316406 C 100.3125 12.316406 99.53125 11.933594 98.566406 11.753906 C 98.6875 11.855469 98.816406 11.976562 98.953125 12.113281 C 101.960938 15.035156 103.054688 19.792969 103.410156 21.90625 C 105.75 23.417969 106.585938 25.496094 106.585938 25.496094 C 105.484375 23.789062 103.558594 22.976562 103.558594 22.976562 C 101.167969 21.523438 98.394531 22.15625 96.921875 22.679688 C 98.601562 24.082031 98.902344 25.636719 98.902344 25.636719 C 97.800781 23.929688 95.875 23.117188 95.875 23.117188 C 92.558594 21.503906 90.152344 20.96875 88.234375 20.972656 L 86.753906 23.597656 C 91.609375 25.101562 95.671875 24.371094 95.671875 24.371094 C 95.671875 24.371094 91.097656 26.175781 86.207031 24.5625 L 80.277344 35.078125 L 86.523438 41.070312 L 69.886719 59.964844 C 69.886719 59.964844 82.261719 65.527344 90.742188 60.269531 C 85.050781 55.050781 84.484375 52.476562 85.289062 49.589844 C 86.382812 45.671875 93.085938 35.316406 93.085938 35.316406 C 102.03125 38.300781 114.789062 32.296875 114.910156 27.828125 C 115.019531 23.714844 104.140625 10.148438 102.871094 8.074219 " fill-opacity="1" fill-rule="nonzero"/><g fill="#322f30" fill-opacity="1"><g transform="translate(19.88999, 88.633617)"><g><path d="M 1.703125 -15.28125 L 14.75 -15.28125 L 14.75 -12.140625 L 5.53125 -12.140625 L 5.53125 -9.265625 L 13.953125 -9.265625 L 13.953125 -6.125 L 5.53125 -6.125 L 5.53125 0 L 1.703125 0 Z M 1.703125 -15.28125 "/></g></g></g><g fill="#322f30" fill-opacity="1"><g transform="translate(36.220715, 88.633617)"><g><path d="M 5.53125 -15.28125 L 5.53125 -3.140625 L 13.390625 -3.140625 L 13.390625 0 L 1.703125 0 L 1.703125 -15.28125 Z M 5.53125 -15.28125 "/></g></g></g><g fill="#322f30" fill-opacity="1"><g transform="translate(51.288755, 88.633617)"><g><path d="M 1.703125 -15.28125 L 15.28125 -15.28125 L 15.28125 -12.140625 L 5.53125 -12.140625 L 5.53125 -9.59375 L 14.203125 -9.59375 L 14.203125 -6.46875 L 5.53125 -6.46875 L 5.53125 -3.140625 L 15.28125 -3.140625 L 15.28125 0 L 1.703125 0 Z M 1.703125 -15.28125 "/></g></g></g><g fill="#322f30" fill-opacity="1"><g transform="translate(68.755898, 88.633617)"><g><path d="M 0.078125 -15.28125 L 4.90625 -15.28125 L 8.421875 -10.5 L 11.9375 -15.28125 L 16.640625 -15.28125 L 10.625 -7.78125 L 16.859375 0 L 11.9375 0 L 8.375 -4.90625 L 4.59375 0 L -0.203125 0 L 6.078125 -7.75 Z M 0.078125 -15.28125 "/></g></g></g><g fill="#322f30" fill-opacity="1"><g transform="translate(86.454533, 88.633617)"><g><path d="M 1.703125 -15.28125 L 14.75 -15.28125 L 14.75 -12.140625 L 5.53125 -12.140625 L 5.53125 -9.265625 L 13.953125 -9.265625 L 13.953125 -6.125 L 5.53125 -6.125 L 5.53125 0 L 1.703125 0 Z M 1.703125 -15.28125 "/></g></g></g><g fill="#322f30" fill-opacity="1"><g transform="translate(102.785254, 88.633617)"><g><path d="M 5.59375 -15.28125 L 5.59375 0 L 1.765625 0 L 1.765625 -15.28125 Z M 5.59375 -15.28125 "/></g></g></g><g fill="#322f30" fill-opacity="1"><g transform="translate(111.20315, 88.633617)"><g><path d="M -0.125 -15.28125 L 14.1875 -15.28125 L 14.1875 -12.140625 L 8.9375 -12.140625 L 8.9375 0 L 5.109375 0 L 5.109375 -12.140625 L -0.125 -12.140625 Z M -0.125 -15.28125 "/></g></g></g></svg>