<?xml version="1.0" encoding="UTF-8"?>
<!DOCTYPE svg PUBLIC "-//W3C//DTD SVG 1.1//EN" "http://www.w3.org/Graphics/SVG/1.1/DTD/svg11.dtd">
<svg xmlns="http://www.w3.org/2000/svg" version="1.1" width="120px" height="86px" style="shape-rendering:geometricPrecision; text-rendering:geometricPrecision; image-rendering:optimizeQuality; fill-rule:evenodd; clip-rule:evenodd" xmlns:xlink="http://www.w3.org/1999/xlink">
<g><path style="opacity:0.153" fill="#e8cbcf" d="M 57.5,-0.5 C 59.1667,-0.5 60.8333,-0.5 62.5,-0.5C 63.5511,0.222348 64.2178,1.22235 64.5,2.5C 62.1454,1.34143 59.8121,0.341426 57.5,-0.5 Z"/></g>
<g><path style="opacity:0.251" fill="#e3c1c5" d="M 43.5,9.5 C 45.6259,5.53467 44.6259,2.868 40.5,1.5C 37.0259,2.40167 34.0259,4.06834 31.5,6.5C 32.3589,3.54795 34.3589,1.71461 37.5,1C 42.1407,-0.651256 44.8074,0.848744 45.5,5.5C 45.6598,7.35455 44.9931,8.68788 43.5,9.5 Z"/></g>
<g><path style="opacity:0.275" fill="#b9b8b9" d="M 73.5,1.5 C 76.597,0.212443 79.597,0.712443 82.5,3C 83.8228,3.81595 84.4894,4.98261 84.5,6.5C 81.4678,3.48467 77.8012,1.818 73.5,1.5 Z"/></g>
<g><path style="opacity:0.999" fill="#403f3f" d="M 73.5,1.5 C 77.8012,1.818 81.4678,3.48467 84.5,6.5C 86.2624,7.26231 87.2624,8.59565 87.5,10.5C 88.3403,12.8525 89.6736,14.8525 91.5,16.5C 95.362,23.3254 93.362,27.3254 85.5,28.5C 85.5106,26.9826 86.1772,25.8159 87.5,25C 87.5,23.6667 87.5,22.3333 87.5,21C 86.0577,20.6232 85.0577,19.7899 84.5,18.5C 84.4367,14.4454 82.7701,11.4454 79.5,9.5C 77.059,10.7563 74.7257,10.7563 72.5,9.5C 70.9225,6.51758 71.2558,3.85091 73.5,1.5 Z"/></g>
<g><path style="opacity:0.114" fill="#e4e4e4" d="M 73.5,1.5 C 71.2558,3.85091 70.9225,6.51758 72.5,9.5C 71.0069,8.68788 70.3402,7.35455 70.5,5.5C 70.1104,3.01818 71.1104,1.68485 73.5,1.5 Z"/></g>
<g><path style="opacity:0.157" fill="#e9ced2" d="M 31.5,7.5 C 30.8333,8.83333 29.8333,9.83333 28.5,10.5C 28.5,8.5 29.5,7.5 31.5,7.5 Z"/></g>
<g><path style="opacity:1" fill="#ad2d36" d="M 50.5,-0.5 C 52.8333,-0.5 55.1667,-0.5 57.5,-0.5C 59.8121,0.341426 62.1454,1.34143 64.5,2.5C 65.1667,2.5 65.5,2.83333 65.5,3.5C 65.5,5.83333 65.5,8.16667 65.5,10.5C 65.047,12.5652 64.047,14.2318 62.5,15.5C 60.246,19.0066 58.246,22.6733 56.5,26.5C 56.5,24.1667 56.5,21.8333 56.5,19.5C 53.7938,19.5751 51.1272,19.9084 48.5,20.5C 49.287,18.8958 50.6203,18.2291 52.5,18.5C 52.6165,14.6825 51.6165,11.1825 49.5,8C 50.2156,5.20765 50.5489,2.37432 50.5,-0.5 Z"/></g>
<g><path style="opacity:0.365" fill="#ead1d5" d="M 65.5,3.5 C 66.4343,4.77245 67.101,6.27245 67.5,8C 67.3613,9.30105 66.6946,10.1344 65.5,10.5C 65.5,8.16667 65.5,5.83333 65.5,3.5 Z"/></g>
<g><path style="opacity:0.263" fill="#ebd3d7" d="M 28.5,10.5 C 27.6597,12.8525 26.3264,14.8525 24.5,16.5C 24.8449,13.8021 26.1782,11.8021 28.5,10.5 Z"/></g>
<g><path style="opacity:0.031" fill="#e9ccd0" d="M 49.5,-0.5 C 49.8333,-0.5 50.1667,-0.5 50.5,-0.5C 50.5489,2.37432 50.2156,5.20765 49.5,8C 51.6165,11.1825 52.6165,14.6825 52.5,18.5C 50.6203,18.2291 49.287,18.8958 48.5,20.5C 45.8127,20.6641 43.146,20.4974 40.5,20C 43.3713,19.8823 46.038,19.2156 48.5,18C 42.8376,18.0731 37.171,18.0731 31.5,18C 32.2616,10.6904 35.9283,8.19035 42.5,10.5C 37.5708,9.30473 34.5708,11.1381 33.5,16C 37.0711,17.3891 40.7377,17.2224 44.5,15.5C 46.5683,15.9672 48.5683,16.6339 50.5,17.5C 50.8333,17 51.1667,16.5 51.5,16C 50.4939,13.1596 49.1606,10.4929 47.5,8C 48.713,5.31349 49.3797,2.48016 49.5,-0.5 Z"/></g>
<g><path style="opacity:0.008" fill="#d9d8d8" d="M 87.5,10.5 C 89.8218,11.8021 91.1551,13.8021 91.5,16.5C 89.6736,14.8525 88.3403,12.8525 87.5,10.5 Z"/></g>
<g><path style="opacity:0.318" fill="#c7c7c7" d="M 79.5,9.5 C 82.7701,11.4454 84.4367,14.4454 84.5,18.5C 82.5328,18.2606 80.6995,18.5939 79,19.5C 78.5357,18.9056 78.369,18.2389 78.5,17.5C 79.7175,16.8386 81.0508,16.1719 82.5,15.5C 81.4412,13.4664 80.4412,11.4664 79.5,9.5 Z"/></g>
<g><path style="opacity:0.004" fill="#cccccc" d="M 91.5,16.5 C 96.8468,23.8908 94.8468,28.2241 85.5,29.5C 85.5,29.1667 85.5,28.8333 85.5,28.5C 93.362,27.3254 95.362,23.3254 91.5,16.5 Z"/></g>
<g><path style="opacity:0.71" fill="#d49fa5" d="M 24.5,16.5 C 23.8333,19.1667 23.1667,21.8333 22.5,24.5C 21.2979,21.5132 21.9646,18.8465 24.5,16.5 Z"/></g>
<g><path style="opacity:0.243" fill="#b7b6b6" d="M 77.5,17.5 C 75.3288,17.5337 72.9955,17.867 70.5,18.5C 72.0777,19.2978 73.7444,19.7978 75.5,20C 73.5,20.3333 71.5,20.6667 69.5,21C 67.9479,23.9432 66.2812,26.7765 64.5,29.5C 63.9569,29.44 63.6236,29.1067 63.5,28.5C 65.9742,24.3822 68.3075,20.2156 70.5,16C 72.9595,15.7607 75.2928,16.2607 77.5,17.5 Z"/></g>
<g><path style="opacity:1" fill="#373536" d="M 77.5,17.5 C 77.8333,17.5 78.1667,17.5 78.5,17.5C 78.369,18.2389 78.5357,18.9056 79,19.5C 80.6995,18.5939 82.5328,18.2606 84.5,18.5C 85.0577,19.7899 86.0577,20.6232 87.5,21C 87.5,22.3333 87.5,23.6667 87.5,25C 86.1772,25.8159 85.5106,26.9826 85.5,28.5C 85.5,28.8333 85.5,29.1667 85.5,29.5C 82.1501,29.335 78.8168,29.5017 75.5,30C 74.944,30.3826 74.6107,30.8826 74.5,31.5C 74.573,33.0269 73.9063,34.0269 72.5,34.5C 69.8333,32.8333 67.1667,31.1667 64.5,29.5C 66.2812,26.7765 67.9479,23.9432 69.5,21C 71.5,20.6667 73.5,20.3333 75.5,20C 73.7444,19.7978 72.0777,19.2978 70.5,18.5C 72.9955,17.867 75.3288,17.5337 77.5,17.5 Z"/></g>
<g><path style="opacity:0.98" fill="#ac2c35" d="M 43.5,9.5 C 43.5,10.1667 43.1667,10.5 42.5,10.5C 35.9283,8.19035 32.2616,10.6904 31.5,18C 37.171,18.0731 42.8376,18.0731 48.5,18C 46.038,19.2156 43.3713,19.8823 40.5,20C 43.146,20.4974 45.8127,20.6641 48.5,20.5C 46.3647,22.369 43.6981,23.0356 40.5,22.5C 40.1229,26.6073 41.1229,30.274 43.5,33.5C 42.8333,33.5 42.1667,33.5 41.5,33.5C 40.8358,31.513 39.6692,29.8463 38,28.5C 37.6012,28.7284 37.4346,29.0618 37.5,29.5C 33.1829,29.9166 29.1829,29.2499 25.5,27.5C 24.8333,26.1667 23.8333,25.1667 22.5,24.5C 23.1667,21.8333 23.8333,19.1667 24.5,16.5C 26.3264,14.8525 27.6597,12.8525 28.5,10.5C 29.8333,9.83333 30.8333,8.83333 31.5,7.5C 31.5,7.16667 31.5,6.83333 31.5,6.5C 34.0259,4.06834 37.0259,2.40167 40.5,1.5C 44.6259,2.868 45.6259,5.53467 43.5,9.5 Z"/></g>
<g><path style="opacity:0.384" fill="#dbb5ba" d="M 22.5,24.5 C 23.8333,25.1667 24.8333,26.1667 25.5,27.5C 23.5,27.5 22.5,26.5 22.5,24.5 Z"/></g>
<g><path style="opacity:1" fill="#aa1d2b" d="M 56.5,26.5 C 56.4457,29.967 57.9457,32.6337 61,34.5C 61.4828,35.448 61.6495,36.448 61.5,37.5C 58.5079,41.4757 56.0079,45.809 54,50.5C 53.6667,50.8333 53.3333,51.1667 53,51.5C 52.6232,50.0577 51.7899,49.0577 50.5,48.5C 49.5881,44.4113 47.5881,40.9113 44.5,38C 45.1667,37.6667 45.8333,37.3333 46.5,37C 44.9371,36.2411 43.9371,35.0744 43.5,33.5C 41.1229,30.274 40.1229,26.6073 40.5,22.5C 43.6981,23.0356 46.3647,22.369 48.5,20.5C 51.1272,19.9084 53.7938,19.5751 56.5,19.5C 56.5,21.8333 56.5,24.1667 56.5,26.5 Z"/></g>
<g><path style="opacity:0.094" fill="#e2c0c4" d="M 62.5,15.5 C 60.9831,20.0378 59.3164,24.5378 57.5,29C 59,30.5 60.5,32 62,33.5C 62.765,35.0657 62.5983,36.3991 61.5,37.5C 61.6495,36.448 61.4828,35.448 61,34.5C 57.9457,32.6337 56.4457,29.967 56.5,26.5C 58.246,22.6733 60.246,19.0066 62.5,15.5 Z"/></g>
<g><path style="opacity:0.424" fill="#dfb6bb" d="M 41.5,33.5 C 39.2901,33.106 37.9568,31.7727 37.5,29.5C 37.4346,29.0618 37.6012,28.7284 38,28.5C 39.6692,29.8463 40.8358,31.513 41.5,33.5 Z"/></g>
<g><path style="opacity:0.108" fill="#a0a0a0" d="M 85.5,29.5 C 81.9787,30.3069 78.312,30.9736 74.5,31.5C 74.6107,30.8826 74.944,30.3826 75.5,30C 78.8168,29.5017 82.1501,29.335 85.5,29.5 Z"/></g>
<g><path style="opacity:0.082" fill="#a3a2a2" d="M 64.5,29.5 C 67.1667,31.1667 69.8333,32.8333 72.5,34.5C 72.3404,36.153 71.6737,37.4863 70.5,38.5C 70.719,37.325 70.3857,36.325 69.5,35.5C 67.8144,36.8569 66.1477,38.1902 64.5,39.5C 65.2026,37.2843 66.5359,35.451 68.5,34C 66.9586,32.6288 65.6253,31.1288 64.5,29.5 Z"/></g>
<g><path style="opacity:0.369" fill="#e3c4c7" d="M 41.5,33.5 C 42.1667,33.5 42.8333,33.5 43.5,33.5C 43.9371,35.0744 44.9371,36.2411 46.5,37C 45.8333,37.3333 45.1667,37.6667 44.5,38C 47.5881,40.9113 49.5881,44.4113 50.5,48.5C 46.2997,44.2821 43.2997,39.2821 41.5,33.5 Z"/></g>
<g><path style="opacity:0.263" fill="#d0b5b7" d="M 61.5,37.5 C 60.6503,39.4944 60.1503,41.4944 60,43.5C 61.3712,41.9586 62.8712,40.6253 64.5,39.5C 61.8333,43.1667 59.1667,46.8333 56.5,50.5C 54.8546,51.4787 53.5213,52.812 52.5,54.5C 51.2319,52.6957 50.5652,50.6957 50.5,48.5C 51.7899,49.0577 52.6232,50.0577 53,51.5C 53.3333,51.1667 53.6667,50.8333 54,50.5C 56.0079,45.809 58.5079,41.4757 61.5,37.5 Z"/></g>
<g><path style="opacity:0.999" fill="#393738" d="M 70.5,38.5 C 68.9749,43.2004 70.3083,47.0337 74.5,50C 73.7562,51.0386 72.7562,51.5386 71.5,51.5C 66.453,51.6625 61.453,51.3292 56.5,50.5C 59.1667,46.8333 61.8333,43.1667 64.5,39.5C 66.1477,38.1902 67.8144,36.8569 69.5,35.5C 70.3857,36.325 70.719,37.325 70.5,38.5 Z"/></g>
<g><path style="opacity:0.384" fill="#cfcfcf" d="M 56.5,50.5 C 61.453,51.3292 66.453,51.6625 71.5,51.5C 66.3536,54.1467 61.3536,53.8134 56.5,50.5 Z"/></g>
<g><path style="opacity:0.993" fill="#4e4e4e" d="M 26.5,60.5 C 26.5,61.5 26.5,62.5 26.5,63.5C 23.8333,63.5 21.1667,63.5 18.5,63.5C 18.5,64.5 18.5,65.5 18.5,66.5C 27.8333,67.1667 27.8333,67.8333 18.5,68.5C 18.5,70.1667 18.5,71.8333 18.5,73.5C 17.5,73.5 16.5,73.5 15.5,73.5C 15.5,69.1667 15.5,64.8333 15.5,60.5C 19.0649,59.2134 22.7316,59.2134 26.5,60.5 Z"/></g>
<g><path style="opacity:0.994" fill="#595858" d="M 53.5,61.5 C 53.5,62.1667 53.5,62.8333 53.5,63.5C 50.5,63.5 47.5,63.5 44.5,63.5C 44.5,64.5 44.5,65.5 44.5,66.5C 53.8333,67.1667 53.8333,67.8333 44.5,68.5C 44.5,69.5 44.5,70.5 44.5,71.5C 47.5,71.5 50.5,71.5 53.5,71.5C 49.9707,73.4228 45.9707,74.0894 41.5,73.5C 40.353,69.3537 40.1864,65.0204 41,60.5C 44.7436,59.374 48.577,59.2073 52.5,60C 53.056,60.3826 53.3893,60.8826 53.5,61.5 Z"/></g>
<g><path style="opacity:0.994" fill="#494949" d="M 83.5,61.5 C 80.8555,63.2419 77.8555,63.9086 74.5,63.5C 74.5,64.5 74.5,65.5 74.5,66.5C 83.8333,67.1667 83.8333,67.8333 74.5,68.5C 74.5,70.1667 74.5,71.8333 74.5,73.5C 73.5,73.5 72.5,73.5 71.5,73.5C 71.5,69.1667 71.5,64.8333 71.5,60.5C 72.964,59.8401 74.6307,59.5068 76.5,59.5C 79.2046,59.3161 81.5379,59.9827 83.5,61.5 Z"/></g>
<g><path style="opacity:0.416" fill="#6e6e6e" d="M 88.5,60.5 C 88.8182,65.0323 88.4849,69.3656 87.5,73.5C 86.8333,57.5 86.1667,57.5 85.5,73.5C 85.1667,73.5 84.8333,73.5 84.5,73.5C 84.3343,69.1539 84.501,64.8206 85,60.5C 86.1455,59.3157 87.3121,59.3157 88.5,60.5 Z"/></g>
<g><path style="opacity:0.997" fill="#2d2d2d" d="M 87.5,73.5 C 86.8333,73.5 86.1667,73.5 85.5,73.5C 86.1667,57.5 86.8333,57.5 87.5,73.5 Z"/></g>
<g><path style="opacity:0.075" fill="#e4e4e4" d="M 88.5,60.5 C 89.1667,60.5 89.8333,60.5 90.5,60.5C 90.5,61.5 90.5,62.5 90.5,63.5C 91.8333,63.5 93.1667,63.5 94.5,63.5C 94.5,66.8333 94.5,70.1667 94.5,73.5C 95.8333,73.5 97.1667,73.5 98.5,73.5C 98.5,70.1667 98.5,66.8333 98.5,63.5C 99.8333,63.5 101.167,63.5 102.5,63.5C 102.5,62.5 102.5,61.5 102.5,60.5C 104.273,63.676 103.273,65.3427 99.5,65.5C 99.6646,68.5184 99.498,71.5184 99,74.5C 97.3333,75.8333 95.6667,75.8333 94,74.5C 93.502,71.5184 93.3354,68.5184 93.5,65.5C 92.1779,65.67 91.0113,65.3366 90,64.5C 89.7931,68.0894 89.2931,71.5894 88.5,75C 86.5372,75.8442 85.2039,75.3442 84.5,73.5C 84.8333,73.5 85.1667,73.5 85.5,73.5C 86.1667,73.5 86.8333,73.5 87.5,73.5C 88.4849,69.3656 88.8182,65.0323 88.5,60.5 Z"/></g>
<g><path style="opacity:0.998" fill="#515151" d="M 102.5,60.5 C 102.5,61.5 102.5,62.5 102.5,63.5C 101.167,63.5 99.8333,63.5 98.5,63.5C 98.5,66.8333 98.5,70.1667 98.5,73.5C 97.1667,73.5 95.8333,73.5 94.5,73.5C 94.5,70.1667 94.5,66.8333 94.5,63.5C 93.1667,63.5 91.8333,63.5 90.5,63.5C 90.5,62.5 90.5,61.5 90.5,60.5C 94.5,59.1667 98.5,59.1667 102.5,60.5 Z"/></g>
<g><path style="opacity:0.011" fill="#d6d5d6" d="M 31.5,60.5 C 30.8826,60.6107 30.3826,60.944 30,61.5C 29.5012,65.4862 29.3345,69.4862 29.5,73.5C 32.5719,73.8174 35.5719,73.4841 38.5,72.5C 36.3691,71.8313 34.3691,71.1646 32.5,70.5C 34.8333,70.5 37.1667,70.5 39.5,70.5C 39.5,72.1667 39.5,73.8333 39.5,75.5C 35.8183,75.6653 32.1516,75.4986 28.5,75C 27.7069,71.5894 27.2069,68.0894 27,64.5C 26.5065,66.1341 26.3398,67.8008 26.5,69.5C 24.1667,69.5 21.8333,69.5 19.5,69.5C 20.5081,74.6673 18.6748,76.334 14,74.5C 13.8333,72.1667 13.6667,69.8333 13.5,67.5C 13.5286,64.7305 14.1952,62.3972 15.5,60.5C 15.5,64.8333 15.5,69.1667 15.5,73.5C 16.5,73.5 17.5,73.5 18.5,73.5C 18.5,71.8333 18.5,70.1667 18.5,68.5C 27.8333,67.8333 27.8333,67.1667 18.5,66.5C 18.5,65.5 18.5,64.5 18.5,63.5C 21.1667,63.5 23.8333,63.5 26.5,63.5C 26.5,62.5 26.5,61.5 26.5,60.5C 28.398,59.9035 30.0646,59.9035 31.5,60.5 Z"/></g>
<g><path style="opacity:0.996" fill="#515050" d="M 58.5,60.5 C 60.1667,61.1667 61.8333,61.8333 63.5,62.5C 64.8583,61.3744 66.1916,61.3744 67.5,62.5C 63.2933,66.3276 63.6266,69.6609 68.5,72.5C 66.9504,73.7199 65.2837,73.7199 63.5,72.5C 62.5,72.5 61.5,72.5 60.5,72.5C 58.9317,73.4731 57.265,73.6397 55.5,73C 57.4136,71.5867 58.7469,69.7534 59.5,67.5C 58.5589,65.2279 57.2255,63.2279 55.5,61.5C 56.325,60.6143 57.325,60.281 58.5,60.5 Z"/></g>
<g><path style="opacity:0.007" fill="#d3d3d3" d="M 71.5,60.5 C 71.5,64.8333 71.5,69.1667 71.5,73.5C 72.5,73.5 73.5,73.5 74.5,73.5C 74.5,71.8333 74.5,70.1667 74.5,68.5C 83.8333,67.8333 83.8333,67.1667 74.5,66.5C 74.5,65.5 74.5,64.5 74.5,63.5C 77.8555,63.9086 80.8555,63.2419 83.5,61.5C 82.9084,64.1272 82.5751,66.7938 82.5,69.5C 80.1667,69.5 77.8333,69.5 75.5,69.5C 75.5,71.5 75.5,73.5 75.5,75.5C 73.8333,75.5 72.1667,75.5 70.5,75.5C 70.1795,70.3054 70.5128,65.3054 71.5,60.5 Z"/></g>
<g><path style="opacity:0.999" fill="#393738" d="M 31.5,60.5 C 32.4794,63.6248 32.8128,66.9581 32.5,70.5C 34.3691,71.1646 36.3691,71.8313 38.5,72.5C 35.5719,73.4841 32.5719,73.8174 29.5,73.5C 29.3345,69.4862 29.5012,65.4862 30,61.5C 30.3826,60.944 30.8826,60.6107 31.5,60.5 Z"/></g>
<g><path style="opacity:0.039" fill="#bebebe" d="M 68.5,72.5 C 63.6266,69.6609 63.2933,66.3276 67.5,62.5C 66.1916,61.3744 64.8583,61.3744 63.5,62.5C 64.5578,59.7582 66.3911,59.0915 69,60.5C 69.6667,61.5 69.6667,62.5 69,63.5C 67.647,64.6853 66.4803,66.0186 65.5,67.5C 66.9524,68.9397 67.9524,70.6064 68.5,72.5 Z"/></g>
<g><path style="opacity:0.154" fill="#b0afb0" d="M 53.5,63.5 C 52.8505,65.4352 52.5172,67.4352 52.5,69.5C 50.4727,69.3379 48.4727,69.5045 46.5,70C 49.0356,70.1862 51.369,70.6862 53.5,71.5C 50.5,71.5 47.5,71.5 44.5,71.5C 44.5,70.5 44.5,69.5 44.5,68.5C 53.8333,67.8333 53.8333,67.1667 44.5,66.5C 44.5,65.5 44.5,64.5 44.5,63.5C 47.5,63.5 50.5,63.5 53.5,63.5 Z"/></g>
<g><path style="opacity:0.441" fill="#cfcece" d="M 63.5,72.5 C 65.2837,73.7199 66.9504,73.7199 68.5,72.5C 69.404,73.209 69.7373,74.209 69.5,75.5C 67.8008,75.6602 66.1341,75.4935 64.5,75C 63.7476,74.3292 63.4142,73.4959 63.5,72.5 Z"/></g>
<g><path style="opacity:0.02" fill="#dad9da" d="M 58.5,60.5 C 57.325,60.281 56.325,60.6143 55.5,61.5C 57.2255,63.2279 58.5589,65.2279 59.5,67.5C 58.7469,69.7534 57.4136,71.5867 55.5,73C 57.265,73.6397 58.9317,73.4731 60.5,72.5C 60.4413,74.7224 59.2747,75.7224 57,75.5C 53.9845,74.9469 50.8178,74.9469 47.5,75.5C 45.0478,75.4609 43.0478,74.7943 41.5,73.5C 45.9707,74.0894 49.9707,73.4228 53.5,71.5C 56.9549,70.8716 58.1215,68.8716 57,65.5C 56.1841,64.1772 55.0174,63.5106 53.5,63.5C 53.5,62.8333 53.5,62.1667 53.5,61.5C 54.9764,59.5682 56.6431,59.2348 58.5,60.5 Z"/></g>
</svg>
