<svg width="21" height="15" viewBox="0 0 21 15" fill="none" xmlns="http://www.w3.org/2000/svg">
<g clip-path="url(#clip0_47_340)">
<path d="M8.53125 2.30453V3.45681H20.9885L21 2.38635" fill="#EC1C24"/>
<path d="M20.2125 1.15228H8.53125V2.30456H20.7998C20.6666 1.87467 20.4684 1.48262 20.2125 1.15228Z" fill="#E6E7E8"/>
<path d="M21 0H8.53125V1.02273H21C21 0 21 0 21 0Z" fill="#EC1C24"/>
<path d="M20.9885 3.45682H8.53125V4.60909H21V3.84102C21 3.7725 20.9957 3.70568 20.9938 3.63852C20.9925 3.62011 20.9905 3.57273 20.9885 3.45682Z" fill="#E6E7E8"/>
<path d="M8.53125 5.76137H21V4.6091H8.53125V5.76137Z" fill="#EC1C24"/>
<path d="M8.53125 6.91363H21V5.76135H8.53125V6.91363Z" fill="#E6E7E8"/>
<path d="M8.53125 6.91364H21V8.06591H8.53125V6.91364Z" fill="#EC1C24"/>
<path d="M0 8.06592V9.21819H21V8.06592H8.53125H0Z" fill="#E6E7E8"/>
<path d="M0 9.21817H21V10.3704H0V9.21817Z" fill="#EC1C24"/>
<path d="M0.00164062 11.0792C0.00164062 11.0792 -0.0013125 11.3584 0.0065625 11.5227H20.9934C21.0026 11.3543 20.9984 11.0792 20.9984 11.0792L21 10.3705H0L0.00164062 11.0792Z" fill="#E6E7E8"/>
<path d="M3.28128 15L21 15C21 15 21 15 21 13.8273H0.164062C0.164075 15 0.164075 15 0.164075 15" fill="#EC1C24"/>
<path d="M0.766143 13.8273H20.2338C20.4933 13.4847 20.6871 13.0935 20.8047 12.675H0.198486C0.318284 13.0922 0.511292 13.4829 0.767783 13.8273" fill="#E6E7E8"/>
<path d="M0.00662895 12.675H20.9935C20.9935 12.675 20.9745 11.9133 20.9935 11.5227H0.0065918L0.00662895 12.675Z" fill="#EC1C24"/>
<path d="M8.53125 0H-5.96046e-08C-2.17448 0 4.05312e-06 1.67898 4.05312e-06 3.75V8.06591H8.53125V0Z" fill="#176496"/>
<path d="M0.918114 2.03728L1.09661 1.89478L1.27479 2.03728L1.20555 1.80819L1.38307 1.66807H1.16388L1.09596 1.43796L1.02836 1.66807H0.809505L0.987677 1.80819L0.918114 2.03728ZM2.0974 2.03728L2.2759 1.89478L2.45407 2.03728L2.38516 1.80819L2.56235 1.66807H2.34349L2.27557 1.43796L2.20797 1.66807H1.98846L2.16663 1.80819L2.0974 2.03728ZM3.39841 2.03728L3.57658 1.89478L3.75508 2.03728L3.68585 1.80819L3.86304 1.66807H3.64549L3.57658 1.43796L3.50866 1.66807H3.29111L3.46732 1.80819L3.39841 2.03728ZM4.68991 2.03728L4.86808 1.89478L5.04658 2.03728L4.97768 1.80819L5.15486 1.66807H4.93502L4.86808 1.43796L4.80049 1.66807H4.5813L4.75915 1.80819L4.68991 2.03728ZM5.986 2.03728L6.16451 1.89478L6.34268 2.03728L6.27377 1.80819L6.45129 1.66807H6.23177L6.16418 1.43796L6.09658 1.66807H5.87772L6.05491 1.80819L5.986 2.03728ZM1.54582 2.63557L1.72399 2.49341L1.90216 2.63557L1.83358 2.40682L2.01077 2.26671H1.79158L1.72366 2.03694L1.65705 2.26671H1.43721L1.61472 2.40682L1.54582 2.63557ZM2.72543 2.63557L2.9036 2.49341L3.08177 2.63557L3.01286 2.40682L3.19005 2.26671H2.96955L2.9036 2.03694L2.83568 2.26671H2.61682L2.79433 2.40682L2.72543 2.63557ZM4.02644 2.63557L4.20429 2.49341L4.38246 2.63557L4.31355 2.40682L4.49107 2.26671H4.27221L4.20429 2.03694L4.13636 2.26671H3.91718L4.09469 2.40682L4.02644 2.63557ZM5.31729 2.63557L5.49579 2.49341L5.67429 2.63557L5.6044 2.40682L5.78224 2.26671H5.56338L5.49546 2.03694L5.42819 2.26671H5.209L5.38652 2.40682L5.31729 2.63557ZM6.61502 2.63557L6.79188 2.49341L6.97005 2.63557L6.90049 2.40682L7.07833 2.26671H6.8598L6.79155 2.03694L6.72429 2.26671H6.5051L6.68261 2.40682L6.61502 2.63557ZM7.34575 2.03728L7.52393 1.89478L7.70243 2.03728L7.63319 1.80819L7.81038 1.66807H7.59283L7.5236 1.43796L7.45601 1.66807H7.23518L7.41466 1.80819L7.34575 2.03728ZM0.900724 6.825L1.07922 6.68421L1.2574 6.825L1.18849 6.59796L1.36568 6.4575L1.14682 6.45819L1.07857 6.22841L1.01163 6.45819L0.792114 6.4575L0.96963 6.59796L0.900724 6.825ZM2.08033 6.825L2.2585 6.68421L2.437 6.825L2.36777 6.59796L2.54496 6.4575L2.32643 6.45819L2.25818 6.22841L2.19091 6.45819L1.97205 6.4575L2.14924 6.59796L2.08033 6.825ZM3.38135 6.825L3.55952 6.68421L3.73802 6.825L3.66879 6.59796L3.84597 6.4575L3.6258 6.45819L3.55919 6.22841L3.4916 6.45819L3.27274 6.4575L3.45025 6.59796L3.38135 6.825ZM4.67285 6.825L4.85102 6.68421L5.02919 6.825L4.96127 6.59796L5.13747 6.4575L4.91829 6.45819L4.85069 6.22841L4.7831 6.45819L4.56424 6.4575L4.74143 6.59796L4.67285 6.825ZM5.96861 6.825L6.14711 6.68421L6.32561 6.825L6.25736 6.59796L6.43357 6.4575L6.21471 6.45819L6.14679 6.22841L6.07952 6.45819L5.86033 6.4575L6.03752 6.59796L5.96861 6.825ZM7.32836 6.825L7.50654 6.68421L7.68504 6.825L7.6158 6.59796L7.79332 6.4575L7.57315 6.45819L7.50621 6.22841L7.43861 6.45819L7.21877 6.4575L7.39727 6.59796L7.32836 6.825ZM0.918114 3.23455L1.09661 3.09205L1.27479 3.23455L1.20555 3.00546L1.38307 2.86534L1.16388 2.86603L1.09596 2.63557L1.02836 2.86603L0.809505 2.86534L0.987677 3.00546L0.918114 3.23455ZM2.0974 3.23455L2.2759 3.09205L2.45407 3.23455L2.38516 3.00546L2.56235 2.86534L2.34349 2.86603L2.27557 2.63557L2.20797 2.86603L1.98846 2.86534L2.16663 3.00546L2.0974 3.23455ZM3.39841 3.23455L3.57658 3.09205L3.75508 3.23455L3.68585 3.00546L3.86304 2.86534L3.64549 2.86603L3.57658 2.63557L3.50866 2.86603L3.29111 2.86534L3.46732 3.00546L3.39841 3.23455ZM4.68991 3.23455L4.86808 3.09205L5.04658 3.23455L4.97768 3.00546L5.15486 2.86534L4.93502 2.86603L4.86808 2.63557L4.80049 2.86603L4.5813 2.86534L4.75915 3.00546L4.68991 3.23455ZM5.986 3.23455L6.16451 3.09205L6.34268 3.23455L6.27377 3.00546L6.45129 2.86534L6.23177 2.86603L6.16418 2.63557L6.09658 2.86603L5.87772 2.86534L6.05491 3.00546L5.986 3.23455ZM1.54582 3.83318L1.72399 3.69103L1.90216 3.83318L1.83358 3.60443L2.01077 3.46364H1.79158L1.72366 3.23455L1.65705 3.46364H1.43721L1.61472 3.60443L1.54582 3.83318ZM2.72543 3.83318L2.9036 3.69103L3.08177 3.83318L3.01286 3.60443L3.19005 3.46364H2.96955L2.9036 3.23455L2.83568 3.46364H2.61682L2.79433 3.60443L2.72543 3.83318ZM4.02644 3.83318L4.20429 3.69103L4.38246 3.83318L4.31355 3.60443L4.49107 3.46364H4.27221L4.20429 3.23455L4.13636 3.46364H3.91718L4.09469 3.60443L4.02644 3.83318ZM5.31729 3.83318L5.49579 3.69103L5.67429 3.83318L5.6044 3.60443L5.78224 3.46364H5.56338L5.49546 3.23455L5.42819 3.46364H5.209L5.38652 3.60443L5.31729 3.83318ZM6.61502 3.83318L6.79188 3.69103L6.97005 3.83318L6.90049 3.60443L7.07833 3.46364H6.8598L6.79155 3.23455L6.72429 3.46364H6.5051L6.68261 3.60443L6.61502 3.83318ZM7.34575 3.23455L7.52393 3.09205L7.70243 3.23455L7.63319 3.00546L7.81038 2.86534L7.59283 2.86603L7.5236 2.63557L7.45601 2.86603L7.23518 2.86534L7.41466 3.00546L7.34575 3.23455ZM0.900724 4.43182L1.07922 4.28966L1.2574 4.43182L1.18816 4.20341L1.36568 4.06296L1.14649 4.06364L1.07857 3.83318L1.01163 4.06364L0.792114 4.06296L0.96963 4.20341L0.900724 4.43182ZM2.08033 4.43182L2.2585 4.28966L2.437 4.43182L2.36777 4.20341L2.54496 4.06296L2.32643 4.06364L2.25818 3.83318L2.19091 4.06364L1.97205 4.06296L2.14891 4.20341L2.08033 4.43182ZM3.38135 4.43182L3.55952 4.28966L3.73769 4.43182L3.66879 4.20341L3.84597 4.06296L3.6258 4.06364L3.55919 3.83318L3.4916 4.06364L3.27274 4.06296L3.45025 4.20341L3.38135 4.43182ZM4.67285 4.43182L4.85069 4.28966L5.02919 4.43182L4.96127 4.20341L5.13747 4.06296L4.91829 4.06364L4.85069 3.83318L4.7831 4.06364L4.56424 4.06296L4.74143 4.20341L4.67285 4.43182ZM5.96861 4.43182L6.14711 4.28966L6.32529 4.43182L6.25736 4.20341L6.43357 4.06296L6.21438 4.06364L6.14679 3.83318L6.07952 4.06364L5.86033 4.06296L6.03752 4.20341L5.96861 4.43182ZM1.52843 5.03046L1.7066 4.88864L1.88477 5.03046L1.81619 4.80341L1.99305 4.66228H1.77386L1.70627 4.43182L1.639 4.66228H1.41982L1.59733 4.80341L1.52843 5.03046ZM2.70804 5.03046L2.88621 4.88864L3.06438 5.03046L2.99547 4.80341L3.17266 4.66228H2.95315L2.88588 4.43182L2.81829 4.66228H2.5991L2.77694 4.80341L2.70804 5.03046ZM4.00938 5.03046L4.1869 4.88864L4.3654 5.03046L4.29518 4.80341L4.47368 4.66228H4.25482L4.1869 4.43182L4.1193 4.66228H3.90011L4.07763 4.80341L4.00938 5.03046ZM5.29924 5.03046L5.4784 4.88864L5.6569 5.03046L5.58799 4.80341L5.76485 4.66228H5.54599L5.47807 4.43182L5.4108 4.66228H5.19161L5.36913 4.80341L5.29924 5.03046ZM6.59533 5.03046L6.77449 4.88864L6.95299 5.03046L6.88376 4.80341L7.0616 4.66228H6.84274L6.77449 4.43182L6.7069 4.66228H6.48771L6.66522 4.80341L6.59533 5.03046ZM7.32836 4.43182L7.50654 4.28966L7.68471 4.43182L7.6158 4.20341L7.79332 4.06296L7.57315 4.06364L7.50621 3.83318L7.43861 4.06364L7.21877 4.06296L7.39727 4.20341L7.32836 4.43182ZM0.900724 5.62944L1.07922 5.48864L1.2574 5.62944L1.18816 5.40068L1.36568 5.26023L1.14649 5.26091L1.07857 5.03046L1.01163 5.26091L0.792114 5.26023L0.96963 5.40068L0.900724 5.62944ZM2.08033 5.62944L2.2585 5.48864L2.437 5.62944L2.36777 5.40068L2.54496 5.26023L2.32643 5.26091L2.25818 5.03046L2.19091 5.26091L1.97205 5.26023L2.14891 5.40068L2.08033 5.62944ZM3.38135 5.62944L3.55952 5.48864L3.73769 5.62944L3.66879 5.40068L3.84597 5.26023L3.6258 5.26091L3.55919 5.03046L3.4916 5.26091L3.27274 5.26023L3.45025 5.40068L3.38135 5.62944ZM4.67285 5.62944L4.85069 5.48864L5.02919 5.62944L4.96127 5.40068L5.13747 5.26023L4.91829 5.26091L4.85069 5.03046L4.7831 5.26091L4.56424 5.26023L4.74143 5.40068L4.67285 5.62944ZM5.96861 5.62944L6.14711 5.48864L6.32529 5.62944L6.25736 5.40068L6.43357 5.26023L6.21438 5.26091L6.14679 5.03046L6.07952 5.26091L5.86033 5.26023L6.03752 5.40068L5.96861 5.62944ZM1.52843 6.22841L1.7066 6.08591L1.88477 6.22841L1.81619 5.99932L1.99305 5.86023H1.77386L1.70627 5.62944L1.639 5.86023H1.41982L1.59733 5.99932L1.52843 6.22841ZM2.70804 6.22841L2.88621 6.08591L3.06438 6.22841L2.99547 5.99932L3.17266 5.86023H2.95315L2.88588 5.62944L2.81829 5.86023H2.5991L2.77694 5.99932L2.70804 6.22841ZM4.00938 6.22841L4.1869 6.08591L4.3654 6.22841L4.29518 5.99932L4.47368 5.86023H4.25482L4.1869 5.62944L4.1193 5.86023H3.90011L4.07763 5.99932L4.00938 6.22841ZM5.29924 6.22841L5.4784 6.08591L5.6569 6.22841L5.58799 5.99932L5.76485 5.86023H5.54599L5.47807 5.62944L5.4108 5.86023H5.19161L5.36913 5.99932L5.29924 6.22841ZM6.59533 6.22841L6.77449 6.08591L6.95299 6.22841L6.88376 5.99932L7.0616 5.86023H6.84274L6.77449 5.62944L6.7069 5.86023H6.48771L6.66522 5.99932L6.59533 6.22841ZM7.32836 5.62944L7.50654 5.48864L7.68471 5.62944L7.6158 5.40068L7.79332 5.26023L7.57315 5.26091L7.50621 5.03046L7.43861 5.26091L7.21877 5.26023L7.39727 5.40068L7.32836 5.62944Z" fill="white"/>
</g>
<defs>
<clipPath id="clip0_47_340">
<rect width="21" height="15" rx="1" fill="white"/>
</clipPath>
</defs>
</svg>
