<svg width="42" height="39" viewBox="0 0 42 39" fill="none" xmlns="http://www.w3.org/2000/svg">
<path d="M39.349 10.0193C38.9101 8.26407 37.617 6.88167 35.975 6.41254C32.9989 5.56006 21.065 5.56006 21.065 5.56006C21.065 5.56006 9.13115 5.56006 6.15495 6.41254C4.51302 6.88175 3.21985 8.26407 2.78094 10.0193C1.98349 13.2009 1.98349 19.8389 1.98349 19.8389C1.98349 19.8389 1.98349 26.4768 2.78094 29.6584C3.21985 31.4136 4.51302 32.7384 6.15495 33.2076C9.13115 34.0601 21.065 34.0601 21.065 34.0601C21.065 34.0601 32.9988 34.0601 35.975 33.2076C37.617 32.7384 38.9101 31.4136 39.349 29.6584C40.1465 26.4768 40.1465 19.8389 40.1465 19.8389C40.1465 19.8389 40.1465 13.2009 39.349 10.0193ZM17.1619 25.8656V13.8121L27.1363 19.839L17.1619 25.8656Z" fill="#646464"/>
</svg>
