<svg width="38" height="39" viewBox="0 0 38 39" fill="none" xmlns="http://www.w3.org/2000/svg">
<path d="M37.69 19.2925C37.69 29.4604 29.3113 37.6987 18.97 37.6987C17.0376 37.6987 15.1807 37.4093 13.4295 36.8749C14.1919 35.6503 15.3317 33.6464 15.7544 32.0507C15.9808 31.1897 16.9168 27.6718 16.9168 27.6718C17.5283 28.8147 19.3097 29.787 21.2043 29.787C26.8505 29.787 30.9191 24.6808 30.9191 18.3351C30.9191 12.2565 25.8692 7.70693 19.3776 7.70693C11.3008 7.70693 7.00581 13.0358 7.00581 18.8472C7.00581 21.5487 8.47019 24.9108 10.8026 25.9796C11.1574 26.1429 11.3461 26.0687 11.4292 25.7347C11.4895 25.4823 11.8066 24.228 11.95 23.6491C11.9953 23.4636 11.9726 23.3003 11.8217 23.1222C11.0593 22.1944 10.4403 20.5022 10.4403 18.9214C10.4403 14.8616 13.5654 10.9354 18.8945 10.9354C23.4915 10.9354 26.7146 14.0155 26.7146 18.4241C26.7146 23.4042 24.1557 26.8554 20.8269 26.8554C18.9926 26.8554 17.6113 25.3636 18.0566 23.5304C18.585 21.3409 19.6041 18.9808 19.6041 17.3999C19.6041 15.9897 18.8341 14.8097 17.2339 14.8097C15.3543 14.8097 13.8446 16.7171 13.8446 19.2776C13.8446 20.9104 14.4032 22.0089 14.4032 22.0089C14.4032 22.0089 12.5539 29.7128 12.2142 31.1526C11.8368 32.7409 11.9877 34.9823 12.1463 36.437C5.18665 33.7577 0.25 27.0929 0.25 19.2925C0.25 9.12451 8.62871 0.88623 18.97 0.88623C29.3113 0.88623 37.69 9.12451 37.69 19.2925Z" fill="black"/>
</svg>
