<svg width="39" height="39" viewBox="0 0 39 39" fill="none" xmlns="http://www.w3.org/2000/svg">
<path d="M34.8439 11.5527C34.868 11.8902 34.868 12.2278 34.868 12.5654C34.868 22.861 27.0317 34.724 12.7094 34.724C8.29693 34.724 4.19798 33.446 0.75 31.2278C1.37693 31.3001 1.97966 31.3242 2.6307 31.3242C6.2715 31.3242 9.62307 30.0946 12.2995 27.9969C8.87562 27.9245 6.00632 25.6821 5.01773 22.5958C5.5 22.6681 5.9822 22.7164 6.48859 22.7164C7.18781 22.7164 7.8871 22.6199 8.53807 22.4512C4.96956 21.7278 2.29308 18.5933 2.29308 14.8078V14.7113C3.32984 15.29 4.53553 15.6517 5.81335 15.6999C3.71563 14.3014 2.34132 11.9143 2.34132 9.21381C2.34132 7.76714 2.72704 6.441 3.40221 5.28363C7.23598 10.0095 12.9987 13.0958 19.4605 13.4334C19.34 12.8547 19.2677 12.252 19.2677 11.6492C19.2677 7.35723 22.7398 3.86108 27.0557 3.86108C29.2981 3.86108 31.3235 4.80144 32.7461 6.32047C34.5062 5.98292 36.194 5.33188 37.689 4.43977C37.1102 6.24818 35.8806 7.76722 34.2651 8.73162C35.8324 8.56292 37.3514 8.12881 38.7499 7.52608C37.6891 9.06916 36.3629 10.4435 34.8439 11.5527Z" fill="black"/>
</svg>
