<svg width="36" height="39" viewBox="0 0 36 39" fill="none" xmlns="http://www.w3.org/2000/svg">
<path d="M18.0728 10.7574C12.9976 10.7574 8.90388 14.5648 8.90388 19.2851C8.90388 24.0054 12.9976 27.8128 18.0728 27.8128C23.148 27.8128 27.2417 24.0054 27.2417 19.2851C27.2417 14.5648 23.148 10.7574 18.0728 10.7574ZM18.0728 24.8292C14.7931 24.8292 12.1118 22.3429 12.1118 19.2851C12.1118 16.2273 14.7851 13.741 18.0728 13.741C21.3605 13.741 24.0338 16.2273 24.0338 19.2851C24.0338 22.3429 21.3525 24.8292 18.0728 24.8292ZM29.7554 10.4085C29.7554 11.5144 28.7978 12.3976 27.6168 12.3976C26.4278 12.3976 25.4782 11.507 25.4782 10.4085C25.4782 9.31011 26.4358 8.41948 27.6168 8.41948C28.7978 8.41948 29.7554 9.31011 29.7554 10.4085ZM35.8281 12.4273C35.6924 9.76284 35.0381 7.40269 32.9394 5.45815C30.8486 3.51362 28.311 2.90503 25.4462 2.77144C22.4937 2.61558 13.644 2.61558 10.6914 2.77144C7.83458 2.89761 5.29697 3.5062 3.19825 5.45073C1.09953 7.39526 0.45316 9.75542 0.309521 12.4199C0.141943 15.166 0.141943 23.3968 0.309521 26.1429C0.44518 28.8074 1.09953 31.1675 3.19825 33.1121C5.29697 35.0566 7.8266 35.6652 10.6914 35.7988C13.644 35.9546 22.4937 35.9546 25.4462 35.7988C28.311 35.6726 30.8486 35.064 32.9394 33.1121C35.0301 31.1675 35.6845 28.8074 35.8281 26.1429C35.9957 23.3968 35.9957 15.1734 35.8281 12.4273ZM32.0137 29.0894C31.3913 30.5441 30.1863 31.6648 28.6143 32.2511C26.2602 33.1195 20.6743 32.9191 18.0728 32.9191C15.4714 32.9191 9.87743 33.1121 7.53134 32.2511C5.96728 31.6722 4.76231 30.5515 4.1319 29.0894C3.19825 26.9 3.41371 21.7046 3.41371 19.2851C3.41371 16.8656 3.20623 11.6628 4.1319 9.48081C4.75433 8.02612 5.9593 6.90542 7.53134 6.31909C9.88541 5.45073 15.4714 5.65112 18.0728 5.65112C20.6743 5.65112 26.2682 5.45815 28.6143 6.31909C30.1783 6.898 31.3833 8.0187 32.0137 9.48081C32.9474 11.6703 32.7319 16.8656 32.7319 19.2851C32.7319 21.7046 32.9474 26.9074 32.0137 29.0894Z" fill="black"/>
</svg>
