<svg width="34" height="30" viewBox="0 0 34 30" fill="none" xmlns="http://www.w3.org/2000/svg">
<path d="M19.2166 4.6875C19.2166 3.65039 18.1591 2.8125 16.8502 2.8125C15.5412 2.8125 14.4837 3.65039 14.4837 4.6875V13.125H3.83481C2.52588 13.125 1.46838 13.9629 1.46838 15C1.46838 16.0371 2.52588 16.875 3.83481 16.875H14.4837V25.3125C14.4837 26.3496 15.5412 27.1875 16.8502 27.1875C18.1591 27.1875 19.2166 26.3496 19.2166 25.3125V16.875H29.8655C31.1745 16.875 32.232 16.0371 32.232 15C32.232 13.9629 31.1745 13.125 29.8655 13.125H19.2166V4.6875Z" fill="white"/>
</svg>
