<svg width="20" height="17" viewBox="0 0 20 17" fill="none" xmlns="http://www.w3.org/2000/svg">
<rect x="0.35" y="0.85" width="19.3" height="15.3" rx="1.65" fill="white"/>
<rect x="0.35" y="0.85" width="19.3" height="15.3" rx="1.65" stroke="#C5CDD0" stroke-width="0.7"/>
<g clip-path="url(#clip0_47_322)">
<path d="M12.7865 4.77838C12.3511 4.25249 11.5639 4.02702 10.557 4.02702H7.63448C7.53485 4.02703 7.43848 4.06469 7.36272 4.13324C7.28695 4.20179 7.23675 4.29673 7.22113 4.401L6.00426 12.5787C5.98007 12.74 6.09791 12.886 6.25216 12.886H8.05641L8.50954 9.8406L8.49548 9.93596C8.52776 9.7207 8.70151 9.56192 8.90726 9.56192H9.76463C11.4489 9.56192 12.7678 8.83702 13.153 6.74004C13.1645 6.67802 13.1744 6.61765 13.1829 6.55868C13.1343 6.53139 13.1343 6.53139 13.1829 6.55868C13.2977 5.78361 13.1822 5.25603 12.7865 4.77838Z" fill="#27346A"/>
<path d="M9.19991 6.27947C9.24924 6.25459 9.30319 6.24169 9.35782 6.24172H11.649C11.9203 6.24172 12.1734 6.26043 12.4046 6.29987C12.4693 6.3108 12.5337 6.32386 12.5977 6.33901C12.6883 6.3602 12.7779 6.38614 12.8661 6.41673C12.9798 6.45696 13.0857 6.50381 13.183 6.55868C13.2977 5.78331 13.1822 5.25603 12.7865 4.77838C12.3508 4.25249 11.5639 4.02702 10.557 4.02702H7.63423C7.42844 4.02702 7.25338 4.18577 7.22113 4.401L6.00426 12.5784C5.98007 12.7399 6.09791 12.8858 6.25191 12.8858H8.05641L8.99651 6.56888C9.00575 6.50679 9.02909 6.44801 9.06453 6.39759C9.09996 6.34718 9.14642 6.30664 9.19991 6.27947Z" fill="#27346A"/>
<path d="M13.153 6.74003C12.7678 8.83672 11.4489 9.56191 9.7646 9.56191H8.90698C8.70123 9.56191 8.52744 9.72069 8.49548 9.93595L7.93176 13.7225C7.91069 13.8637 8.01369 13.9916 8.14844 13.9916H9.66938C9.75651 13.9915 9.84076 13.9586 9.907 13.8986C9.97324 13.8386 10.0171 13.7556 10.0307 13.6644L10.0455 13.5823L10.3322 11.6572L10.3507 11.5509C10.3643 11.4597 10.4081 11.3766 10.4744 11.3167C10.5406 11.2567 10.6249 11.2237 10.712 11.2237H10.9396C12.4129 11.2237 13.5666 10.5895 13.9037 8.75516C14.0444 7.9886 13.9716 7.3486 13.5994 6.89907C13.4865 6.76291 13.3463 6.65046 13.1829 6.55867C13.1741 6.61794 13.1645 6.67801 13.153 6.74003Z" fill="#2790C3"/>
<path d="M12.7798 6.38834C12.7197 6.36975 12.6591 6.3533 12.5979 6.339C12.534 6.3241 12.4696 6.31113 12.4049 6.30013C12.1734 6.26043 11.9205 6.24168 11.649 6.24168H9.35807C9.3034 6.24155 9.24941 6.25456 9.20017 6.27973C9.14661 6.30682 9.1001 6.34733 9.06465 6.39776C9.0292 6.44819 9.00589 6.50701 8.99673 6.56914L8.50979 9.84059L8.49573 9.93596C8.52776 9.72069 8.70151 9.56192 8.90729 9.56192H9.76491C11.4492 9.56192 12.768 8.83702 13.1533 6.74003C13.1648 6.67801 13.1744 6.61791 13.1832 6.55867C13.0857 6.5041 12.9801 6.45695 12.8664 6.41698C12.8377 6.4069 12.8088 6.39735 12.7798 6.38834" fill="#1F264F"/>
</g>
<defs>
<clipPath id="clip0_47_322">
<rect width="8" height="10" fill="white" transform="translate(6 4)"/>
</clipPath>
</defs>
</svg>
