<svg width="39" height="39" viewBox="0 0 39 39" fill="none" xmlns="http://www.w3.org/2000/svg">
<path d="M34.5939 12.0702C34.618 12.4078 34.618 12.7454 34.618 13.083C34.618 23.3786 26.7817 35.2416 12.4594 35.2416C8.04693 35.2416 3.94798 33.9636 0.5 31.7454C1.12693 31.8177 1.72966 31.8418 2.3807 31.8418C6.0215 31.8418 9.37307 30.6122 12.0495 28.5145C8.62562 28.4421 5.75632 26.1997 4.76773 23.1134C5.25 23.1857 5.7322 23.2339 6.23859 23.2339C6.93781 23.2339 7.6371 23.1375 8.28807 22.9688C4.71956 22.2453 2.04308 19.1109 2.04308 15.3253V15.2289C3.07984 15.8076 4.28553 16.1693 5.56335 16.2174C3.46563 14.8189 2.09132 12.4319 2.09132 9.73139C2.09132 8.28472 2.47704 6.95858 3.15221 5.80121C6.98598 10.5271 12.7487 13.6133 19.2105 13.951C19.09 13.3723 19.0177 12.7695 19.0177 12.1667C19.0177 7.87481 22.4898 4.37866 26.8057 4.37866C29.0481 4.37866 31.0735 5.31901 32.4961 6.83805C34.2562 6.5005 35.944 5.84946 37.439 4.95735C36.8602 6.76576 35.6306 8.2848 34.0151 9.24919C35.5824 9.08049 37.1014 8.64639 38.4999 8.04366C37.4391 9.58674 36.1129 10.961 34.5939 12.0702Z" fill="#646464"/>
</svg>
