<svg width="38" height="39" viewBox="0 0 38 39" fill="none" xmlns="http://www.w3.org/2000/svg">
<path d="M37.44 19.8101C37.44 29.978 29.0613 38.2163 18.72 38.2163C16.7876 38.2163 14.9307 37.9269 13.1795 37.3925C13.9419 36.1679 15.0817 34.164 15.5044 32.5683C15.7308 31.7073 16.6668 28.1894 16.6668 28.1894C17.2783 29.3323 19.0597 30.3046 20.9543 30.3046C26.6005 30.3046 30.6691 25.1983 30.6691 18.8526C30.6691 12.7741 25.6192 8.22451 19.1276 8.22451C11.0508 8.22451 6.75581 13.5534 6.75581 19.3647C6.75581 22.0663 8.22019 25.4284 10.5526 26.4972C10.9074 26.6604 11.0961 26.5862 11.1792 26.2522C11.2395 25.9999 11.5566 24.7456 11.7 24.1667C11.7453 23.9812 11.7226 23.8179 11.5717 23.6397C10.8093 22.712 10.1903 21.0198 10.1903 19.439C10.1903 15.3792 13.3154 11.453 18.6445 11.453C23.2415 11.453 26.4646 14.5331 26.4646 18.9417C26.4646 23.9218 23.9057 27.3729 20.5769 27.3729C18.7426 27.3729 17.3613 25.8812 17.8066 24.0479C18.335 21.8585 19.3541 19.4983 19.3541 17.9175C19.3541 16.5073 18.5841 15.3272 16.9839 15.3272C15.1043 15.3272 13.5946 17.2347 13.5946 19.7952C13.5946 21.428 14.1532 22.5265 14.1532 22.5265C14.1532 22.5265 12.3039 30.2304 11.9642 31.6702C11.5868 33.2585 11.7377 35.4999 11.8963 36.9546C4.93665 34.2753 0 27.6104 0 19.8101C0 9.64209 8.37871 1.40381 18.72 1.40381C29.0613 1.40381 37.44 9.64209 37.44 19.8101Z" fill="#646464"/>
</svg>
