<svg width="17" height="17" viewBox="0 0 17 17" fill="none" xmlns="http://www.w3.org/2000/svg">
<path d="M2.15918 2.26996C1.33105 2.26996 0.65918 2.94183 0.65918 3.76996C0.65918 4.24183 0.881055 4.68558 1.25918 4.96996L8.05918 10.07C8.41543 10.3356 8.90293 10.3356 9.25918 10.07L16.0592 4.96996C16.4373 4.68558 16.6592 4.24183 16.6592 3.76996C16.6592 2.94183 15.9873 2.26996 15.1592 2.26996H2.15918ZM0.65918 5.76996V12.27C0.65918 13.3731 1.55605 14.27 2.65918 14.27H14.6592C15.7623 14.27 16.6592 13.3731 16.6592 12.27V5.76996L9.85918 10.87C9.14668 11.4043 8.17168 11.4043 7.45918 10.87L0.65918 5.76996Z" fill="#646464"/>
</svg>
