<svg width="17" height="17" viewBox="0 0 17 17" fill="none" xmlns="http://www.w3.org/2000/svg">
<path d="M15.0145 5.01108C15.0246 5.15321 15.0246 5.29537 15.0246 5.43749C15.0246 9.77249 11.7252 14.7674 5.69471 14.7674C3.83684 14.7674 2.11096 14.2293 0.65918 13.2954C0.923148 13.3258 1.17693 13.336 1.45105 13.336C2.98402 13.336 4.39521 12.8182 5.52212 11.935C4.08049 11.9045 2.87237 10.9603 2.45612 9.66083C2.65918 9.69127 2.86221 9.71158 3.07543 9.71158C3.36984 9.71158 3.66427 9.67096 3.93837 9.59993C2.43584 9.29533 1.3089 7.97555 1.3089 6.38165V6.34105C1.74543 6.58471 2.25309 6.73699 2.79112 6.75727C1.90787 6.16843 1.32921 5.16337 1.32921 4.0263C1.32921 3.41718 1.49162 2.8588 1.7759 2.37149C3.39012 4.36133 5.81652 5.6608 8.5373 5.80296C8.48656 5.5593 8.45609 5.30552 8.45609 5.05171C8.45609 3.24458 9.91802 1.77252 11.7353 1.77252C12.6794 1.77252 13.5322 2.16846 14.1312 2.80805C14.8723 2.66593 15.583 2.3918 16.2124 2.01618C15.9687 2.77762 15.451 3.41721 14.7708 3.82327C15.4307 3.75224 16.0703 3.56946 16.6591 3.31568C16.2125 3.9654 15.6541 4.54405 15.0145 5.01108Z" fill="#646464"/>
</svg>
