<svg width="15" height="17" viewBox="0 0 15 17" fill="none" xmlns="http://www.w3.org/2000/svg">
<path d="M7.66233 4.67618C5.67483 4.67618 4.0717 6.27931 4.0717 8.26681C4.0717 10.2543 5.67483 11.8574 7.66233 11.8574C9.64983 11.8574 11.253 10.2543 11.253 8.26681C11.253 6.27931 9.64983 4.67618 7.66233 4.67618ZM7.66233 10.6012C6.37795 10.6012 5.32795 9.55431 5.32795 8.26681C5.32795 6.97931 6.37483 5.93243 7.66233 5.93243C8.94983 5.93243 9.9967 6.97931 9.9967 8.26681C9.9967 9.55431 8.9467 10.6012 7.66233 10.6012ZM12.2373 4.52931C12.2373 4.99493 11.8623 5.36681 11.3998 5.36681C10.9342 5.36681 10.5623 4.99181 10.5623 4.52931C10.5623 4.06681 10.9373 3.69181 11.3998 3.69181C11.8623 3.69181 12.2373 4.06681 12.2373 4.52931ZM14.6155 5.37931C14.5623 4.25743 14.3061 3.26368 13.4842 2.44493C12.6655 1.62618 11.6717 1.36993 10.5498 1.31368C9.39358 1.24806 5.92795 1.24806 4.7717 1.31368C3.65295 1.36681 2.6592 1.62306 1.83733 2.44181C1.01545 3.26056 0.762329 4.25431 0.706079 5.37618C0.640454 6.53243 0.640454 9.99806 0.706079 11.1543C0.759204 12.2762 1.01545 13.2699 1.83733 14.0887C2.6592 14.9074 3.64983 15.1637 4.7717 15.2199C5.92795 15.2856 9.39358 15.2856 10.5498 15.2199C11.6717 15.1668 12.6655 14.9106 13.4842 14.0887C14.303 13.2699 14.5592 12.2762 14.6155 11.1543C14.6811 9.99806 14.6811 6.53556 14.6155 5.37931ZM13.1217 12.3949C12.878 13.0074 12.4061 13.4793 11.7905 13.7262C10.8686 14.0918 8.68108 14.0074 7.66233 14.0074C6.64358 14.0074 4.45295 14.0887 3.5342 13.7262C2.9217 13.4824 2.44983 13.0106 2.20295 12.3949C1.83733 11.4731 1.9217 9.28556 1.9217 8.26681C1.9217 7.24806 1.84045 5.05743 2.20295 4.13868C2.4467 3.52618 2.91858 3.05431 3.5342 2.80743C4.45608 2.44181 6.64358 2.52618 7.66233 2.52618C8.68108 2.52618 10.8717 2.44493 11.7905 2.80743C12.403 3.05118 12.8748 3.52306 13.1217 4.13868C13.4873 5.06056 13.403 7.24806 13.403 8.26681C13.403 9.28556 13.4873 11.4762 13.1217 12.3949Z" fill="#646464"/>
</svg>
