<svg width="16" height="16" viewBox="0 0 16 16" fill="none" xmlns="http://www.w3.org/2000/svg">
<g clip-path="url(#clip0_47_273)">
<path d="M8 0C3.58175 0 0 3.58175 0 8C0 12.4185 3.58175 16 8 16C12.4185 16 16 12.4185 16 8C16 3.58175 12.4185 0 8 0ZM8 15.0158C4.14025 15.0158 1 11.8597 1 7.99997C1 4.14022 4.14025 0.999969 8 0.999969C11.8597 0.999969 15 4.14023 15 7.99997C15 11.8597 11.8597 15.0158 8 15.0158Z" fill="#22A6F1"/>
<path d="M6.77505 11L3.92505 8.15L4.63755 7.4375L6.77505 9.575L11.3625 4.9875L12.075 5.7L6.77505 11Z" fill="#22A6F1"/>
</g>
<defs>
<clipPath id="clip0_47_273">
<rect width="16" height="16" fill="white"/>
</clipPath>
</defs>
</svg>
