<svg width="210" height="35" viewBox="0 0 210 35" fill="none" xmlns="http://www.w3.org/2000/svg">
<g clip-path="url(#clip0_14_243)">
<g clip-path="url(#clip1_14_243)">
<g clip-path="url(#clip2_14_243)">
<path d="M38.3339 3.67083C38.3339 3.58952 38.3979 3.42692 38.462 3.42692C38.462 3.42692 38.7182 3.42692 38.9744 3.50822L39.2947 3.18301L39.4228 3.0204C39.5509 3.10171 39.8071 3.10171 39.9993 3.10171C40.1914 3.10171 40.7678 2.69519 40.8319 2.77649V2.9391C40.8319 3.10171 41.0241 3.10171 41.2803 3.0204C41.4725 2.9391 42.3692 3.10171 42.6254 3.10171C42.8816 3.10171 43.6502 2.77649 43.8424 2.77649C44.0346 2.77649 44.4188 3.0204 44.547 3.0204C44.675 3.0204 45.0594 2.77649 45.1234 2.77649C45.1875 2.77649 45.4437 2.77649 45.4437 2.61389C45.4437 2.45128 45.9561 2.69519 46.0842 2.69519L46.2123 2.61389C46.4685 2.45128 46.5325 2.53259 46.5966 2.77649L46.6607 2.9391C46.8528 2.69519 47.0449 2.53259 47.1731 2.61389C47.3012 2.69519 47.7495 2.69519 48.0057 2.69519L48.1979 2.53259L48.326 2.45128C48.4541 2.45128 48.7103 2.53259 48.8385 2.53259L48.7744 2.77649C48.9025 2.85779 48.9665 3.0204 49.0947 3.18301C49.2227 3.10171 49.2868 3.0204 49.2868 2.85779C49.2868 2.77649 49.6071 2.61389 49.8633 2.53259L50.0555 2.69519V2.77649C50.3117 2.9391 50.5679 2.9391 50.6959 2.77649L50.824 2.69519L50.8881 2.61389C51.0162 2.61389 51.0802 2.69519 51.0802 2.77649V2.9391C51.0802 3.0204 51.1443 3.0204 51.2724 3.0204L51.3364 3.10171C51.4005 3.0204 51.4646 2.85779 51.5287 2.77649L51.6567 2.61389C51.7848 2.69519 51.977 2.69519 52.041 2.69519C52.1051 2.69519 52.5534 2.69519 52.8737 3.0204L53.3221 2.69519C53.3861 2.61389 53.5783 2.69519 53.5783 2.69519L53.7704 3.0204C54.0266 2.85779 54.2828 2.69519 54.3469 2.61389C54.411 2.53259 54.6671 2.36998 54.7312 2.45128C54.7953 2.61389 55.0515 2.85779 55.2436 2.69519H55.3718L55.6279 2.61389C55.9482 2.61389 56.2044 2.61389 56.2685 2.53259C56.3326 2.53259 56.5887 2.45128 56.7809 2.36998C56.9731 2.28867 57.6776 2.61389 57.7417 2.53259L57.8057 2.45128C57.9338 2.45128 57.9979 2.45128 57.9338 2.61389V2.69519C57.9338 2.77649 58.0619 2.85779 58.126 2.85779L58.3181 3.0204C58.3181 2.85779 58.3822 2.69519 58.4463 2.61389C58.5102 2.53259 58.8305 2.36998 59.1508 2.45128L59.407 2.53259H59.471C59.5351 2.61389 59.5351 2.69519 59.5351 2.69519C59.5351 2.69519 59.407 2.85779 59.343 3.10171C59.2789 3.34562 58.5743 3.26432 58.5102 3.26432V3.42692C58.5102 3.50822 58.8305 3.75213 59.1508 3.91474L59.5351 3.67083L59.6633 3.50822C59.8554 3.42692 59.8554 3.34562 59.6633 3.26432C59.471 3.18301 59.7272 2.53259 59.9195 2.36998H60.1757C60.624 2.36998 61.0724 2.53259 61.5207 2.28867C61.6488 2.20737 61.905 2.28867 62.0332 2.45128L62.1612 2.53259C62.2253 2.77649 62.2894 2.85779 62.3534 2.69519C62.4174 2.53259 62.7377 2.20737 62.9299 2.28867C63.122 2.28867 63.7626 2.20737 63.8907 1.96346L64.0828 2.12606H64.1469C64.211 2.20737 64.2749 2.36998 64.4031 2.53259L64.5952 2.36998H64.6593C64.7874 2.36998 64.9155 2.45128 64.9155 2.61389C64.9155 2.69519 65.0436 2.9391 65.1077 2.85779V2.77649C65.1077 2.69519 65.1077 2.61389 65.1077 2.61389C65.1717 2.45128 65.2998 2.45128 65.4279 2.53259C65.7481 2.77649 65.4919 2.28867 65.6842 2.28867H65.8122C65.9403 2.20737 66.1965 2.28867 66.3887 2.36998L66.5809 2.20737C66.6449 2.12606 66.773 2.12606 66.773 2.12606L67.1573 2.61389C67.4135 2.20737 67.7338 2.04477 67.9259 2.28867C68.1181 2.45128 68.8226 2.28867 68.9508 2.36998C69.0788 2.45128 69.6553 2.20737 69.9756 2.20737L70.2318 2.04477H70.2958C70.3599 2.12606 70.6802 2.20737 70.8723 2.28867L71.2566 2.20737L71.5769 2.12606C71.641 2.36998 71.769 2.45128 71.8972 2.28867C72.0253 2.20737 72.5377 2.28867 72.6018 2.28867C72.6657 2.28867 72.922 2.12606 73.1782 2.04477L73.6906 2.20737C74.0109 2.20737 74.2671 2.20737 74.3311 2.20737C74.3952 2.28867 74.5233 2.28867 74.5873 2.20737C74.6514 2.12606 75.0357 1.88216 75.0997 1.96346C75.1638 2.04477 75.42 2.28867 75.5481 2.36998C75.6762 2.45128 76.1887 2.36998 76.4449 2.20737C76.7011 2.12606 77.3416 2.20737 77.4696 2.20737C77.5978 2.20737 78.0462 2.04477 78.1102 2.12606C78.2383 2.20737 78.5586 2.36998 78.6227 2.36998H78.6866L78.8789 2.20737C79.135 2.20737 79.4553 2.28867 79.5194 2.28867C79.5835 2.28867 79.9036 2.20737 80.0958 2.20737C80.288 2.20737 80.7364 2.20737 80.7364 1.96346L81.1206 2.20737L81.1847 2.28867C81.2488 2.28867 81.4409 2.36998 81.6331 2.36998C81.8252 2.36998 82.4017 2.45128 82.5938 2.28867C82.786 2.20737 83.3625 2.04477 83.4905 2.04477L83.5546 2.12606C83.6828 2.28867 83.8108 2.45128 84.0671 2.36998H84.2592C84.3874 2.20737 84.5154 2.04477 84.5795 2.04477H84.8997C85.1559 1.96346 85.5403 1.88216 85.7324 1.80085L85.8605 2.04477C85.9886 2.28867 86.2448 2.36998 86.501 2.12606L87.654 1.96346H87.9743C88.3585 1.96346 88.7428 2.04477 88.871 1.96346C88.999 1.96346 89.3193 2.20737 89.3193 2.04477C89.3193 1.88216 89.4474 1.80085 89.5755 2.04477C89.7036 2.28867 90.4722 2.04477 90.7925 2.04477C91.0487 2.04477 91.8814 1.88216 91.9454 1.80085L92.3938 2.20737C92.9703 2.12606 93.5467 2.12606 93.5467 2.12606C93.7389 1.96346 93.867 1.80085 94.1232 1.96346L94.2513 2.04477C94.5075 1.96346 94.8919 1.80085 95.1481 1.80085H95.6605C95.9807 1.80085 96.301 1.88216 96.3651 1.96346C96.429 2.04477 96.6213 2.12606 96.6213 2.12606C96.6213 2.04477 96.8775 1.88216 97.0056 1.88216C97.1977 1.88216 97.7101 1.80085 97.8383 1.88216V2.28867C98.0304 2.20737 98.4147 2.12606 98.6709 2.04477L98.9271 2.20737C99.0552 2.28867 99.2474 2.28867 99.3114 2.20737C99.5035 2.04477 99.6958 2.04477 99.952 2.04477H100.144C100.4 1.96346 100.657 1.88216 100.721 1.80085C100.849 1.80085 101.169 1.96346 101.361 1.96346C101.553 1.96346 102.065 1.88216 102.194 1.88216C102.258 1.88216 102.515 1.71955 102.578 1.80085C102.642 1.88216 103.091 2.20737 103.411 2.45128L103.475 1.80085C103.475 1.80085 103.667 1.71955 103.731 1.80085L104.243 2.04477C104.499 1.96346 105.076 1.88216 105.525 1.80085H106.037C106.101 1.96346 106.549 2.04477 107.062 1.96346H107.51C107.638 1.96346 107.638 2.20737 107.446 2.28867L107.382 2.36998C107.254 2.36998 107.254 2.45128 107.382 2.53259C107.51 2.61389 107.766 2.61389 107.766 2.45128C107.766 2.28867 107.894 1.80085 108.087 1.80085C108.279 1.80085 108.919 1.96346 109.111 1.96346H109.304C109.496 1.96346 109.752 1.96346 109.944 2.04477L110.265 2.20737C110.584 2.04477 110.904 1.88216 111.097 1.80085C111.225 1.71955 111.482 2.12606 111.482 2.12606C111.482 2.12606 111.673 2.04477 111.738 1.96346L111.866 2.12606C112.058 2.28867 112.186 2.28867 112.249 1.96346V1.88216C112.378 1.80085 112.57 1.80085 112.634 1.96346C112.699 2.12606 113.211 2.04477 113.466 1.96346C113.723 1.96346 114.492 1.88216 114.62 1.88216L114.683 1.71955C114.683 1.71955 114.94 1.63824 114.94 1.71955C115.004 1.80085 115.004 2.12606 115.261 1.96346L115.389 1.88216C115.452 1.63824 115.709 1.55694 115.965 1.71955L116.221 1.88216C116.285 1.88216 116.926 1.80085 116.989 1.80085C117.182 1.63824 117.374 1.39434 117.438 1.88216C117.502 1.88216 117.63 1.96346 117.758 1.96346C117.886 1.96346 118.271 2.04477 118.271 2.04477C118.334 1.96346 118.463 1.80085 118.463 1.71955C118.463 1.71955 118.655 1.55694 118.847 1.47564C119.04 1.39434 119.488 1.63824 119.551 1.55694C119.551 1.47564 119.872 1.47564 119.936 1.55694C120.001 1.63824 120.385 1.88216 120.512 1.80085C120.577 1.71955 120.897 1.55694 120.961 1.63824C121.025 1.71955 121.218 1.80085 121.281 1.71955C121.281 1.63824 121.474 1.47564 121.602 1.63824H121.985C122.05 1.80085 122.178 1.88216 122.306 1.71955C122.37 1.55694 122.691 1.23173 122.691 1.31303C122.691 1.39434 162.485 1.47564 162.55 1.47564C162.678 1.39434 162.934 1.31303 162.998 1.39434V1.47564C163.063 1.71955 163.254 1.71955 163.318 1.55694C163.382 1.15043 163.639 1.15043 163.831 1.31303L164.023 1.47564C164.215 1.39434 164.535 1.31303 164.791 1.23173L164.984 1.47564C165.176 1.71955 165.368 1.80085 165.624 1.55694C165.624 1.55694 165.752 1.55694 165.752 1.63824L165.945 1.88216C166.008 1.80085 166.136 1.63824 166.201 1.47564H166.521C166.841 1.55694 167.097 1.55694 167.162 1.55694C167.225 1.55694 167.418 1.47564 167.546 1.47564C167.674 1.47564 168.122 1.80085 168.314 1.63824C168.442 1.55694 168.955 1.39434 169.019 1.55694C169.083 1.71955 169.659 1.39434 169.98 1.39434C170.236 1.39434 170.941 1.55694 170.941 1.47564C170.941 1.39434 171.069 1.06912 171.133 1.23173V1.39434C171.133 1.47564 171.325 1.55694 171.581 1.55694C171.773 1.55694 172.286 1.80085 172.158 1.88216C172.03 1.96346 170.62 2.04477 170.3 2.12606C169.98 2.20737 170.044 2.36998 170.236 2.36998L170.428 2.45128C170.492 2.36998 170.684 2.20737 170.813 2.12606C171.004 2.04477 171.197 2.61389 171.325 2.61389C171.389 2.61389 171.517 2.45128 171.453 2.28867V2.20737C171.517 1.88216 171.517 1.96346 171.325 1.88216L171.197 1.39434C171.004 1.47564 170.748 1.55694 170.748 1.55694H170.684L170.428 1.71955C170.684 1.63824 171.069 1.71955 171.325 1.88216C171.581 2.04477 172.093 2.12606 172.286 2.04477C172.414 1.96346 172.99 2.12606 173.118 2.04477C173.247 1.96346 173.247 1.63824 173.182 1.55694C173.182 1.55694 172.926 1.39434 172.862 1.39434C172.734 1.39434 172.606 1.31303 172.734 1.23173C172.862 1.15043 173.31 0.825213 173.31 0.825213C173.31 0.74391 173.631 0.825213 173.695 0.825213C173.759 0.825213 173.951 1.15043 174.015 1.23173C174.079 1.39434 174.655 1.63824 174.655 1.71955C174.72 1.80085 174.783 1.47564 174.72 1.39434H174.655L174.464 1.31303C174.271 1.23173 174.143 1.06912 174.207 0.906517V0.825213C174.143 0.74391 174.079 0.581303 174.271 0.662606L174.527 0.74391C174.848 0.825213 175.232 0.906517 175.36 0.906517C175.552 0.98782 176.321 0.74391 176.385 0.662606C176.513 0.581303 176.705 0.581303 176.898 0.5L177.026 0.581303H177.089L177.154 0.662606C177.282 0.825213 177.41 0.825213 177.474 0.74391C177.538 0.662606 177.858 0.662606 177.986 0.74391C178.115 0.825213 178.627 0.662606 178.819 0.825213L179.011 0.98782C179.011 0.98782 178.947 1.15043 178.947 1.23173V1.31303C178.947 1.39434 179.011 1.31303 179.075 1.15043C179.139 0.98782 179.588 0.825213 179.523 0.825213C179.523 0.74391 179.588 0.662606 179.716 0.662606C179.844 0.662606 180.42 0.906517 180.677 0.98782C180.933 1.06912 181.637 0.825213 181.637 0.906517C181.637 0.98782 181.829 0.98782 181.766 1.06912C181.766 1.15043 181.573 1.23173 181.509 1.31303C181.445 1.39434 181.637 1.96346 182.022 2.04477L182.15 1.71955L182.278 1.47564C182.085 1.06912 182.085 0.74391 182.342 0.74391L182.405 0.825213C182.534 0.98782 182.598 1.23173 182.854 1.23173C182.854 1.23173 182.854 1.23173 182.854 1.31303C182.918 1.71955 182.918 1.71955 183.302 1.80085H183.495C183.751 1.88216 183.943 1.80085 183.943 1.63824C183.943 1.47564 184.007 0.98782 184.135 0.98782L184.263 1.15043C184.391 1.31303 184.391 1.47564 184.263 1.55694C184.135 1.55694 184.135 2.04477 184.263 2.04477C184.391 2.04477 184.712 1.80085 184.776 1.80085C184.839 1.88216 185.032 2.04477 185.096 1.96346H185.16C185.224 1.88216 185.288 1.80085 185.352 1.71955C185.417 1.63824 185.736 1.96346 185.801 1.88216C185.865 1.80085 186.121 1.55694 186.249 1.63824C186.377 1.71955 186.762 1.80085 186.825 1.71955C186.89 1.63824 187.082 1.47564 187.146 1.55694C187.146 1.63824 187.338 1.96346 187.402 1.96346H187.466L187.914 1.71955C188.299 1.96346 188.683 2.20737 188.747 2.20737C188.811 2.28867 189.003 2.36998 189.003 2.28867C189.003 2.28867 189.068 2.04477 189.068 1.96346C189.068 1.80085 189.452 1.96346 189.579 1.96346C189.707 2.04477 189.964 1.96346 189.964 2.04477C189.964 2.12606 190.348 1.96346 190.413 1.88216C190.541 1.80085 190.989 1.71955 191.117 1.63824L191.181 1.55694C191.245 1.55694 191.309 1.47564 191.309 1.47564L191.693 1.88216C191.758 1.47564 191.95 1.23173 192.141 1.31303C192.334 1.39434 192.654 1.96346 192.654 1.88216C192.654 1.80085 192.719 1.63824 192.782 1.55694C192.91 1.71955 193.103 1.80085 193.23 1.96346C193.295 2.04477 193.167 2.12606 193.167 2.28867V2.36998C193.167 2.45128 193.295 2.61389 193.358 2.61389L193.423 2.53259C193.679 2.28867 193.807 2.36998 193.871 2.69519C193.999 2.69519 194.127 2.61389 194.127 2.53259C194.127 2.45128 194.127 2.20737 194.064 2.20737C193.999 2.20737 194.127 1.88216 194.255 1.88216C194.384 1.88216 194.64 2.28867 194.703 2.53259V2.77649C194.703 2.85779 194.575 3.0204 194.447 3.0204H194.127C193.743 2.9391 193.423 3.0204 193.486 3.10171C193.486 3.26432 194.064 3.34562 194.127 3.42692C194.192 3.58952 194.255 3.83344 194.255 3.91474C194.255 3.99605 194.127 4.32126 194.064 4.48387L193.999 4.64646C193.871 4.80907 193.743 4.97168 193.551 5.05299C193.551 5.05299 193.486 4.89038 193.486 4.72777C193.486 4.56517 193.23 4.07734 193.103 4.15865C192.975 4.23995 192.719 4.56517 192.782 4.64646L192.91 4.80907C192.975 4.89038 193.038 4.97168 192.975 4.97168C192.91 5.05299 192.847 5.2156 192.91 5.29689C192.975 5.3782 194.127 5.54081 194.064 5.62211C193.999 5.62211 193.936 5.78472 194.064 5.70341C194.255 5.70341 194.384 6.10993 194.447 6.10993C194.512 6.10993 194.64 6.02862 194.64 6.02862C194.64 5.94732 194.64 5.86602 194.768 5.94732H194.896C195.216 6.19123 195.344 6.35384 195.216 6.35384C195.088 6.35384 194.703 6.51645 194.703 6.59775C194.703 6.67905 194.832 6.92296 194.96 7.08557C195.088 7.24817 195.601 7.32948 195.601 7.24817C195.601 7.16688 195.857 7.08557 196.049 7.16688C196.177 7.24817 196.498 7.24817 196.433 7.08557C196.37 6.92296 196.818 6.27254 197.009 5.94732H197.522C197.587 5.70341 197.715 5.62211 197.715 5.70341C197.715 5.78472 197.843 6.10993 197.906 6.02862C197.97 5.94732 198.226 5.78472 198.419 5.94732C198.547 6.10993 199.06 6.35384 199.252 6.35384C199.38 6.27254 199.828 5.94732 200.212 6.02862L200.532 6.10993C200.532 6.10993 200.597 6.02862 200.597 5.94732C200.66 5.86602 200.725 5.78472 200.788 5.78472H200.981C200.917 5.94732 200.853 6.19123 200.788 6.27254C200.725 6.35384 200.788 6.84166 201.109 7.00427L201.301 6.51645C201.366 6.43515 201.557 6.35384 201.686 6.27254C201.749 6.27254 201.877 6.35384 201.877 6.43515C201.942 6.51645 201.942 6.67905 202.07 6.51645C202.198 6.43515 202.326 6.35384 202.39 6.51645C202.455 6.67905 202.518 6.84166 202.455 6.92296C202.39 7.16688 202.198 7.32948 202.07 7.49209L201.942 7.6547C202.005 7.8173 202.326 8.06121 202.518 8.22382C202.774 8.30512 203.222 8.38643 203.415 8.38643C203.607 8.38643 204.248 8.87424 204.376 9.03685C204.504 9.19945 205.017 9.28076 205.08 9.36206C205.145 9.44337 205.08 9.76858 205.08 10.0938L205.272 10.419L205.337 10.5003C205.4 10.6629 205.272 10.8255 205.08 10.9068L204.952 11.0694C204.76 11.3133 204.76 11.3133 204.632 11.1507L204.568 11.0694L204.311 11.1507C204.183 11.3946 204.055 11.476 203.991 11.3133C203.928 11.1507 203.351 11.1507 203.222 11.1507C203.094 11.1507 202.646 11.3946 202.838 11.476C203.031 11.5572 203.415 11.8824 203.351 12.0451L203.543 12.1263L203.8 12.289C203.991 12.0451 204.12 11.8824 204.12 11.8824C204.12 11.8824 204.248 12.0451 204.376 12.1263C204.504 12.1263 204.376 12.6142 204.183 12.6142L203.928 12.9394C203.8 13.1833 203.8 13.4272 203.863 13.5085C203.928 13.5085 203.991 13.8338 203.8 14.0777C203.607 14.3216 203.159 14.8907 203.222 14.8907C203.287 14.8907 203.415 15.0533 203.351 15.2159H203.159C203.031 15.2972 202.838 15.4598 202.774 15.7038L202.966 15.8663C203.031 15.9477 202.774 16.9233 202.711 16.9233L202.518 17.0859C202.326 17.2485 202.198 17.4111 202.198 17.5737C202.198 17.655 201.942 18.0615 201.877 18.2241L201.621 18.5494C201.749 18.7933 201.814 19.1998 201.814 19.4437L201.749 19.6876L201.686 20.0128C201.942 20.0128 202.005 20.1754 201.877 20.2567C201.749 20.338 201.301 20.6632 201.109 20.6632H200.597C200.404 20.9072 200.149 21.0698 200.021 21.1511C199.828 20.8259 199.636 21.3137 199.443 21.1511C199.252 20.9884 199.06 20.9884 198.867 20.9071C198.804 21.1511 198.611 21.2323 198.419 21.0698C198.226 20.9884 197.778 21.2323 197.778 21.2323C197.65 21.0698 197.458 21.2323 197.33 21.1511L197.074 20.9884C196.881 21.1511 196.498 21.0698 196.241 20.9884L195.985 21.2323L195.92 21.3137C195.792 21.3137 195.409 21.1511 195.088 20.9884L194.768 21.2323L194.703 21.3137C194.575 21.3137 194.384 21.3137 194.255 21.3137C194.127 21.3137 193.679 21.1511 193.615 21.1511C193.486 21.1511 193.167 21.1511 193.038 21.2323C192.91 21.3137 192.334 21.2323 192.141 21.2323H191.886C191.758 21.2323 191.63 21.2323 191.565 21.1511L191.373 20.9884C191.245 21.0698 190.924 21.2323 190.669 21.3137L190.476 21.395C190.413 21.395 190.348 21.4762 190.348 21.5576L190.22 21.7201C190.156 21.5576 190.028 21.4762 189.964 21.4762C189.9 21.4762 189.644 21.8828 189.644 22.208V22.6145C189.196 22.6145 188.747 22.6958 188.683 22.6958L188.747 22.6145L189.131 22.208C189.131 22.5332 189.196 22.7771 189.324 22.7771C189.452 22.7771 189.452 22.3706 189.452 22.208C189.452 22.0454 189.259 21.6389 189.196 21.6389C189.131 21.5576 188.875 21.8015 188.747 21.964C188.618 22.1267 189.324 22.6958 189.835 22.8584L189.964 22.6958L190.156 22.5332C190.285 22.208 190.604 22.0454 190.796 22.1267C190.989 22.208 191.502 22.5332 191.502 22.2893L191.565 22.1267V22.0454C191.693 22.0454 191.821 22.0454 191.821 22.1267C191.821 22.208 191.821 22.3706 191.886 22.3706C191.95 22.3706 192.206 22.4519 192.141 22.5332H191.886C191.693 22.6958 191.63 22.9398 191.821 22.9398L191.886 22.8584L192.141 22.6145C192.398 22.6145 192.782 22.6958 192.91 22.6958C193.038 22.7771 193.423 22.4519 193.486 22.4519H193.551L193.679 22.5332C193.807 22.6145 194.064 22.6958 194.255 22.6145L194.384 22.7771C194.447 22.8584 194.575 22.7771 194.64 22.7771H194.703C194.768 22.7771 194.832 22.8584 194.832 22.9398V23.1023C194.832 23.2649 194.703 23.5089 194.575 23.7528H194.064C193.679 23.7528 193.743 23.9967 194.192 24.3218H194.832C194.96 24.1593 195.153 23.9967 195.281 23.9967L195.472 24.2406C195.472 24.5657 195.601 24.8096 195.664 24.9723H195.792C195.857 24.9723 195.92 24.8096 195.857 24.7284V24.6471C195.792 24.5657 195.601 24.5657 195.472 24.6471L195.281 24.5657C195.153 24.5657 195.024 24.7284 194.768 24.6471L194.447 24.5657C193.999 24.6471 193.551 24.9723 193.423 25.1349L193.679 25.4601C193.807 25.4601 194.127 25.2976 194.384 24.9723L194.768 25.1349L195.409 25.6227L195.729 25.2162C195.601 24.9723 195.537 24.5657 195.601 24.4845C195.664 24.3218 196.049 24.0779 196.241 24.3218L196.305 24.4845C196.37 24.5657 196.305 24.7284 196.241 24.8096L196.177 24.891C196.113 25.2976 196.241 25.6227 196.433 25.5415C196.626 25.4601 196.946 26.1106 196.881 26.1918C196.818 26.2732 196.498 26.5984 196.689 26.5171C196.881 26.4357 198.547 26.1918 198.867 26.1105C199.123 25.9479 198.804 25.8666 198.419 25.9479L198.098 26.1105L198.035 26.1918C197.906 26.1918 197.843 26.1918 197.843 26.1105C197.843 26.0293 197.843 25.8666 197.715 25.8666C197.587 26.0293 197.522 26.1918 197.394 26.3545L197.33 26.4357C197.394 26.5984 197.65 26.761 197.843 26.8423C198.035 26.9235 198.354 26.4357 198.419 26.4357C198.483 26.3545 198.611 26.4357 198.675 26.761L198.995 26.5984L199.187 26.5171C198.804 26.4357 198.163 26.3545 197.843 26.1918C197.522 26.1106 197.522 25.704 197.65 25.6227C197.715 25.5415 197.97 25.2162 197.97 25.2162C198.035 25.3788 198.035 25.6227 198.098 25.704L198.354 25.8666C198.354 25.6227 198.419 25.3788 198.483 25.2976C198.547 25.2162 199.315 25.3788 199.828 25.5415L200.34 25.2162L200.532 25.1349C200.532 25.2976 200.532 25.5415 200.597 25.5415C200.66 25.6227 200.917 25.704 200.917 25.6227C200.917 25.4601 201.173 25.2976 201.366 25.3788C201.557 25.4601 201.429 26.1106 201.494 26.1918C201.621 26.2732 202.198 26.3545 202.711 26.1105L203.159 25.9479H203.222C203.351 26.1105 203.543 26.2732 203.543 26.1918C203.607 26.1106 203.735 26.0293 203.735 25.9479L203.543 25.7854C203.351 25.6227 203.094 25.5415 202.966 25.5415H202.838C202.774 25.5415 202.711 25.5415 202.646 25.5415C202.262 25.2976 202.326 25.6227 202.326 25.8666V25.9479C202.262 26.0293 202.262 25.9479 202.262 25.7854C202.262 25.6227 201.877 25.6227 201.814 25.5415V25.4601C201.814 25.3788 201.942 25.2976 202.005 25.2976C202.198 25.3788 202.39 24.9723 202.646 25.2976C202.903 25.1349 203.159 25.0537 203.159 25.2162L203.222 25.2976H203.287C203.415 25.2162 203.607 25.1349 203.735 25.0537C203.863 24.9723 204.248 24.8096 204.248 24.9723C204.311 25.1349 204.439 25.4601 204.504 25.3788H204.568L204.888 25.2976C205.272 25.1349 205.721 25.1349 205.913 25.2162C205.913 25.5415 206.041 25.8666 205.785 26.1105C205.785 26.1105 205.785 26.2732 205.849 26.3545C205.913 26.3545 206.041 26.3545 206.041 26.3545C206.105 26.1918 206.169 26.0293 206.297 25.9479L206.362 25.8666C206.425 25.7854 206.489 25.7854 206.554 25.8666C206.554 25.9479 206.745 26.2732 206.81 26.2732C206.873 26.2732 207.13 26.2732 207.194 26.3545C207.258 26.4357 207.451 26.5171 207.514 26.5171C207.514 26.4357 207.642 26.3545 207.706 26.4357C207.771 26.5171 208.155 26.6796 208.283 26.4357L208.475 26.2732C208.603 26.4357 208.668 26.5984 208.603 26.6796C208.54 26.761 208.411 27.0049 208.539 27.0049C208.668 27.0049 208.923 27.1674 208.859 27.2488C208.795 27.3301 208.795 27.6554 208.923 27.7366C209.051 27.8179 209.179 27.9805 208.859 28.1432L208.603 28.3057C208.54 28.3871 208.411 28.4683 208.411 28.5496C208.411 28.631 208.411 28.7935 208.411 28.8749C208.475 28.9562 208.603 28.9562 208.731 28.9562L208.923 28.8749C208.923 28.7122 208.988 28.4683 209.051 28.3871H209.116C209.307 28.3057 209.948 28.5496 209.948 28.7935V28.8749C209.82 28.9562 209.628 29.1188 209.5 29.2001C209.372 29.2813 209.051 29.6879 209.051 29.6879C209.051 29.7692 208.923 29.7692 208.859 29.5253H208.668C208.475 29.6879 208.475 29.8505 208.539 29.9318C208.603 30.0131 208.923 30.5822 208.923 30.9888V31.8831C208.539 32.127 208.219 32.2896 208.219 32.2083C208.219 32.127 208.09 31.9644 208.027 32.0457C207.962 32.127 207.962 32.5335 207.899 32.5335C207.834 32.5335 207.578 32.6961 207.706 32.8588H207.771C207.899 32.8588 208.09 32.6961 208.219 32.6961C208.347 32.6961 208.539 32.6148 208.539 32.8588C208.539 33.0213 208.475 33.1839 208.411 33.1839L208.155 33.2652C207.899 33.3466 207.642 33.1027 207.706 32.6961L207.258 32.7774L206.938 32.8588C207.066 33.1839 207.066 33.4278 206.938 33.4278C206.81 33.4278 206.362 33.4278 206.362 33.2652C206.362 33.1839 206.234 33.0213 206.105 33.1027C205.977 33.2652 205.656 33.5905 205.656 33.4278C205.656 33.3466 205.528 33.0213 205.465 33.1027C205.4 33.1839 204.889 33.4278 204.568 33.4278L204.055 33.7531C203.8 33.7531 203.415 33.7531 203.159 33.7531H202.838C202.774 33.7531 202.455 33.7531 202.198 33.6717C201.942 33.5905 201.173 33.8344 201.109 33.7531C201.045 33.7531 200.725 33.6717 200.597 33.6717C200.469 33.6717 200.021 33.6717 199.892 33.5905C199.764 33.5091 199.252 33.9156 199.06 33.997L198.995 33.5905V33.4278C198.804 33.5091 198.611 33.5905 198.483 33.6717C198.354 33.7531 198.163 33.9156 198.098 33.8344C198.035 33.7531 197.522 33.8344 197.394 33.9156C197.266 33.9156 196.818 33.8344 196.753 33.8344C196.689 33.8344 196.433 33.997 196.37 34.0783C196.305 34.1595 196.049 33.997 195.985 33.997C195.92 33.997 195.537 34.0783 195.344 34.1595C195.088 34.3222 194.32 33.9156 194.064 33.9156C193.807 33.9156 193.167 34.3222 193.103 34.3222C192.975 34.3222 192.59 34.3222 192.462 34.4848L192.141 34.2409C192.013 34.1596 191.693 34.3222 191.502 34.3222C191.309 34.3222 191.117 34.2409 190.924 34.2409C190.796 34.2409 190.669 34.3222 190.476 34.3222L190.156 34.4035C190.156 34.1595 190.156 34.0783 190.156 34.2409C190.156 34.4035 189.644 34.2409 189.452 34.3222H189.259L188.555 34.2409C187.786 34.1596 186.953 34.1595 186.634 34.1595C186.377 34.1595 185.608 34.4035 185.545 34.4035C185.48 34.4035 185.224 34.4848 184.968 34.4848L184.904 34.4035C184.712 34.1595 184.456 34.4035 184.263 34.3222L184.007 34.1595C183.751 34.1595 183.431 34.1595 183.239 34.1595C183.111 34.1595 182.534 34.4035 182.15 34.4848L181.829 34.3222L181.637 34.2409C181.317 34.3222 180.997 34.3222 180.868 34.3222C180.74 34.2409 180.484 34.4035 180.42 34.3222C180.356 34.2409 180.1 34.0783 179.971 34.1595C179.844 34.2409 179.332 34.4848 179.203 34.4848C179.075 34.4848 178.691 34.4035 178.627 34.3222C178.499 34.2409 177.922 34.4848 177.538 34.5661C177.154 34.6474 176.193 34.4035 176.129 34.4848C176.065 34.5661 175.744 34.3222 175.616 34.3222C175.552 34.3222 175.296 34.4035 175.296 34.3222C175.232 34.2409 175.168 34.1596 175.104 34.2409C175.104 34.3222 174.848 34.4035 174.72 34.3222C174.527 34.2409 174.015 34.4848 173.887 34.4848L173.823 34.4035C173.503 34.1595 173.31 34.1595 172.99 34.4035C172.734 34.5661 172.478 34.1596 172.286 34.2409C172.03 34.4035 171.773 34.4848 171.581 34.4035C171.389 34.3222 171.325 34.3222 171.197 34.4035C171.133 34.4035 170.876 34.3222 170.876 34.3222C170.748 34.5661 170.62 34.2409 170.492 34.3222C170.364 34.4848 170.364 34.4035 170.236 34.3222L170.044 34.1595C169.787 34.2409 169.211 34.3222 168.763 34.4035C168.314 34.4848 166.841 34.4035 166.649 34.4848H165.945C165.432 34.4848 164.856 34.5661 164.728 34.6474C164.599 34.7287 163.959 34.5661 163.702 34.4848H163.446C163.19 34.4848 162.87 34.4848 162.55 34.4848H122.754C122.691 34.3222 122.626 34.2409 122.563 34.2409C122.563 34.2409 122.37 34.3222 122.306 34.4035C122.242 34.4848 121.922 34.6474 121.857 34.5661C121.794 34.4848 121.153 34.6474 120.705 34.6474C120.257 34.6474 118.975 34.4848 118.847 34.4848C118.719 34.4848 118.206 34.6474 118.079 34.4848C117.951 34.4035 117.438 34.6474 117.246 34.6474C117.117 34.6474 116.541 34.7287 116.35 34.7287C116.157 34.7287 115.581 34.5661 115.452 34.5661C115.324 34.6474 114.812 34.6474 114.683 34.5661C114.555 34.4848 113.851 34.6474 113.595 34.5661L113.338 34.4848L113.147 34.4035C112.762 34.4848 112.121 34.6474 111.673 34.6474C111.225 34.6474 109.688 34.7287 109.367 34.7287L109.239 34.2409C108.983 34.2409 108.855 34.3222 108.855 34.4035C108.855 34.4848 108.855 34.6474 108.727 34.6474C108.599 34.6474 108.022 34.7287 107.831 34.81L107.446 34.5661C107.382 34.4848 107.254 34.3222 107.126 34.3222C107.062 34.4035 106.998 34.5661 106.998 34.5661L106.293 34.4035C105.525 34.5661 104.884 34.5661 104.884 34.4848C104.884 34.4035 104.692 34.0783 104.564 34.1595H104.436C104.115 34.1595 104.243 34.4035 104.115 34.4848C103.987 34.5661 103.859 34.4848 103.731 34.5661C103.603 34.5661 103.411 34.6474 103.282 34.7287H103.219C103.091 34.6474 102.898 34.6474 102.77 34.5661C102.642 34.4848 102.258 34.6474 102.13 34.6474C102.065 34.7287 101.617 34.5661 101.489 34.6474C101.361 34.7287 100.657 34.7287 100.272 34.81L99.952 34.4848C99.8879 34.4035 99.6317 34.4035 99.5676 34.4848L99.2474 34.7287C98.9271 34.6474 98.5428 34.4848 98.3506 34.4848V34.5661C98.1585 34.9726 97.9023 34.4848 97.7101 34.6474L97.518 34.81C97.3259 34.6474 96.8775 34.4848 96.5572 34.4035L96.301 34.6474L96.1089 34.81C95.9807 34.5661 95.6605 34.4035 95.4683 34.4848L95.4043 34.5661C95.2761 34.81 95.1481 34.4848 95.0199 34.5661H94.9559C94.8919 34.5661 94.6357 34.5661 94.3794 34.4848C94.1232 34.4035 92.7141 34.6474 92.65 34.6474C92.4579 34.4848 92.2657 34.3222 92.0736 34.5661C91.8174 34.81 91.8174 34.4035 91.5612 34.4848L91.3689 34.5661C91.1128 34.4848 90.6004 34.4035 90.152 34.4848H89.7677C89.5114 34.4848 89.1913 34.5661 89.1272 34.4035L88.935 34.0783C88.7428 34.2409 88.5507 34.3222 88.4866 34.3222C88.4226 34.3222 88.1664 34.3222 87.9743 34.3222H87.782C87.654 34.3222 87.4618 34.4035 87.3337 34.4848C87.2697 34.4035 87.2056 34.2409 87.1415 34.1595C87.0775 34.0783 86.8853 34.3222 86.8212 34.4848H86.437C86.1807 34.4848 85.7965 34.5661 85.5403 34.5661L85.0278 34.4035C84.7716 34.4035 84.5154 34.3222 84.4513 34.2409C84.4513 34.1596 84.3874 33.9156 84.3874 33.9156C84.3874 33.9156 84.3233 33.997 84.3233 34.0783C84.3233 34.1595 84.1311 34.4848 84.003 34.4035L83.9389 34.3222C83.6827 33.997 83.6828 33.997 83.3625 34.3222H83.2984C83.2343 34.3222 82.9781 34.4035 82.6579 34.4035C82.3376 34.4035 81.505 34.0783 81.3768 34.1595C81.2488 34.2409 81.0566 34.0783 81.1847 33.997C81.2488 33.9156 81.4409 33.5905 81.2488 33.6717C81.0566 33.7531 80.6723 34.0783 80.6082 34.1595H80.5442C80.4161 34.1595 80.288 34.0783 80.1599 34.0783C80.0318 34.0783 79.9036 34.1595 79.8397 34.1595C79.7115 34.1595 79.5194 34.1595 79.3912 34.1595L79.0069 33.9156C78.5586 33.997 78.1102 34.1595 77.9821 34.1595L77.854 34.0783C77.6619 33.997 77.2134 33.9156 77.0213 33.997L76.637 34.1595C76.3167 33.997 75.9965 33.9156 75.9325 33.997C75.8684 34.0783 75.0357 33.997 74.5233 33.997H73.7547C73.3704 33.997 72.7939 34.0783 72.4736 34.1595L72.1534 34.0783C71.9612 33.997 71.5128 33.8344 71.3848 33.7531C71.3207 33.6717 71.1286 33.7531 71.1286 33.7531C71.0645 34.0783 70.9364 34.1596 70.6802 33.9156C70.6802 33.9156 70.3599 33.997 70.0396 34.0783L69.7834 33.997C69.4632 33.9156 69.207 33.8344 68.9508 34.0783C68.8867 34.1595 68.6946 34.0783 68.5665 33.997H68.4383C68.3103 33.9156 68.118 33.997 68.0541 34.0783C67.9259 34.1595 67.3495 33.997 67.2214 33.997C67.0933 33.997 66.3887 33.997 66.0684 34.0783L65.8122 33.8344C65.8122 33.8344 65.7481 33.9156 65.6842 33.9156L64.9795 34.0783C64.5952 33.997 64.211 33.9156 64.1469 33.8344C64.0828 33.8344 63.5704 33.9156 63.122 33.9156L62.6737 33.997H62.6096C62.5456 33.8344 62.4174 33.7531 62.4174 33.8344C62.4174 33.997 61.6488 34.0783 61.2004 34.0783L60.9442 33.9156C60.8162 33.997 60.56 33.997 60.3037 33.997L60.0475 33.9156C59.8554 33.8344 59.7272 34.3222 59.471 33.997C59.407 33.9156 59.2789 33.997 59.2149 33.997C59.1508 33.997 59.0868 34.0783 59.0227 33.997H58.8946C58.7665 33.997 58.5102 33.997 58.3181 34.0783L58.19 33.9156C57.9979 33.5905 57.8698 34.0783 57.6135 33.9156C57.3573 33.7531 57.4855 33.4278 57.3573 33.2652C57.2933 33.1839 57.1011 33.1839 56.9731 33.2652L56.7809 33.3466C56.5887 33.5092 56.4606 33.6717 56.5247 33.7531C56.5887 33.7531 56.5247 33.9156 56.3326 33.9156L56.1403 33.8344C56.0123 33.8344 55.8841 33.7531 55.7561 33.7531H55.3718C55.1156 33.4278 54.9233 33.2652 54.9233 33.4278C54.9233 33.5091 54.7312 33.997 54.475 33.997C54.2188 33.997 53.7063 33.6717 53.7063 33.6717L53.5783 33.8344C53.5142 33.8344 53.258 33.9156 53.0018 33.9156C52.7457 33.9156 52.041 33.7531 51.977 33.6717C51.9129 33.5905 51.6567 33.5905 51.6567 33.6717C51.6567 33.7531 51.2724 33.8344 51.2724 33.7531C51.2724 33.7531 51.2084 33.5091 51.1443 33.2652L50.76 33.5091C50.5679 33.6717 50.3756 33.6717 50.1835 33.7531H50.0555C49.8633 33.7531 49.7352 33.5905 49.7352 33.4278V33.2652C49.7352 33.1027 49.7352 32.94 49.543 32.94C49.2868 32.94 49.4149 33.1839 49.4149 33.2652V33.3466C49.3509 33.4278 49.2868 33.4278 49.2227 33.3466C49.1586 33.2652 48.9025 33.1839 48.7744 33.3466V33.5905C48.7103 33.6717 48.6463 33.6717 48.5822 33.6717H48.5182C48.4541 33.5905 48.3901 33.4278 48.326 33.2652C48.2619 33.1027 47.9418 33.0213 48.0057 33.1027C48.0698 33.1839 48.0057 33.5091 47.6215 33.7531L47.3012 33.4278L47.1731 33.2652C47.0449 33.3466 46.8528 33.4278 46.7248 33.5091C46.5966 33.5905 46.0202 33.2652 45.9561 33.2652H45.828C45.764 33.2652 45.764 33.3466 45.764 33.4278C45.764 33.4278 45.5717 33.6717 45.1875 33.7531L44.9953 33.5905L44.675 33.4278C44.3547 33.5091 44.1626 33.5091 44.1626 33.4278C44.2267 33.3466 44.0345 32.8588 43.6502 32.6148L43.2018 32.94L42.8816 33.1027C42.4333 32.94 42.113 32.7774 42.2411 32.7774L42.3692 32.4522C42.6894 32.5335 42.9456 32.6148 43.0097 32.6148C43.0738 32.6148 43.0738 32.2896 42.7535 32.3709V32.2896L42.3692 31.9644C42.241 32.2896 42.1771 32.4522 42.113 32.3709C42.113 32.2896 41.9848 32.127 41.9209 32.127C41.8568 32.127 41.6006 32.2896 41.6006 32.3709C41.6006 32.4522 41.3443 32.6961 41.2163 32.7774C41.0881 32.94 40.8319 33.5905 40.8319 33.4278C40.8319 33.2652 40.6398 32.94 40.5757 32.94C40.4476 32.94 40.1273 32.8588 40.0633 32.8588C39.9993 32.8588 39.8071 32.94 39.9352 32.94C39.9993 33.0213 40.2555 33.1839 40.3195 33.2652V33.3466C40.3195 33.3466 40.2555 33.4278 40.1914 33.4278L39.9993 33.3466C39.7431 33.2652 39.6149 33.1027 39.6149 32.94C39.6149 32.7774 39.5509 32.5335 39.4228 32.6148C39.2947 32.6961 39.2306 33.1027 39.1666 33.1839C39.1025 33.2652 38.7182 33.2652 38.7182 33.2652C38.6541 33.2652 38.5902 32.94 38.7182 32.6961C38.8463 32.4522 38.9104 31.8831 38.7182 32.127C38.5261 32.3709 38.0137 32.94 37.8855 32.8588C37.7574 32.7774 37.5012 33.1027 37.5012 33.1839C37.4371 33.2652 36.9888 33.3466 36.9247 33.1839C36.8607 33.0213 37.4371 32.7774 37.5653 32.6961C37.6934 32.6148 38.1417 32.4522 38.1417 32.3709C38.2058 32.2896 38.2058 32.0457 38.2058 31.9644C38.1417 31.9644 38.0137 31.9644 37.9496 31.9644L37.8215 32.127C37.6934 32.2896 37.5653 32.4522 37.5653 32.4522C37.5012 32.4522 37.4371 32.3709 37.3732 32.2083C37.3732 32.127 37.1809 31.8018 37.117 31.7205C37.0529 31.6392 36.8607 31.3952 36.7967 31.4766C36.7326 31.4766 36.5404 31.7205 36.4124 31.8831H36.8607C36.9888 32.127 37.117 32.3709 37.117 32.3709C37.117 32.3709 36.9888 32.5335 36.8607 32.5335H36.6045C36.4764 32.5335 36.3483 32.6148 36.3483 32.6961C36.2842 32.6961 36.0921 32.6148 36.028 32.6961C35.9639 32.7774 35.7718 32.7774 35.7078 32.6961C35.6437 32.5335 35.3234 32.2896 35.1313 32.4522L34.8751 32.6148C34.747 32.5335 34.5548 32.3709 34.3627 32.2083L34.1065 31.8831C33.9143 31.9644 33.6581 32.127 33.594 32.2083L33.4019 32.4522C33.2738 32.6961 33.0816 32.7774 32.8895 32.6961C32.6973 32.6148 32.377 32.2896 32.249 32.2896C32.1209 32.2083 31.8006 32.2083 31.8647 32.3709L31.8006 32.4522C31.7365 32.5335 31.5444 32.6148 31.4803 32.6961C31.5444 32.7774 31.5444 32.94 31.4803 32.94C31.4162 32.94 31.2882 32.8587 31.2241 32.7774C31.16 32.6961 30.7117 32.2896 30.3274 32.3709L30.3915 32.8588C30.3915 33.0213 30.0071 33.1027 29.9431 32.94C29.8791 32.7774 29.8791 32.6961 30.0712 32.6148C30.1353 32.6148 30.2633 32.4522 30.1992 32.3709L30.1353 32.127C30.0712 32.2896 29.815 32.3709 29.6228 32.2896C29.4307 32.2896 28.8542 32.5335 28.7261 32.4522H28.6621C28.598 32.4522 28.4058 32.3709 28.3418 32.4522L28.0856 32.6148C27.8293 32.5335 27.5091 32.3709 27.5091 32.3709C27.4451 32.3709 27.1888 32.3709 26.9326 32.4522L26.7405 32.2896L26.6764 32.2083C26.5484 32.127 26.4202 32.2083 26.4202 32.3709C26.4202 32.4522 26.164 32.8588 25.9078 32.8588C25.6516 32.8588 25.0752 32.7774 25.0111 32.8588V32.94L24.947 33.0213C24.883 33.1027 24.883 33.1027 24.8189 33.0213V32.94L24.7549 33.1027C24.6908 33.0213 24.4347 33.0213 24.1784 33.1839L23.9862 32.94C23.8582 33.1027 23.666 33.1839 23.5379 33.1027C23.4098 33.0213 23.0895 33.1027 22.8974 33.1027C22.7052 33.0213 22.1928 33.2652 22.0646 33.3466C21.9366 33.3466 21.4882 33.2652 21.2961 33.3466L21.1039 33.1027L20.9117 32.94C20.6555 33.0213 20.2712 33.1839 20.015 33.1839L19.6308 33.3466C19.4385 33.2652 19.1823 33.0213 19.0542 32.94L18.8621 33.1839C18.734 33.4278 18.6059 33.1027 18.4777 33.1027C18.3497 33.1027 18.0935 33.2652 18.0294 33.2652C17.7732 33.1027 17.581 33.1027 17.3248 33.1027C17.0046 33.1027 16.6843 32.94 16.4281 33.2652C16.364 33.2652 16.1719 33.1839 16.0438 33.1027C15.9157 33.0213 15.3392 32.94 15.0831 33.1027L14.8269 33.0213C14.3784 32.94 13.8661 32.7774 13.4176 32.6148C13.2896 32.6148 13.2896 32.3709 13.1615 32.2896C13.0974 32.2083 13.0333 32.127 12.9693 32.127C12.8412 32.127 12.7131 32.2083 12.6491 32.2083H12.585C12.5209 32.0457 12.3929 31.8831 12.2007 31.8018C12.0085 31.7205 11.5601 31.8018 11.4321 31.8831L11.3039 31.8018C11.0477 31.6392 10.7915 31.5579 10.2792 31.5579C10.2151 31.5579 10.151 31.3952 10.151 31.3139C10.2792 31.1513 10.4713 31.07 10.087 30.9888C9.89481 30.9888 9.95886 30.7449 10.087 30.6635L10.151 30.5822C10.2151 30.501 10.2151 30.3383 10.151 30.2571C10.087 30.1757 10.3431 30.0131 10.4072 30.0944C10.4713 30.1757 10.8556 30.0131 10.9197 30.1757L10.9837 30.2571C11.0477 30.3383 10.9837 30.4196 10.9837 30.501C10.9837 30.5822 11.1118 30.5822 11.1759 30.6635H11.2399C11.3039 30.6635 11.4321 30.501 11.5601 30.3383C11.6883 30.1757 11.8804 29.6066 11.8164 29.5253C11.7523 29.3627 11.2399 29.5253 11.1118 29.444V29.3627L11.0477 29.1188C10.9197 28.8749 10.7915 28.7935 10.7275 28.9562C10.6634 29.0374 10.5994 29.5253 10.4713 29.3627C10.3431 29.2001 9.70266 28.9562 9.57455 28.8749C9.44644 28.7935 9.7667 28.3871 9.89481 28.5496C10.0229 28.631 10.4072 28.8749 10.4713 28.8749C10.5354 28.7935 10.6634 28.5496 10.7275 28.3871L10.9837 28.5496C11.0477 28.631 11.2399 28.631 11.2399 28.5496C11.3039 28.3871 11.3039 28.3057 11.1118 28.2244L10.9837 28.1432C10.8556 27.8993 10.8556 27.6554 10.9837 27.574L11.1118 27.4114C11.1118 27.2488 10.9837 27.1674 10.9197 27.0862C10.8556 27.0862 10.4713 26.8423 10.151 26.761L9.95886 27.4927C9.6386 27.4114 9.44644 27.2488 9.57455 27.1674C9.70266 27.0862 9.83075 27.0049 9.83075 26.9235C9.7667 26.9235 9.57455 26.6796 9.44644 26.5171L9.19024 26.3545C9.06213 26.4357 8.80592 26.3545 8.67782 26.2732H8.54972C8.35756 26.2732 8.22945 26.2732 8.0373 26.2732C7.71704 26.2732 7.46083 26.1918 7.14058 26.2732C6.88436 26.3545 6.69221 26.1106 6.37195 26.1918C6.24384 26.1918 6.05169 26.1105 5.92358 26.0293L5.73142 25.8666C5.47522 25.8666 5.09091 25.7854 4.77064 25.7854C4.57849 25.704 3.61771 25.2162 3.29745 25.0537L2.97719 24.9723H2.78503C2.52883 24.9723 2.20856 24.891 2.08047 24.8096L1.43994 24.4032C1.504 23.9967 1.6321 23.5901 1.69616 23.4276L1.31184 23.5089C1.11969 23.5089 0.991578 23.4276 1.05563 23.2649V23.1023C1.11969 22.9398 1.05563 22.7771 0.991578 22.6958C0.927527 22.6145 0.799422 22.3706 0.863475 22.3706C0.927527 22.2893 1.24778 22.0454 1.31184 21.964L1.11969 21.8828C0.927527 21.8015 0.863475 21.7201 0.927527 21.5576L1.05563 21.3137C0.927527 21.2323 0.671319 20.6632 0.543214 20.0941L0.158902 19.6062C0.287006 19.2811 0.351058 19.0372 0.222955 19.0372C0.158902 19.0372 -0.0332539 18.8745 0.0948501 18.7933C0.222955 18.6306 0.0948502 18.2241 0.158902 18.2241C0.222955 18.2241 0.479163 17.8989 0.41511 17.7363L0.351058 17.5737C0.287006 17.3298 0.158902 17.1672 0.222955 16.9233C0.222955 16.7606 0.41511 16.5167 0.543214 16.3541C0.671319 16.0289 0.991578 16.1102 1.05563 16.0289L1.18374 15.785C1.37589 15.785 1.56805 15.8663 1.6321 15.8663C1.69616 15.8663 2.14452 15.3785 2.27261 15.3785C2.40072 15.3785 2.84908 15.2159 2.97719 15.2159L3.16935 15.1346C3.29745 15.1346 3.55366 15.2972 3.68177 15.2159C3.87392 15.1346 3.93797 15.1346 4.13013 15.2159C4.25823 15.2972 4.45039 15.2159 4.57849 15.2159L4.9628 14.972C4.89875 15.2159 5.21902 15.1346 5.53927 14.8094L6.05169 14.8907H6.11574C6.24384 14.8094 6.37195 14.8094 6.436 14.8094C6.50005 14.8094 6.94841 14.8094 7.26867 14.5655L7.71704 14.8094C7.84514 14.8907 8.22945 14.6468 8.2935 14.7281L8.54972 14.972C8.74187 14.8094 9.06213 14.5655 9.25428 14.4842L9.44644 14.4029C9.6386 14.3216 9.89481 14.3216 10.087 14.4029C10.4072 14.4842 10.7275 14.5655 11.0477 14.3216L11.3039 14.1589C11.6242 14.1589 11.9445 14.1589 12.0085 14.2402L12.1366 14.4029C12.2007 14.5655 12.3929 14.4842 12.5209 14.3216C12.6491 14.1589 13.3536 14.3216 13.6099 14.3216C13.8661 14.3216 14.5706 13.9963 14.7628 13.915H14.9549C15.3392 13.915 15.5314 13.915 15.7236 13.8338C15.7876 13.8338 15.8516 13.7524 15.9157 13.7524H16.0438C16.1719 13.6711 16.4281 13.5899 16.5562 13.5085H16.8124C16.9406 13.6711 17.0046 13.5899 17.0046 13.346L17.3248 13.4272C17.517 13.4272 17.7732 13.5085 17.9654 13.346H18.0935C18.0935 13.5085 18.0935 13.6711 18.2856 13.5899C18.3497 13.5899 18.4138 13.346 18.4777 13.2646C18.67 13.1833 18.9262 13.1021 19.1823 13.0207H19.4385C19.7588 13.1021 20.0791 13.0207 20.2072 13.0207C20.3353 12.9394 20.7837 12.8581 20.8477 12.9394C20.9758 12.9394 21.3601 12.9394 21.3601 12.9394C21.4242 12.8581 21.6163 12.7768 21.6163 12.8581C21.6163 12.9394 21.8084 13.0207 21.9366 13.0207C22.0646 12.9394 22.449 12.8581 22.5771 12.9394C22.6412 13.0207 22.9615 13.1833 23.0254 13.1833C23.0895 13.1021 23.2816 12.8581 23.3457 12.7768C23.4098 12.6955 23.8582 12.6955 23.9862 12.6955H24.3065C24.4986 12.6955 24.883 12.6955 25.1392 12.7768H25.3314C25.3954 12.7768 25.4594 12.7768 25.5235 12.6955L25.9719 12.3703C26.2281 12.6142 26.4843 12.6955 26.4843 12.6142C26.4843 12.5329 26.6123 12.289 26.7405 12.3703H26.9326C27.0608 12.3703 27.2529 12.2077 27.381 12.0451H27.7013C27.8293 11.8824 27.7654 11.7199 27.7013 11.5572H27.5731C27.381 11.476 27.381 11.6385 27.317 11.8012C27.317 11.8824 27.1248 11.8824 26.9967 11.8824C26.7405 11.9638 26.4843 12.0451 26.3562 11.9638C26.1 11.8012 25.8438 11.8824 25.5876 11.8824C25.3314 11.8824 25.0751 11.8824 24.8189 11.8824C24.5627 11.8824 24.3065 11.8824 24.0503 11.8824C23.666 11.9638 23.5379 11.6385 23.3457 11.3946L23.1536 11.1507C22.8974 11.1507 22.6412 11.2321 22.5131 11.2321C22.3849 11.3133 22.1928 11.3133 22.0646 11.3133C21.9366 11.3133 21.6804 11.0694 21.5523 10.9882C21.4882 10.9068 21.0399 10.7443 20.9758 10.8255L20.9117 10.9068C20.8477 11.0694 20.8477 11.0694 21.1039 11.0694C21.1679 11.0694 21.232 11.0694 21.232 11.0694C21.232 11.1507 21.232 11.3133 21.1679 11.3133C20.9758 11.3133 20.7196 11.476 20.7196 11.1507V10.9882C20.7837 10.7443 20.7837 10.5816 20.8477 10.5003C20.8477 10.419 20.8477 10.3377 20.7837 10.3377H20.7196C20.6555 10.3377 20.5915 10.3377 20.4634 10.419L20.1431 10.5003C20.2712 10.7443 20.2072 10.9882 20.015 11.0694C19.8229 11.1507 19.1823 11.1507 19.1823 11.0694V10.8255C19.2464 10.6629 19.1823 10.5816 19.1183 10.5816C19.0543 10.5816 18.798 10.419 18.798 10.0938H18.734L18.3497 10.3377C18.4777 9.84988 18.734 9.44337 18.8621 9.52467L18.9902 9.60598C19.1183 9.68728 19.2464 9.76859 19.3745 9.76859C19.4385 9.76859 19.5667 9.76857 19.6308 9.68728L19.7588 9.60598C19.951 9.60598 20.2072 9.44337 20.3353 9.36206V9.19945C20.2072 9.11816 19.951 8.95555 19.8229 8.95555L19.6947 9.03685C19.6308 9.11815 19.6947 9.36206 19.5026 9.28076L19.3105 9.19945C19.1823 9.03685 18.9902 9.03685 18.9262 9.19945C18.8621 9.36206 18.4777 9.19945 18.5418 9.11816C18.5418 9.03685 18.5418 8.95555 18.4777 8.95555C18.4138 8.95555 18.1575 9.03685 18.1575 9.11816C18.1575 9.19945 18.0294 9.44337 17.9654 9.44337C17.9013 9.36206 17.9654 9.28076 17.9013 9.19945L17.7092 8.95555C17.3889 8.95555 17.1327 8.95555 17.0686 8.95555C17.0046 8.95555 16.9406 8.63033 17.1968 8.30512L17.517 8.46772L17.7732 8.63033C18.0294 8.63033 18.2856 8.46773 18.2856 8.30512C18.2856 8.14251 18.2215 7.736 18.1575 7.736C18.0935 7.736 17.8373 7.8173 17.9013 7.8986V8.06121C17.9013 8.14251 17.7092 8.22382 17.581 8.22382C17.453 8.14251 17.1968 7.9799 17.3248 7.8986V7.8173C17.3248 7.736 17.1968 7.57339 17.1327 7.49209C17.1327 7.49209 16.9406 7.57339 16.8765 7.57339C16.8124 7.57339 16.6843 7.49209 16.6203 7.41078C16.6203 7.41078 16.6843 7.24817 16.7484 7.24817C16.8124 7.24817 17.0686 7.32948 17.3248 7.41078C17.581 7.49209 18.4138 7.16688 18.4777 7.24817H18.5418C18.6059 7.24817 18.734 7.16688 18.798 7.08557V6.92296C18.734 6.84166 18.798 6.84166 18.8621 6.76035C18.9262 6.67905 19.1823 6.67905 19.2464 6.67905C19.3105 6.76035 19.5026 6.84166 19.5667 6.76035C19.6308 6.67905 19.887 6.67905 19.951 6.84166C20.015 7.00427 20.2712 7.41078 20.3353 7.41078C20.3353 7.41078 20.3353 7.16688 20.2712 6.84166V6.43515C20.4634 6.27254 20.5915 6.27254 20.6555 6.27254V6.35384L20.7196 6.51645C20.7837 6.76035 20.9117 6.67905 21.0399 6.35384L21.232 6.27254L21.4242 6.10993C21.4882 5.86602 21.6163 5.70341 21.6804 5.78472C21.7445 5.86602 21.9366 6.02862 22.1287 6.02862L22.3849 6.19123C22.5771 6.27254 22.7692 6.19123 22.7692 6.02862C22.7692 5.86602 22.8333 5.70341 22.8974 5.70341H22.9615C23.1536 5.78472 23.2816 5.94732 23.4739 5.94732C23.5379 5.94732 23.666 5.62211 23.73 5.62211H23.9222C24.1144 5.62211 24.3065 5.62211 24.3706 5.70341C24.4347 5.70341 24.6268 5.70341 24.6268 5.4595V5.29689L24.6908 5.13429C24.7549 4.97168 25.1392 4.89038 25.5235 5.05299L25.9719 4.64646C26.2281 4.40256 26.4202 3.99604 26.8686 4.40256C27.0608 4.23995 27.317 4.15865 27.381 4.32126L27.5091 4.40256L27.5731 4.48387C27.6372 4.48387 27.8293 4.48387 27.9575 4.48387C28.0856 4.48387 28.4699 4.32126 28.6621 4.23995C28.7901 4.15865 29.4307 4.15865 29.6228 4.15865C29.815 4.15865 30.2633 3.83344 30.3915 3.99605C30.5195 4.07734 30.7758 4.48387 30.7117 4.56517C30.7117 4.64646 30.7758 4.97168 30.9039 4.97168H31.2882C31.4803 4.64646 31.6725 4.32126 31.8006 4.15865C31.9287 3.99605 32.249 3.58952 32.313 3.67083H32.377L32.6973 3.83344C32.6332 3.99605 32.5052 4.23995 32.4411 4.32126L32.313 4.48387C32.377 4.56517 32.4411 4.72777 32.5052 4.64646C32.5693 4.64646 32.8255 4.40256 33.0816 4.15865L33.4019 4.40256L33.466 4.48387C33.53 4.56517 33.7222 4.40256 33.7863 4.23995C33.8502 4.07734 34.2346 3.58952 34.3627 3.67083H34.4908L34.683 3.75213C34.8751 3.91474 35.1313 3.99605 35.1954 4.07734C35.3234 4.07734 35.2594 4.48387 35.3234 4.56517C35.3875 4.64646 35.5156 4.64646 35.5797 4.72777C35.5797 4.80907 35.8359 4.72777 35.9 4.56517C35.9 4.40256 36.3483 4.48387 36.4764 4.48387C36.5404 4.48387 36.9247 4.32126 37.245 4.40256H37.8215C38.1417 4.48387 38.3979 4.48387 38.462 4.32126C38.5261 4.23995 38.2699 3.75213 38.3339 3.67083ZM199.636 7.57339C199.764 7.32948 199.7 7.08557 199.443 6.92296H199.187L198.867 6.84166C198.547 6.84166 198.354 6.92296 198.483 7.00427C198.611 7.08557 199.508 7.8173 199.636 7.57339ZM202.711 9.93118C202.774 9.84988 202.711 9.52467 202.583 9.19945H201.686C201.494 9.52467 201.429 9.93118 201.621 10.0938H201.686L201.877 10.0125C202.07 9.84988 202.262 9.76859 202.326 9.84988C202.39 10.0125 202.646 10.0125 202.711 9.93118ZM204.824 29.6066C204.889 29.6066 205.08 29.444 205.208 29.2001C205.337 28.9562 204.952 28.3871 205.017 28.3871V28.2244C204.824 28.1432 204.632 28.1432 204.568 28.2244C204.504 28.3057 204.632 28.5496 204.696 28.631C204.76 28.7122 204.696 29.0374 204.76 29.2001C204.824 29.2813 204.76 29.6066 204.824 29.6066ZM23.9862 9.03685C23.9862 9.19945 23.8582 9.19945 23.7941 9.11816C23.666 9.03685 23.73 9.36206 24.0503 9.36206H24.3065L24.7549 9.44337C24.947 9.11816 24.947 8.95555 24.8189 9.03685C24.6908 9.11815 24.2424 8.95555 24.2424 8.87424C24.2424 8.79294 24.1784 8.54903 24.1144 8.54903C24.0503 8.54903 23.9862 8.87424 23.9862 9.03685ZM30.0712 4.97168C30.1992 4.72777 30.0071 4.56517 29.6869 4.56517L29.4947 4.32126C29.3666 4.40256 29.2386 4.56517 29.2386 4.64646C29.2386 4.72777 29.6228 4.97168 29.7509 5.05299C29.7509 5.29689 29.815 5.3782 30.0071 5.13429L30.0712 4.97168ZM192.334 5.29689C192.334 5.13429 192.269 5.05299 192.206 5.2156C192.141 5.29689 191.95 5.4595 191.821 5.3782C191.693 5.29689 191.245 5.2156 191.309 5.29689C191.373 5.3782 191.373 5.4595 191.309 5.54081C191.245 5.62211 191.181 5.78472 191.502 5.70341L191.63 5.78472L191.821 5.86602C192.206 5.78472 192.398 5.4595 192.334 5.29689ZM204.952 26.0293C205.08 26.1105 205.208 26.1105 205.208 25.9479C205.272 25.7854 205.017 25.3788 204.952 25.2976L204.824 25.4601L204.568 25.704C204.311 25.6227 204.055 25.6227 203.991 25.6227V25.7854C204.12 25.8666 204.311 26.0293 204.439 26.1105H204.504C204.568 26.1918 204.889 25.9479 204.952 26.0293ZM26.3562 5.29689C26.5484 5.3782 26.7405 5.3782 26.7405 5.29689C26.7405 5.2156 26.8046 4.97168 26.8046 4.89038C26.8686 4.80907 26.7405 4.64646 26.5484 4.80907L26.4202 4.64646C26.2281 4.48387 26.164 4.80907 26.0359 4.89038C25.9078 4.97168 25.9078 5.13429 26.0359 5.2156C26.1 5.3782 26.164 5.54081 26.3562 5.29689ZM188.555 23.1023C188.49 23.1837 188.555 23.1837 188.747 23.1837C188.939 23.1837 189.387 23.5089 189.579 23.5089C189.772 23.5089 189.835 23.021 189.644 23.021C189.324 23.021 188.618 23.1023 188.555 23.1023ZM106.87 33.3466C106.742 33.2652 106.677 33.3466 106.677 33.4278C106.677 33.5091 106.614 33.8344 106.549 33.8344C106.485 33.8344 106.293 33.8344 106.293 33.9156C106.293 33.997 106.293 34.2409 106.357 34.2409C106.357 34.2409 106.742 34.1595 107.19 34.0783V33.7531C107.19 33.5905 106.933 33.3466 106.87 33.3466ZM180.74 1.96346C180.868 2.04477 181.061 2.04477 181.188 1.80085L181.253 1.63824C181.253 1.55694 181.253 1.39434 181.188 1.31303C181.125 1.15043 180.997 1.15043 180.805 1.23173L180.677 1.31303C180.484 1.39434 180.677 1.88216 180.74 1.96346ZM177.154 1.96346C177.41 1.88216 177.538 1.71955 177.538 1.63824C177.474 1.55694 177.089 1.31303 177.026 1.39434C176.898 1.47564 176.961 2.04477 177.154 1.96346ZM206.938 27.2488C207.002 27.0862 206.873 27.0049 206.617 27.0862L206.425 27.1674C206.297 27.2488 206.169 27.4114 206.362 27.574L206.425 27.6554C206.489 27.8179 206.873 27.4927 206.938 27.2488ZM42.1771 3.75213C41.9848 3.83344 42.0489 3.99605 42.3692 4.07734L42.5613 4.15865C42.7535 4.23995 42.8816 4.07734 42.9456 3.91474C43.0097 3.83344 43.0097 3.75213 42.9456 3.67083C42.9456 3.58952 42.3051 3.50822 42.2411 3.50822L42.1771 3.75213ZM19.5026 7.8173C19.5026 7.736 19.3745 7.57339 19.2464 7.57339C19.1183 7.57339 18.9262 7.6547 18.798 7.736C18.67 7.8986 18.4777 8.38643 18.4777 8.46772H18.6059C18.67 8.46772 18.9902 8.30512 19.3105 8.06121L19.5026 7.8173ZM40.6398 4.23995C40.6398 4.32126 40.7039 4.40256 40.896 4.32126C41.0241 4.23995 41.4084 3.99605 41.4724 3.91474L41.3443 3.75213C41.2803 3.67083 41.3443 3.42692 41.0881 3.50822L40.896 3.58952C40.7678 3.75213 40.6398 4.15865 40.6398 4.23995ZM101.681 2.45128C101.809 2.61389 101.874 2.61389 101.681 2.45128C101.553 2.28867 101.169 1.96346 101.105 2.04477C101.041 2.20737 101.105 2.61389 101.361 2.69519L101.425 2.61389L101.681 2.45128ZM53.1299 3.91474C53.1299 3.99605 53.258 3.99605 53.3861 3.83344C53.5142 3.67083 53.5142 3.18301 53.3861 3.26432C53.194 3.34562 52.8096 3.42692 52.8096 3.50822C52.8096 3.58952 52.8096 3.67083 52.8737 3.67083C52.9378 3.58952 53.1299 3.83344 53.1299 3.91474ZM75.8684 2.85779C75.4841 2.85779 75.2919 2.9391 75.42 3.18301L75.6762 3.10171C75.9325 3.0204 76.1246 2.9391 76.3167 2.85779C76.3167 2.85779 76.3167 2.69519 76.3167 2.61389L76.1887 2.53259L75.8684 2.85779ZM17.0686 30.8261C17.1327 30.6635 17.1968 30.3383 17.1327 30.1757L16.8765 30.2571C16.8124 30.2571 16.6843 30.501 16.6843 30.3383C16.6203 30.0944 16.5562 30.0131 16.364 30.1757H16.3C16.364 30.3383 16.5562 30.5822 16.6843 30.7449L16.8124 30.8261H17.0686ZM185.865 21.964C185.929 21.8828 185.801 21.7201 185.545 21.7201L185.288 21.8828C185.16 22.0454 185.16 22.2893 185.224 22.4519H185.417C185.545 22.3706 185.865 22.1267 185.865 21.964ZM163.511 1.88216C163.574 1.71955 163.574 1.63824 163.382 1.71955C163.191 1.80085 162.806 1.71955 162.742 1.80085V1.88216C162.742 2.04477 162.678 2.20737 162.87 2.20737H162.998C163.126 2.36998 163.446 2.04477 163.511 1.88216ZM188.939 5.54081C188.747 5.3782 188.747 5.29689 188.939 5.4595C189.131 5.62211 189.707 5.78472 189.772 5.78472C189.835 5.70341 189.772 5.4595 189.452 5.3782L189.324 5.4595L188.939 5.54081ZM167.674 2.20737C167.866 2.28867 167.994 2.36998 167.931 2.28867C167.931 2.20737 167.994 1.96346 167.994 1.96346C167.994 1.88216 167.931 1.71955 167.738 1.71955C167.546 1.63824 167.482 2.12606 167.674 2.20737ZM103.987 2.28867C103.795 2.28867 103.859 2.45128 104.051 2.69519L104.243 2.77649H104.308C104.564 2.53259 104.18 2.28867 103.987 2.28867ZM41.4084 31.07C41.2163 31.07 41.1522 31.1513 41.1522 31.3139C41.2163 31.4766 41.4725 31.7205 41.6646 31.6392C41.8568 31.5579 41.6006 31.07 41.4084 31.07ZM190.22 24.9723C190.22 24.9723 190.156 25.1349 190.092 25.2162C189.964 25.2976 189.964 25.6227 190.092 25.5415L190.22 25.4601L190.413 25.3788C190.604 25.2976 190.733 25.1349 190.604 25.0537L190.476 24.9723C190.413 24.9723 190.413 24.891 190.348 24.891H190.285C190.22 24.891 190.22 24.9723 190.22 24.9723ZM187.722 22.2893C187.914 22.2893 188.042 22.208 187.914 22.0454C187.786 21.964 187.273 22.0454 187.146 22.0454C186.89 22.1267 187.466 22.2893 187.722 22.2893ZM97.0056 2.61389C97.1977 2.85779 97.4539 2.69519 97.582 2.28867L97.1977 2.12606L97.1336 2.04477C96.9415 2.20737 96.8134 2.36998 96.8134 2.36998L97.0056 2.61389ZM34.5548 8.14251C34.4908 8.22382 34.4908 8.30512 34.5548 8.38643C34.6189 8.46773 35.0033 8.63033 35.1313 8.71163H35.2594C35.3234 8.71163 35.3875 8.63033 35.3875 8.63033C35.3875 8.54903 35.3875 8.46772 35.3875 8.46772L35.1954 8.30512C35.0032 8.14251 34.683 8.06121 34.5548 8.14251ZM22.7692 9.36206C22.5131 9.03685 22.1928 9.03685 21.8725 9.19945C22.2569 9.68728 22.2569 9.68728 22.7692 9.36206Z" fill="#FF0336"/>
</g>
</g>
</g>
<defs>
<clipPath id="clip0_14_243">
<rect width="210" height="34.31" fill="white" transform="translate(0 0.5)"/>
</clipPath>
<clipPath id="clip1_14_243">
<rect width="210" height="34.31" fill="white" transform="translate(0 0.5)"/>
</clipPath>
<clipPath id="clip2_14_243">
<rect width="209.896" height="34.31" fill="white" transform="translate(0.0517578 0.5)"/>
</clipPath>
</defs>
</svg>
