<svg width="246" height="40" viewBox="0 0 246 40" fill="none" xmlns="http://www.w3.org/2000/svg">
<g clip-path="url(#clip0_14_14)">
<g clip-path="url(#clip1_14_14)">
<g clip-path="url(#clip2_14_14)">
<path d="M45.5496 3.69114C45.5496 3.59649 45.6241 3.4072 45.6987 3.4072C45.6987 3.4072 45.9969 3.4072 46.2952 3.50185L46.668 3.12327L46.8171 2.93398C46.9663 3.02863 47.2644 3.02863 47.4882 3.02863C47.7119 3.02863 48.3829 2.55541 48.4575 2.65004V2.83933C48.4575 3.02863 48.6811 3.02863 48.9794 2.93398C49.2032 2.83933 50.247 3.02863 50.5453 3.02863C50.8435 3.02863 51.7382 2.65004 51.962 2.65004C52.1856 2.65004 52.6329 2.93398 52.7821 2.93398C52.9312 2.93398 53.3787 2.65004 53.4531 2.65004C53.5277 2.65004 53.826 2.65004 53.826 2.46076C53.826 2.27147 54.4225 2.55541 54.5716 2.55541L54.7208 2.46076C55.019 2.27147 55.0935 2.36612 55.1681 2.65004L55.2427 2.83933C55.4663 2.55541 55.69 2.36612 55.8392 2.46076C55.9883 2.55541 56.5102 2.55541 56.8084 2.55541L57.0321 2.36612L57.1813 2.27147C57.3304 2.27147 57.6286 2.36612 57.7778 2.36612L57.7032 2.65004C57.8524 2.74469 57.9269 2.93398 58.0761 3.12327C58.2251 3.02863 58.2997 2.93398 58.2997 2.74469C58.2997 2.65004 58.6726 2.46076 58.9708 2.36612L59.1945 2.55541V2.65004C59.4928 2.83933 59.791 2.83933 59.9401 2.65004L60.0892 2.55541L60.1638 2.46076C60.3129 2.46076 60.3874 2.55541 60.3874 2.65004V2.83933C60.3874 2.93398 60.462 2.93398 60.6112 2.93398L60.6857 3.02863C60.7603 2.93398 60.8349 2.74469 60.9095 2.65004L61.0585 2.46076C61.2076 2.55541 61.4314 2.55541 61.5059 2.55541C61.5804 2.55541 62.1024 2.55541 62.4752 2.93398L62.9971 2.55541C63.0717 2.46076 63.2954 2.55541 63.2954 2.55541L63.5191 2.93398C63.8173 2.74469 64.1156 2.55541 64.1902 2.46076C64.2648 2.36612 64.5629 2.17682 64.6375 2.27147C64.7121 2.46076 65.0104 2.74469 65.234 2.55541H65.3832L65.6814 2.46076C66.0542 2.46076 66.3525 2.46076 66.427 2.36612C66.5016 2.36612 66.7998 2.27147 67.0236 2.17682C67.2472 2.08218 68.0674 2.46076 68.142 2.36612L68.2165 2.27147C68.3657 2.27147 68.4403 2.27147 68.3657 2.46076V2.55541C68.3657 2.65004 68.5147 2.74469 68.5893 2.74469L68.813 2.93398C68.813 2.74469 68.8876 2.55541 68.9622 2.46076C69.0367 2.36612 69.4095 2.17682 69.7824 2.27147L70.0806 2.36612H70.1551C70.2297 2.46076 70.2297 2.55541 70.2297 2.55541C70.2297 2.55541 70.0806 2.74469 70.006 3.02863C69.9314 3.31256 69.1113 3.21792 69.0367 3.21792V3.4072C69.0367 3.50185 69.4095 3.78578 69.7824 3.97508L70.2297 3.69114L70.3789 3.50185C70.6025 3.4072 70.6025 3.31256 70.3789 3.21792C70.1551 3.12327 70.4534 2.36612 70.6771 2.17682H70.9754C71.4973 2.17682 72.0192 2.36612 72.5412 2.08218C72.6902 1.98753 72.9885 2.08218 73.1377 2.27147L73.2867 2.36612C73.3613 2.65004 73.4359 2.74469 73.5104 2.55541C73.585 2.36612 73.9579 1.98753 74.1815 2.08218C74.4052 2.08218 75.1509 1.98753 75.3 1.70361L75.5236 1.89289H75.5982C75.6728 1.98753 75.7473 2.17682 75.8965 2.36612L76.1201 2.17682H76.1947C76.3438 2.17682 76.493 2.27147 76.493 2.46076C76.493 2.55541 76.6421 2.83933 76.7167 2.74469V2.65004C76.7167 2.55541 76.7167 2.46076 76.7167 2.46076C76.7912 2.27147 76.9403 2.27147 77.0895 2.36612C77.4622 2.65004 77.164 2.08218 77.3878 2.08218H77.5368C77.6859 1.98753 77.9842 2.08218 78.2079 2.17682L78.4316 1.98753C78.5062 1.89289 78.6553 1.89289 78.6553 1.89289L79.1026 2.46076C79.4009 1.98753 79.7737 1.79825 79.9974 2.08218C80.221 2.27147 81.0412 2.08218 81.1904 2.17682C81.3395 2.27147 82.0106 1.98753 82.3834 1.98753L82.6817 1.79825H82.7562C82.8308 1.89289 83.2036 1.98753 83.4273 2.08218L83.8746 1.98753L84.2475 1.89289C84.322 2.17682 84.4711 2.27147 84.6203 2.08218C84.7694 1.98753 85.3659 2.08218 85.4405 2.08218C85.515 2.08218 85.8132 1.89289 86.1115 1.79825L86.708 1.98753C87.0808 1.98753 87.3791 1.98753 87.4536 1.98753C87.5282 2.08218 87.6774 2.08218 87.7518 1.98753C87.8264 1.89289 88.2738 1.60896 88.3484 1.70361C88.423 1.79825 88.7212 2.08218 88.8703 2.17682C89.0195 2.27147 89.616 2.17682 89.9142 1.98753C90.2125 1.89289 90.9581 1.98753 91.1071 1.98753C91.2563 1.98753 91.7783 1.79825 91.8529 1.89289C92.0019 1.98753 92.3748 2.17682 92.4494 2.17682H92.5238L92.7476 1.98753C93.0458 1.98753 93.4186 2.08218 93.4932 2.08218C93.5678 2.08218 93.9405 1.98753 94.1642 1.98753C94.388 1.98753 94.9099 1.98753 94.9099 1.70361L95.3572 1.98753L95.4318 2.08218C95.5064 2.08218 95.7301 2.17682 95.9538 2.17682C96.1774 2.17682 96.8485 2.27147 97.0722 2.08218C97.2959 1.98753 97.967 1.79825 98.116 1.79825L98.1906 1.89289C98.3398 2.08218 98.4889 2.27147 98.7871 2.17682H99.0108C99.16 1.98753 99.3091 1.79825 99.3837 1.79825H99.7564C100.055 1.70361 100.502 1.60896 100.726 1.51431L100.875 1.79825C101.024 2.08218 101.322 2.17682 101.621 1.89289L102.963 1.70361H103.335C103.783 1.70361 104.23 1.79825 104.379 1.70361C104.528 1.70361 104.901 1.98753 104.901 1.79825C104.901 1.60896 105.05 1.51431 105.2 1.79825C105.349 2.08218 106.243 1.79825 106.616 1.79825C106.914 1.79825 107.884 1.60896 107.958 1.51431L108.48 1.98753C109.151 1.89289 109.822 1.89289 109.822 1.89289C110.046 1.70361 110.195 1.51431 110.493 1.70361L110.643 1.79825C110.941 1.70361 111.388 1.51431 111.686 1.51431H112.283C112.656 1.51431 113.029 1.60896 113.103 1.70361C113.178 1.79825 113.401 1.89289 113.401 1.89289C113.401 1.79825 113.7 1.60896 113.849 1.60896C114.072 1.60896 114.669 1.51431 114.818 1.60896V2.08218C115.042 1.98753 115.489 1.89289 115.787 1.79825L116.086 1.98753C116.235 2.08218 116.458 2.08218 116.533 1.98753C116.757 1.79825 116.98 1.79825 117.279 1.79825H117.502C117.801 1.70361 118.099 1.60896 118.173 1.51431C118.323 1.51431 118.696 1.70361 118.919 1.70361C119.142 1.70361 119.739 1.60896 119.888 1.60896C119.963 1.60896 120.262 1.41967 120.336 1.51431C120.41 1.60896 120.932 1.98753 121.305 2.27147L121.38 1.51431C121.38 1.51431 121.603 1.41967 121.677 1.51431L122.274 1.79825C122.572 1.70361 123.243 1.60896 123.766 1.51431H124.363C124.437 1.70361 124.958 1.79825 125.555 1.70361H126.076C126.226 1.70361 126.226 1.98753 126.002 2.08218L125.927 2.17682C125.779 2.17682 125.779 2.27147 125.927 2.36612C126.076 2.46076 126.375 2.46076 126.375 2.27147C126.375 2.08218 126.524 1.51431 126.748 1.51431C126.972 1.51431 127.718 1.70361 127.941 1.70361H128.165C128.388 1.70361 128.687 1.70361 128.91 1.79825L129.283 1.98753C129.656 1.79825 130.028 1.60896 130.253 1.51431C130.402 1.41967 130.7 1.89289 130.7 1.89289C130.7 1.89289 130.923 1.79825 130.999 1.70361L131.148 1.89289C131.371 2.08218 131.52 2.08218 131.594 1.70361V1.60896C131.743 1.51431 131.968 1.51431 132.042 1.70361C132.117 1.89289 132.714 1.79825 133.011 1.70361C133.309 1.70361 134.204 1.60896 134.353 1.60896L134.427 1.41967C134.427 1.41967 134.726 1.32502 134.726 1.41967C134.801 1.51431 134.801 1.89289 135.099 1.70361L135.249 1.60896C135.323 1.32502 135.621 1.23038 135.919 1.41967L136.218 1.60896C136.292 1.60896 137.038 1.51431 137.112 1.51431C137.336 1.32502 137.559 1.04109 137.634 1.60896C137.708 1.60896 137.858 1.70361 138.007 1.70361C138.156 1.70361 138.604 1.79825 138.604 1.79825C138.678 1.70361 138.827 1.51431 138.827 1.41967C138.827 1.41967 139.051 1.23038 139.274 1.13574C139.499 1.04109 140.02 1.32502 140.094 1.23038C140.094 1.13574 140.468 1.13574 140.542 1.23038C140.617 1.32502 141.065 1.60896 141.213 1.51431C141.288 1.41967 141.66 1.23038 141.735 1.32502C141.809 1.41967 142.034 1.51431 142.108 1.41967C142.108 1.32502 142.332 1.13573 142.481 1.32502H142.928C143.003 1.51431 143.152 1.60896 143.301 1.41967C143.375 1.23038 143.749 0.851802 143.749 0.946445C143.749 1.04109 190.073 1.13574 190.148 1.13574C190.298 1.04109 190.596 0.946445 190.67 1.04109V1.13574C190.745 1.41967 190.968 1.41967 191.042 1.23038C191.118 0.757157 191.416 0.757157 191.639 0.946445L191.864 1.13574C192.087 1.04109 192.459 0.946445 192.758 0.851802L192.982 1.13574C193.205 1.41967 193.429 1.51431 193.727 1.23038C193.727 1.23038 193.876 1.23038 193.876 1.32502L194.1 1.60896C194.174 1.51431 194.323 1.32502 194.399 1.13574H194.771C195.143 1.23038 195.442 1.23038 195.517 1.23038C195.591 1.23038 195.815 1.13574 195.964 1.13574C196.114 1.13574 196.635 1.51431 196.858 1.32502C197.008 1.23038 197.604 1.04109 197.68 1.23038C197.754 1.41967 198.424 1.04109 198.798 1.04109C199.096 1.04109 199.916 1.23038 199.916 1.13574C199.916 1.04109 200.065 0.662512 200.139 0.851802V1.04109C200.139 1.13573 200.364 1.23038 200.661 1.23038C200.885 1.23038 201.482 1.51431 201.333 1.60896C201.184 1.70361 199.543 1.79825 199.17 1.89289C198.798 1.98753 198.872 2.17682 199.096 2.17682L199.319 2.27147C199.393 2.17682 199.618 1.98753 199.767 1.89289C199.99 1.79825 200.215 2.46076 200.364 2.46076C200.438 2.46076 200.587 2.27147 200.513 2.08218V1.98753C200.587 1.60896 200.587 1.70361 200.364 1.60896L200.215 1.04109C199.99 1.13573 199.692 1.23038 199.692 1.23038H199.618L199.319 1.41967C199.618 1.32502 200.065 1.41967 200.364 1.60896C200.661 1.79825 201.258 1.89289 201.482 1.79825C201.631 1.70361 202.302 1.89289 202.451 1.79825C202.6 1.70361 202.6 1.32502 202.525 1.23038C202.525 1.23038 202.227 1.04109 202.153 1.04109C202.004 1.04109 201.854 0.946445 202.004 0.851802C202.153 0.757157 202.674 0.378578 202.674 0.378578C202.674 0.283933 203.048 0.378578 203.122 0.378578C203.197 0.378578 203.42 0.757157 203.494 0.851802C203.57 1.04109 204.24 1.32502 204.24 1.41967C204.315 1.51431 204.389 1.13573 204.315 1.04109H204.24L204.017 0.946445C203.793 0.851802 203.644 0.662512 203.719 0.473223V0.378578C203.644 0.283933 203.57 0.0946445 203.793 0.189289L204.091 0.283933C204.465 0.378578 204.911 0.473223 205.06 0.473223C205.285 0.567867 206.18 0.283933 206.254 0.189289C206.403 0.0946445 206.626 0.0946445 206.85 0L207 0.0946445H207.074L207.149 0.189289C207.298 0.378578 207.447 0.378578 207.521 0.283933C207.596 0.189289 207.969 0.189289 208.118 0.283933C208.267 0.378578 208.864 0.189289 209.087 0.378578L209.31 0.567867C209.31 0.567867 209.236 0.757157 209.236 0.851802V0.946445C209.236 1.04109 209.31 0.946445 209.385 0.757157C209.459 0.567867 209.982 0.378578 209.907 0.378578C209.907 0.283933 209.982 0.189289 210.131 0.189289C210.281 0.189289 210.951 0.473223 211.25 0.567867C211.548 0.662512 212.368 0.378578 212.368 0.473223C212.368 0.567867 212.591 0.567867 212.517 0.662512C212.517 0.757157 212.293 0.851802 212.219 0.946445C212.144 1.04109 212.368 1.70361 212.816 1.79825L212.965 1.41967L213.114 1.13574C212.89 0.662512 212.89 0.283933 213.188 0.283933L213.262 0.378578C213.411 0.567867 213.486 0.851802 213.785 0.851802C213.785 0.851802 213.785 0.851802 213.785 0.946445C213.859 1.41967 213.859 1.41967 214.306 1.51431H214.531C214.828 1.60896 215.052 1.51431 215.052 1.32502C215.052 1.13573 215.126 0.567867 215.275 0.567867L215.425 0.757157C215.574 0.946445 215.574 1.13574 215.425 1.23038C215.275 1.23038 215.275 1.79825 215.425 1.79825C215.574 1.79825 215.947 1.51431 216.021 1.51431C216.095 1.60896 216.32 1.79825 216.394 1.70361H216.469C216.543 1.60896 216.618 1.51431 216.692 1.41967C216.767 1.32502 217.14 1.70361 217.215 1.60896C217.289 1.51431 217.587 1.23038 217.736 1.32502C217.886 1.41967 218.333 1.51431 218.407 1.41967C218.482 1.32502 218.706 1.13574 218.781 1.23038C218.781 1.32502 219.004 1.70361 219.078 1.70361H219.153L219.675 1.41967C220.122 1.70361 220.57 1.98753 220.644 1.98753C220.719 2.08218 220.942 2.17682 220.942 2.08218C220.942 2.08218 221.017 1.79825 221.017 1.70361C221.017 1.51431 221.465 1.70361 221.613 1.70361C221.762 1.79825 222.061 1.70361 222.061 1.79825C222.061 1.89289 222.508 1.70361 222.583 1.60896C222.732 1.51431 223.254 1.41967 223.403 1.32502L223.477 1.23038C223.552 1.23038 223.626 1.13574 223.626 1.13574L224.074 1.60896C224.149 1.13574 224.372 0.851802 224.596 0.946445C224.82 1.04109 225.192 1.70361 225.192 1.60896C225.192 1.51431 225.267 1.32502 225.341 1.23038C225.491 1.41967 225.715 1.51431 225.863 1.70361C225.938 1.79825 225.789 1.89289 225.789 2.08218V2.17682C225.789 2.27147 225.938 2.46076 226.012 2.46076L226.087 2.36612C226.386 2.08218 226.535 2.17682 226.609 2.55541C226.758 2.55541 226.907 2.46076 226.907 2.36612C226.907 2.27147 226.907 1.98753 226.833 1.98753C226.758 1.98753 226.907 1.60896 227.057 1.60896C227.206 1.60896 227.504 2.08218 227.578 2.36612V2.65004C227.578 2.74469 227.429 2.93398 227.28 2.93398H226.907C226.46 2.83933 226.087 2.93398 226.161 3.02863C226.161 3.21792 226.833 3.31256 226.907 3.4072C226.983 3.59649 227.057 3.88043 227.057 3.97508C227.057 4.06972 226.907 4.44829 226.833 4.63759L226.758 4.82687C226.609 5.01616 226.46 5.20545 226.237 5.3001C226.237 5.3001 226.161 5.1108 226.161 4.92151C226.161 4.73223 225.863 4.16436 225.715 4.259C225.566 4.35365 225.267 4.73223 225.341 4.82687L225.491 5.01616C225.566 5.1108 225.64 5.20545 225.566 5.20545C225.491 5.3001 225.417 5.48939 225.491 5.58402C225.566 5.67867 226.907 5.86796 226.833 5.96261C226.758 5.96261 226.684 6.1519 226.833 6.05725C227.057 6.05725 227.206 6.53047 227.28 6.53047C227.355 6.53047 227.504 6.43583 227.504 6.43583C227.504 6.34118 227.504 6.24655 227.653 6.34118H227.803C228.175 6.62512 228.324 6.81441 228.175 6.81441C228.026 6.81441 227.578 7.0037 227.578 7.09834C227.578 7.19298 227.727 7.47692 227.877 7.66621C228.026 7.85549 228.622 7.95014 228.622 7.85549C228.622 7.76086 228.921 7.66621 229.144 7.76086C229.293 7.85549 229.667 7.85549 229.592 7.66621C229.518 7.47692 230.039 6.71976 230.262 6.34118H230.859C230.934 6.05725 231.083 5.96261 231.083 6.05725C231.083 6.1519 231.233 6.53047 231.307 6.43583C231.381 6.34118 231.679 6.1519 231.903 6.34118C232.053 6.53047 232.649 6.81441 232.873 6.81441C233.022 6.71976 233.543 6.34118 233.991 6.43583L234.363 6.53047C234.363 6.53047 234.438 6.43583 234.438 6.34118C234.512 6.24655 234.588 6.1519 234.662 6.1519H234.886C234.811 6.34118 234.737 6.62512 234.662 6.71976C234.588 6.81441 234.662 7.38227 235.035 7.57157L235.258 7.0037C235.334 6.90906 235.557 6.81441 235.706 6.71976C235.78 6.71976 235.929 6.81441 235.929 6.90906C236.004 7.0037 236.004 7.19298 236.153 7.0037C236.303 6.90906 236.452 6.81441 236.526 7.0037C236.601 7.19298 236.675 7.38227 236.601 7.47692C236.526 7.76086 236.303 7.95014 236.153 8.13943L236.004 8.32872C236.078 8.51802 236.452 8.80194 236.675 8.99123C236.973 9.08588 237.495 9.18053 237.719 9.18053C237.943 9.18053 238.688 9.74839 238.838 9.93768C238.987 10.127 239.584 10.2216 239.658 10.3163C239.733 10.4109 239.658 10.7895 239.658 11.1681L239.881 11.5466L239.956 11.6413C240.03 11.8306 239.881 12.0198 239.658 12.1145L239.508 12.3038C239.285 12.5877 239.285 12.5877 239.136 12.3984L239.061 12.3038L238.763 12.3984C238.613 12.6824 238.464 12.777 238.39 12.5877C238.316 12.3984 237.644 12.3984 237.495 12.3984C237.346 12.3984 236.824 12.6824 237.047 12.777C237.272 12.8716 237.719 13.2502 237.644 13.4396L237.869 13.5341L238.167 13.7235C238.39 13.4396 238.539 13.2502 238.539 13.2502C238.539 13.2502 238.688 13.4396 238.838 13.5341C238.987 13.5341 238.838 14.102 238.613 14.102L238.316 14.4806C238.167 14.7645 238.167 15.0485 238.241 15.1431C238.316 15.1431 238.39 15.5217 238.167 15.8057C237.943 16.0896 237.421 16.7521 237.495 16.7521C237.57 16.7521 237.719 16.9414 237.644 17.1306H237.421C237.272 17.2253 237.047 17.4145 236.973 17.6986L237.197 17.8878C237.272 17.9825 236.973 19.1182 236.899 19.1182L236.675 19.3075C236.452 19.4968 236.303 19.6861 236.303 19.8753C236.303 19.97 236.004 20.4432 235.929 20.6325L235.631 21.0111C235.78 21.2951 235.855 21.7682 235.855 22.0522L235.78 22.3361L235.706 22.7147C236.004 22.7147 236.078 22.9039 235.929 22.9986C235.78 23.0933 235.258 23.4718 235.035 23.4718H234.438C234.214 23.7558 233.917 23.9451 233.768 24.0398C233.543 23.6612 233.32 24.229 233.096 24.0398C232.873 23.8504 232.649 23.8504 232.425 23.7557C232.351 24.0398 232.127 24.1343 231.903 23.9451C231.679 23.8504 231.157 24.1343 231.157 24.1343C231.008 23.9451 230.785 24.1343 230.636 24.0398L230.338 23.8504C230.113 24.0398 229.667 23.9451 229.368 23.8504L229.07 24.1343L228.995 24.229C228.846 24.229 228.399 24.0398 228.026 23.8504L227.653 24.1343L227.578 24.229C227.429 24.229 227.206 24.229 227.057 24.229C226.907 24.229 226.386 24.0398 226.311 24.0398C226.161 24.0398 225.789 24.0398 225.64 24.1343C225.491 24.229 224.82 24.1343 224.596 24.1343H224.298C224.149 24.1343 224 24.1343 223.925 24.0398L223.702 23.8504C223.552 23.9451 223.179 24.1343 222.882 24.229L222.657 24.3237C222.583 24.3237 222.508 24.4183 222.508 24.5129L222.359 24.7022C222.285 24.5129 222.136 24.4183 222.061 24.4183C221.987 24.4183 221.688 24.8915 221.688 25.2702V25.7433C221.167 25.7433 220.644 25.838 220.57 25.838L220.644 25.7433L221.091 25.2702C221.091 25.6486 221.167 25.9326 221.316 25.9326C221.465 25.9326 221.465 25.4594 221.465 25.2702C221.465 25.0808 221.241 24.6076 221.167 24.6076C221.091 24.5129 220.793 24.7969 220.644 24.9861C220.495 25.1755 221.316 25.838 221.911 26.0273L222.061 25.838L222.285 25.6486C222.434 25.2702 222.806 25.0808 223.03 25.1755C223.254 25.2702 223.851 25.6486 223.851 25.3647L223.925 25.1755V25.0808C224.074 25.0808 224.223 25.0808 224.223 25.1755C224.223 25.2702 224.223 25.4594 224.298 25.4594C224.372 25.4594 224.671 25.5541 224.596 25.6486H224.298C224.074 25.838 224 26.1219 224.223 26.1219L224.298 26.0273L224.596 25.7433C224.894 25.7433 225.341 25.838 225.491 25.838C225.64 25.9326 226.087 25.5541 226.161 25.5541H226.237L226.386 25.6486C226.535 25.7433 226.833 25.838 227.057 25.7433L227.206 25.9326C227.28 26.0273 227.429 25.9326 227.504 25.9326H227.578C227.653 25.9326 227.727 26.0273 227.727 26.1219V26.3112C227.727 26.5004 227.578 26.7845 227.429 27.0684H226.833C226.386 27.0684 226.46 27.3523 226.983 27.7308H227.727C227.877 27.5416 228.101 27.3523 228.25 27.3523L228.473 27.6362C228.473 28.0147 228.622 28.2987 228.696 28.488H228.846C228.921 28.488 228.995 28.2987 228.921 28.2041V28.1094C228.846 28.0147 228.622 28.0147 228.473 28.1094L228.25 28.0147C228.101 28.0147 227.952 28.2041 227.653 28.1094L227.28 28.0147C226.758 28.1094 226.237 28.488 226.087 28.6773L226.386 29.0559C226.535 29.0559 226.907 28.8666 227.206 28.488L227.653 28.6773L228.399 29.2451L228.772 28.772C228.622 28.488 228.548 28.0147 228.622 27.9202C228.696 27.7308 229.144 27.4469 229.368 27.7308L229.442 27.9202C229.518 28.0147 229.442 28.2041 229.368 28.2987L229.293 28.3933C229.219 28.8666 229.368 29.2451 229.592 29.1506C229.816 29.0559 230.188 29.8131 230.113 29.9077C230.039 30.0023 229.667 30.3809 229.89 30.2863C230.113 30.1916 232.053 29.9077 232.425 29.813C232.723 29.6237 232.351 29.5291 231.903 29.6237L231.53 29.813L231.456 29.9077C231.307 29.9077 231.233 29.9077 231.233 29.813C231.233 29.7184 231.233 29.5291 231.083 29.5291C230.934 29.7184 230.859 29.9077 230.71 30.097L230.636 30.1916C230.71 30.3809 231.008 30.5702 231.233 30.6649C231.456 30.7594 231.828 30.1916 231.903 30.1916C231.977 30.097 232.127 30.1916 232.202 30.5702L232.574 30.3809L232.797 30.2863C232.351 30.1916 231.605 30.097 231.233 29.9077C230.859 29.8131 230.859 29.3398 231.008 29.2451C231.083 29.1506 231.381 28.772 231.381 28.772C231.456 28.9612 231.456 29.2451 231.53 29.3398L231.828 29.5291C231.828 29.2451 231.903 28.9612 231.977 28.8666C232.053 28.772 232.947 28.9612 233.543 29.1506L234.14 28.772L234.363 28.6773C234.363 28.8666 234.363 29.1506 234.438 29.1506C234.512 29.2451 234.811 29.3398 234.811 29.2451C234.811 29.0559 235.109 28.8666 235.334 28.9612C235.557 29.0559 235.408 29.8131 235.483 29.9077C235.631 30.0023 236.303 30.097 236.899 29.813L237.421 29.6237H237.495C237.644 29.813 237.869 30.0023 237.869 29.9077C237.943 29.8131 238.092 29.7184 238.092 29.6237L237.869 29.4345C237.644 29.2451 237.346 29.1506 237.197 29.1506H237.047C236.973 29.1506 236.899 29.1506 236.824 29.1506C236.377 28.8666 236.452 29.2451 236.452 29.5291V29.6237C236.377 29.7184 236.377 29.6237 236.377 29.4345C236.377 29.2451 235.929 29.2451 235.855 29.1506V29.0559C235.855 28.9612 236.004 28.8666 236.078 28.8666C236.303 28.9612 236.526 28.488 236.824 28.8666C237.123 28.6773 237.421 28.5827 237.421 28.772L237.495 28.8666H237.57C237.719 28.772 237.943 28.6773 238.092 28.5827C238.241 28.488 238.688 28.2987 238.688 28.488C238.763 28.6773 238.912 29.0559 238.987 28.9612H239.061L239.434 28.8666C239.881 28.6773 240.404 28.6773 240.627 28.772C240.627 29.1506 240.776 29.5291 240.478 29.813C240.478 29.813 240.478 30.0023 240.553 30.097C240.627 30.097 240.776 30.097 240.776 30.097C240.851 29.9077 240.925 29.7184 241.074 29.6237L241.15 29.5291C241.224 29.4345 241.298 29.4345 241.373 29.5291C241.373 29.6237 241.596 30.0023 241.671 30.0023C241.745 30.0023 242.043 30.0023 242.119 30.097C242.193 30.1916 242.417 30.2863 242.491 30.2863C242.491 30.1916 242.64 30.097 242.714 30.1916C242.789 30.2863 243.237 30.4755 243.386 30.1916L243.609 30.0023C243.759 30.1916 243.834 30.3809 243.759 30.4755C243.685 30.5702 243.535 30.8541 243.685 30.8541C243.834 30.8541 244.131 31.0434 244.057 31.138C243.982 31.2327 243.982 31.6113 244.131 31.7059C244.28 31.8006 244.429 31.9898 244.057 32.1792L243.759 32.3684C243.685 32.4631 243.535 32.5577 243.535 32.6524C243.535 32.747 243.535 32.9363 243.535 33.031C243.609 33.1256 243.759 33.1256 243.908 33.1256L244.131 33.031C244.131 32.8416 244.206 32.5577 244.28 32.4631H244.355C244.578 32.3684 245.324 32.6524 245.324 32.9363V33.031C245.175 33.1256 244.952 33.3149 244.803 33.4096C244.654 33.5041 244.28 33.9774 244.28 33.9774C244.28 34.072 244.131 34.072 244.057 33.7881H243.834C243.609 33.9774 243.609 34.1667 243.685 34.2614C243.759 34.3559 244.131 35.0185 244.131 35.4917V36.5328C243.685 36.8167 243.311 37.0061 243.311 36.9114C243.311 36.8167 243.162 36.6274 243.088 36.7221C243.013 36.8167 243.013 37.29 242.939 37.29C242.863 37.29 242.565 37.4792 242.714 37.6686H242.789C242.939 37.6686 243.162 37.4792 243.311 37.4792C243.46 37.4792 243.685 37.3845 243.685 37.6686C243.685 37.8578 243.609 38.0471 243.535 38.0471L243.237 38.1418C242.939 38.2364 242.64 37.9525 242.714 37.4792L242.193 37.5739L241.82 37.6686C241.969 38.0471 241.969 38.331 241.82 38.331C241.671 38.331 241.15 38.331 241.15 38.1418C241.15 38.0471 241 37.8578 240.851 37.9525C240.702 38.1418 240.328 38.5204 240.328 38.331C240.328 38.2364 240.179 37.8578 240.105 37.9525C240.03 38.0471 239.434 38.331 239.061 38.331L238.464 38.7096C238.167 38.7096 237.719 38.7096 237.421 38.7096H237.047C236.973 38.7096 236.601 38.7096 236.303 38.6149C236.004 38.5204 235.109 38.8043 235.035 38.7096C234.96 38.7096 234.588 38.6149 234.438 38.6149C234.289 38.6149 233.768 38.6149 233.618 38.5204C233.469 38.4257 232.873 38.8989 232.649 38.9935L232.574 38.5204V38.331C232.351 38.4257 232.127 38.5204 231.977 38.6149C231.828 38.7096 231.605 38.8989 231.53 38.8043C231.456 38.7096 230.859 38.8043 230.71 38.8989C230.561 38.8989 230.039 38.8043 229.964 38.8043C229.89 38.8043 229.592 38.9935 229.518 39.0882C229.442 39.1828 229.144 38.9935 229.07 38.9935C228.995 38.9935 228.548 39.0882 228.324 39.1828C228.026 39.3721 227.132 38.8989 226.833 38.8989C226.535 38.8989 225.789 39.3721 225.715 39.3721C225.566 39.3721 225.118 39.3721 224.969 39.5614L224.596 39.2775C224.446 39.1829 224.074 39.3721 223.851 39.3721C223.626 39.3721 223.403 39.2775 223.179 39.2775C223.03 39.2775 222.882 39.3721 222.657 39.3721L222.285 39.4668C222.285 39.1828 222.285 39.0882 222.285 39.2775C222.285 39.4668 221.688 39.2775 221.465 39.3721H221.241L220.421 39.2775C219.526 39.1829 218.556 39.1828 218.184 39.1828C217.886 39.1828 216.991 39.4668 216.917 39.4668C216.841 39.4668 216.543 39.5614 216.245 39.5614L216.171 39.4668C215.947 39.1828 215.649 39.4668 215.425 39.3721L215.126 39.1828C214.828 39.1828 214.455 39.1828 214.232 39.1828C214.083 39.1828 213.411 39.4668 212.965 39.5614L212.591 39.3721L212.368 39.2775C211.994 39.3721 211.622 39.3721 211.473 39.3721C211.324 39.2775 211.025 39.4668 210.951 39.3721C210.876 39.2775 210.578 39.0882 210.429 39.1828C210.281 39.2775 209.684 39.5614 209.535 39.5614C209.385 39.5614 208.938 39.4668 208.864 39.3721C208.715 39.2775 208.043 39.5614 207.596 39.6561C207.149 39.7508 206.031 39.4668 205.955 39.5614C205.881 39.6561 205.508 39.3721 205.359 39.3721C205.285 39.3721 204.986 39.4668 204.986 39.3721C204.911 39.2775 204.837 39.1829 204.763 39.2775C204.763 39.3721 204.465 39.4668 204.315 39.3721C204.091 39.2775 203.494 39.5614 203.346 39.5614L203.271 39.4668C202.899 39.1828 202.674 39.1828 202.302 39.4668C202.004 39.6561 201.705 39.1829 201.482 39.2775C201.184 39.4668 200.885 39.5614 200.661 39.4668C200.438 39.3721 200.364 39.3721 200.215 39.4668C200.139 39.4668 199.841 39.3721 199.841 39.3721C199.692 39.6561 199.543 39.2775 199.393 39.3721C199.244 39.5614 199.244 39.4668 199.096 39.3721L198.872 39.1828C198.573 39.2775 197.903 39.3721 197.381 39.4668C196.858 39.5614 195.143 39.4668 194.92 39.5614H194.1C193.503 39.5614 192.833 39.6561 192.684 39.7508C192.534 39.8453 191.788 39.6561 191.49 39.5614H191.192C190.893 39.5614 190.521 39.5614 190.148 39.5614H143.823C143.749 39.3721 143.674 39.2775 143.6 39.2775C143.6 39.2775 143.375 39.3721 143.301 39.4668C143.226 39.5614 142.854 39.7508 142.778 39.6561C142.704 39.5614 141.959 39.7508 141.437 39.7508C140.915 39.7508 139.424 39.5614 139.274 39.5614C139.125 39.5614 138.528 39.7508 138.38 39.5614C138.231 39.4668 137.634 39.7508 137.41 39.7508C137.261 39.7508 136.59 39.8453 136.367 39.8453C136.143 39.8453 135.472 39.6561 135.323 39.6561C135.173 39.7508 134.577 39.7508 134.427 39.6561C134.278 39.5614 133.458 39.7508 133.16 39.6561L132.862 39.5614L132.638 39.4668C132.191 39.5614 131.445 39.7508 130.923 39.7508C130.402 39.7508 128.613 39.8453 128.239 39.8453L128.09 39.2775C127.792 39.2775 127.642 39.3721 127.642 39.4668C127.642 39.5614 127.642 39.7508 127.493 39.7508C127.344 39.7508 126.673 39.8453 126.45 39.94L126.002 39.6561C125.927 39.5614 125.779 39.3721 125.63 39.3721C125.555 39.4668 125.481 39.6561 125.481 39.6561L124.66 39.4668C123.766 39.6561 123.02 39.6561 123.02 39.5614C123.02 39.4668 122.797 39.0882 122.648 39.1828H122.498C122.125 39.1828 122.274 39.4668 122.125 39.5614C121.976 39.6561 121.826 39.5614 121.677 39.6561C121.529 39.6561 121.305 39.7508 121.156 39.8453H121.082C120.932 39.7508 120.708 39.7508 120.559 39.6561C120.41 39.5614 119.963 39.7508 119.814 39.7508C119.739 39.8453 119.217 39.6561 119.068 39.7508C118.919 39.8453 118.099 39.8453 117.651 39.94L117.279 39.5614C117.204 39.4668 116.906 39.4668 116.831 39.5614L116.458 39.8453C116.086 39.7508 115.638 39.5614 115.415 39.5614V39.6561C115.191 40.1292 114.893 39.5614 114.669 39.7508L114.445 39.94C114.222 39.7508 113.7 39.5614 113.327 39.4668L113.029 39.7508L112.805 39.94C112.656 39.6561 112.283 39.4668 112.059 39.5614L111.985 39.6561C111.836 39.94 111.686 39.5614 111.537 39.6561H111.463C111.388 39.6561 111.09 39.6561 110.792 39.5614C110.493 39.4668 108.853 39.7508 108.778 39.7508C108.555 39.5614 108.331 39.3721 108.107 39.6561C107.809 39.94 107.809 39.4668 107.511 39.5614L107.287 39.6561C106.989 39.5614 106.393 39.4668 105.871 39.5614H105.423C105.125 39.5614 104.752 39.6561 104.678 39.4668L104.454 39.0882C104.23 39.2775 104.006 39.3721 103.932 39.3721C103.857 39.3721 103.559 39.3721 103.335 39.3721H103.112C102.963 39.3721 102.739 39.4668 102.59 39.5614C102.515 39.4668 102.441 39.2775 102.366 39.1828C102.292 39.0882 102.068 39.3721 101.993 39.5614H101.546C101.248 39.5614 100.8 39.6561 100.502 39.6561L99.9056 39.4668C99.6073 39.4668 99.3091 39.3721 99.2345 39.2775C99.2345 39.1829 99.16 38.8989 99.16 38.8989C99.16 38.8989 99.0854 38.9935 99.0854 39.0882C99.0854 39.1828 98.8617 39.5614 98.7126 39.4668L98.638 39.3721C98.3397 38.9935 98.3398 38.9935 97.967 39.3721H97.8924C97.8178 39.3721 97.5195 39.4668 97.1468 39.4668C96.7739 39.4668 95.8047 39.0882 95.6555 39.1828C95.5064 39.2775 95.2826 39.0882 95.4318 38.9935C95.5064 38.8989 95.7301 38.5204 95.5064 38.6149C95.2826 38.7096 94.8353 39.0882 94.7607 39.1828H94.6862C94.5371 39.1828 94.388 39.0882 94.2388 39.0882C94.0897 39.0882 93.9405 39.1828 93.8661 39.1828C93.7169 39.1828 93.4932 39.1828 93.344 39.1828L92.8967 38.8989C92.3748 38.9935 91.8529 39.1828 91.7037 39.1828L91.5546 39.0882C91.3309 38.9935 90.8089 38.8989 90.5852 38.9935L90.1379 39.1828C89.7651 38.9935 89.3923 38.8989 89.3177 38.9935C89.2431 39.0882 88.2738 38.9935 87.6774 38.9935H86.7826C86.3353 38.9935 85.6642 39.0882 85.2913 39.1828L84.9186 39.0882C84.6948 38.9935 84.1729 38.8043 84.0238 38.7096C83.9492 38.6149 83.7255 38.7096 83.7255 38.7096C83.6509 39.0882 83.5019 39.1829 83.2036 38.8989C83.2036 38.8989 82.8308 38.9935 82.4579 39.0882L82.1597 38.9935C81.7869 38.8989 81.4887 38.8043 81.1904 39.0882C81.1158 39.1828 80.8921 39.0882 80.7431 38.9935H80.5939C80.4448 38.8989 80.221 38.9935 80.1466 39.0882C79.9974 39.1828 79.3264 38.9935 79.1772 38.9935C79.0281 38.9935 78.2079 38.9935 77.8351 39.0882L77.5368 38.8043C77.5368 38.8043 77.4622 38.8989 77.3878 38.8989L76.5675 39.0882C76.1201 38.9935 75.6728 38.8989 75.5982 38.8043C75.5236 38.8043 74.9271 38.8989 74.4052 38.8989L73.8833 38.9935H73.8087C73.7342 38.8043 73.585 38.7096 73.585 38.8043C73.585 38.9935 72.6902 39.0882 72.1683 39.0882L71.87 38.8989C71.721 38.9935 71.4227 38.9935 71.1245 38.9935L70.8262 38.8989C70.6025 38.8043 70.4534 39.3721 70.1551 38.9935C70.0806 38.8989 69.9314 38.9935 69.857 38.9935C69.7824 38.9935 69.7078 39.0882 69.6332 38.9935H69.4841C69.3349 38.9935 69.0367 38.9935 68.813 39.0882L68.6639 38.8989C68.4403 38.5204 68.2911 39.0882 67.9928 38.8989C67.6946 38.7096 67.8437 38.331 67.6946 38.1418C67.6201 38.0471 67.3963 38.0471 67.2472 38.1418L67.0236 38.2364C66.7998 38.4257 66.6507 38.6149 66.7253 38.7096C66.7998 38.7096 66.7253 38.8989 66.5016 38.8989L66.2779 38.8043C66.1288 38.8043 65.9796 38.7096 65.8305 38.7096H65.3832C65.085 38.331 64.8612 38.1418 64.8612 38.331C64.8612 38.4257 64.6375 38.9935 64.3392 38.9935C64.041 38.9935 63.4445 38.6149 63.4445 38.6149L63.2954 38.8043C63.2208 38.8043 62.9226 38.8989 62.6243 38.8989C62.3262 38.8989 61.5059 38.7096 61.4314 38.6149C61.3568 38.5204 61.0585 38.5204 61.0585 38.6149C61.0585 38.7096 60.6112 38.8043 60.6112 38.7096C60.6112 38.7096 60.5366 38.4257 60.462 38.1418L60.0147 38.4257C59.791 38.6149 59.5672 38.6149 59.3436 38.7096H59.1945C58.9708 38.7096 58.8217 38.5204 58.8217 38.331V38.1418C58.8217 37.9525 58.8217 37.7632 58.598 37.7632C58.2997 37.7632 58.4488 38.0471 58.4488 38.1418V38.2364C58.3743 38.331 58.2997 38.331 58.2251 38.2364C58.1505 38.1418 57.8524 38.0471 57.7032 38.2364V38.5204C57.6286 38.6149 57.5541 38.6149 57.4795 38.6149H57.405C57.3304 38.5204 57.2559 38.331 57.1813 38.1418C57.1067 37.9525 56.734 37.8578 56.8084 37.9525C56.883 38.0471 56.8084 38.4257 56.3611 38.7096L55.9883 38.331L55.8392 38.1418C55.69 38.2364 55.4663 38.331 55.3173 38.4257C55.1681 38.5204 54.4971 38.1418 54.4225 38.1418H54.2733C54.1988 38.1418 54.1988 38.2364 54.1988 38.331C54.1988 38.331 53.9751 38.6149 53.5277 38.7096L53.3041 38.5204L52.9312 38.331C52.5584 38.4257 52.3347 38.4257 52.3347 38.331C52.4093 38.2364 52.1856 37.6686 51.7382 37.3845L51.2163 37.7632L50.8435 37.9525C50.3216 37.7632 49.9487 37.5739 50.0978 37.5739L50.247 37.1953C50.6197 37.29 50.918 37.3845 50.9926 37.3845C51.0672 37.3845 51.0672 37.0061 50.6943 37.1006V37.0061L50.247 36.6274C50.0978 37.0061 50.0233 37.1953 49.9487 37.1006C49.9487 37.0061 49.7996 36.8167 49.7251 36.8167C49.6505 36.8167 49.3522 37.0061 49.3522 37.1006C49.3522 37.1953 49.054 37.4792 48.9049 37.5739C48.7557 37.7632 48.4575 38.5204 48.4575 38.331C48.4575 38.1418 48.2338 37.7632 48.1592 37.7632C48.0101 37.7632 47.6373 37.6686 47.5627 37.6686C47.4882 37.6686 47.2644 37.7632 47.4136 37.7632C47.4882 37.8578 47.7865 38.0471 47.8609 38.1418V38.2364C47.8609 38.2364 47.7865 38.331 47.7119 38.331L47.4882 38.2364C47.1899 38.1418 47.0408 37.9525 47.0408 37.7632C47.0408 37.5739 46.9663 37.29 46.8171 37.3845C46.668 37.4792 46.5934 37.9525 46.5188 38.0471C46.4442 38.1418 45.9969 38.1418 45.9969 38.1418C45.9223 38.1418 45.8478 37.7631 45.9969 37.4792C46.146 37.1953 46.2206 36.5328 45.9969 36.8167C45.7733 37.1006 45.1767 37.7631 45.0276 37.6686C44.8785 37.5739 44.5802 37.9525 44.5802 38.0471C44.5056 38.1418 43.9837 38.2364 43.9091 38.0471C43.8346 37.8578 44.5056 37.5739 44.6548 37.4792C44.8039 37.3845 45.3258 37.1953 45.3258 37.1006C45.4004 37.0061 45.4004 36.7221 45.4004 36.6274C45.3258 36.6274 45.1767 36.6274 45.1021 36.6274L44.9531 36.8167C44.8039 37.0061 44.6548 37.1953 44.6548 37.1953C44.5802 37.1953 44.5056 37.1006 44.4312 36.9114C44.4312 36.8167 44.2074 36.4382 44.1329 36.3435C44.0583 36.2488 43.8346 35.9649 43.76 36.0596C43.6854 36.0596 43.4618 36.3435 43.3127 36.5328H43.8346C43.9837 36.8167 44.1329 37.1006 44.1329 37.1006C44.1329 37.1006 43.9837 37.29 43.8346 37.29H43.5364C43.3872 37.29 43.2381 37.3845 43.2381 37.4792C43.1635 37.4792 42.9399 37.3845 42.8653 37.4792C42.7907 37.5739 42.567 37.5739 42.4925 37.4792C42.4179 37.29 42.0451 37.0061 41.8214 37.1953L41.5232 37.3845C41.3741 37.29 41.1503 37.1006 40.9267 36.9114L40.6284 36.5328C40.4047 36.6274 40.1065 36.8167 40.0319 36.9114L39.8082 37.1953C39.6591 37.4792 39.4354 37.5739 39.2117 37.4792C38.988 37.3845 38.6152 37.0061 38.4661 37.0061C38.317 36.9114 37.9442 36.9114 38.0188 37.1006L37.9442 37.1953C37.8696 37.29 37.6459 37.3845 37.5713 37.4792C37.6459 37.5739 37.6459 37.7632 37.5713 37.7632C37.4967 37.7632 37.3477 37.6685 37.2731 37.5739C37.1985 37.4792 36.6766 37.0061 36.2292 37.1006L36.3038 37.6686C36.3038 37.8578 35.8564 37.9525 35.7819 37.7632C35.7073 37.5739 35.7073 37.4792 35.931 37.3845C36.0056 37.3845 36.1546 37.1953 36.0801 37.1006L36.0056 36.8167C35.931 37.0061 35.6327 37.1006 35.4091 37.0061C35.1854 37.0061 34.5143 37.29 34.3652 37.1953H34.2906C34.216 37.1953 33.9924 37.1006 33.9178 37.1953L33.6195 37.3845C33.3213 37.29 32.9485 37.1006 32.9485 37.1006C32.8739 37.1006 32.5757 37.1006 32.2774 37.1953L32.0537 37.0061L31.9792 36.9114C31.8301 36.8167 31.6809 36.9114 31.6809 37.1006C31.6809 37.1953 31.3826 37.6686 31.0844 37.6686C30.7861 37.6686 30.1151 37.5739 30.0405 37.6686V37.7632L29.9659 37.8578C29.8915 37.9525 29.8915 37.9525 29.8169 37.8578V37.7632L29.7423 37.9525C29.6677 37.8578 29.3695 37.8578 29.0713 38.0471L28.8475 37.7632C28.6984 37.9525 28.4748 38.0471 28.3256 37.9525C28.1765 37.8578 27.8037 37.9525 27.58 37.9525C27.3563 37.8578 26.7598 38.1418 26.6106 38.2364C26.4616 38.2364 25.9396 38.1418 25.716 38.2364L25.4922 37.9525L25.2685 37.7632C24.9703 37.8578 24.5229 38.0471 24.2247 38.0471L23.7774 38.2364C23.5536 38.1418 23.2553 37.8578 23.1062 37.7632L22.8826 38.0471C22.7334 38.331 22.5843 37.9525 22.4351 37.9525C22.2861 37.9525 21.9878 38.1418 21.9132 38.1418C21.615 37.9525 21.3913 37.9525 21.093 37.9525C20.7203 37.9525 20.3474 37.7632 20.0492 38.1418C19.9746 38.1418 19.7509 38.0471 19.6019 37.9525C19.4527 37.8578 18.7816 37.7632 18.4834 37.9525L18.1852 37.8578C17.6631 37.7632 17.0667 37.5739 16.5447 37.3845C16.3956 37.3845 16.3956 37.1006 16.2466 37.0061C16.172 36.9114 16.0974 36.8167 16.0228 36.8167C15.8737 36.8167 15.7245 36.9114 15.65 36.9114H15.5754C15.5008 36.7221 15.3518 36.5328 15.1281 36.4382C14.9043 36.3435 14.3824 36.4382 14.2333 36.5328L14.0842 36.4382C13.7859 36.2488 13.4876 36.1543 12.8912 36.1543C12.8166 36.1543 12.7421 35.9649 12.7421 35.8702C12.8912 35.681 13.1149 35.5863 12.6675 35.4917C12.4438 35.4917 12.5184 35.2078 12.6675 35.1131L12.7421 35.0185C12.8166 34.9239 12.8166 34.7345 12.7421 34.64C12.6675 34.5453 12.9657 34.3559 13.0403 34.4506C13.1149 34.5453 13.5622 34.3559 13.6368 34.5453L13.7114 34.64C13.7859 34.7345 13.7114 34.8292 13.7114 34.9239C13.7114 35.0185 13.8605 35.0185 13.9351 35.1131H14.0097C14.0842 35.1131 14.2333 34.9239 14.3824 34.7345C14.5316 34.5453 14.7553 33.8827 14.6807 33.7881C14.6061 33.5988 14.0097 33.7881 13.8605 33.6935V33.5988L13.7859 33.3149C13.6368 33.031 13.4876 32.9363 13.4132 33.1256C13.3386 33.2202 13.264 33.7881 13.1149 33.5988C12.9657 33.4096 12.2201 33.1256 12.071 33.031C11.9219 32.9363 12.2947 32.4631 12.4438 32.6524C12.5929 32.747 13.0403 33.031 13.1149 33.031C13.1895 32.9363 13.3386 32.6524 13.4132 32.4631L13.7114 32.6524C13.7859 32.747 14.0097 32.747 14.0097 32.6524C14.0842 32.4631 14.0842 32.3684 13.8605 32.2738L13.7114 32.1792C13.5622 31.8953 13.5622 31.6113 13.7114 31.5167L13.8605 31.3273C13.8605 31.138 13.7114 31.0434 13.6368 30.9488C13.5622 30.9488 13.1149 30.6649 12.7421 30.5702L12.5184 31.422C12.1456 31.3273 11.9219 31.138 12.071 31.0434C12.2201 30.9488 12.3692 30.8541 12.3692 30.7594C12.2947 30.7594 12.071 30.4755 11.9219 30.2863L11.6236 30.097C11.4745 30.1916 11.1763 30.097 11.0271 30.0023H10.878C10.6543 30.0023 10.5052 30.0023 10.2815 30.0023C9.90868 30.0023 9.61044 29.9077 9.23763 30.0023C8.93938 30.097 8.71569 29.8131 8.34288 29.9077C8.19376 29.9077 7.97007 29.813 7.82094 29.7184L7.59725 29.5291C7.29901 29.5291 6.85163 29.4345 6.47881 29.4345C6.25513 29.3398 5.13669 28.772 4.76388 28.5827L4.39107 28.488H4.16738C3.86913 28.488 3.49632 28.3933 3.3472 28.2987L2.60157 27.8255C2.67614 27.3523 2.82526 26.879 2.89983 26.6898L2.45245 26.7845C2.22876 26.7845 2.07963 26.6898 2.1542 26.5004V26.3112C2.22876 26.1219 2.1542 25.9326 2.07963 25.838C2.00507 25.7433 1.85595 25.4594 1.93051 25.4594C2.00507 25.3647 2.37788 25.0808 2.45245 24.9861L2.22876 24.8915C2.00507 24.7969 1.93051 24.7022 2.00507 24.5129L2.1542 24.229C2.00507 24.1343 1.70682 23.4718 1.5577 22.8094L1.11032 22.2414C1.25945 21.8629 1.33401 21.579 1.18488 21.579C1.11032 21.579 0.886634 21.3896 1.03576 21.2951C1.18488 21.1057 1.03576 20.6325 1.11032 20.6325C1.18488 20.6325 1.48313 20.2539 1.40857 20.0647L1.33401 19.8753C1.25945 19.5914 1.11032 19.4021 1.18488 19.1182C1.18488 18.9289 1.40857 18.6449 1.5577 18.4557C1.70682 18.0771 2.07963 18.1718 2.1542 18.0771L2.30332 17.7932C2.52701 17.7932 2.7507 17.8878 2.82526 17.8878C2.89983 17.8878 3.42176 17.32 3.57088 17.32C3.72001 17.32 4.24194 17.1306 4.39107 17.1306L4.61476 17.0361C4.76388 17.0361 5.06213 17.2253 5.21126 17.1306C5.43495 17.0361 5.50951 17.0361 5.73319 17.1306C5.88232 17.2253 6.10601 17.1306 6.25513 17.1306L6.7025 16.8467C6.62794 17.1306 7.00076 17.0361 7.37356 16.6574L7.97007 16.7521H8.04463C8.19376 16.6574 8.34288 16.6574 8.41744 16.6574C8.492 16.6574 9.01394 16.6574 9.38675 16.3735L9.90868 16.6574C10.0578 16.7521 10.5052 16.4682 10.5797 16.5628L10.878 16.8467C11.1017 16.6574 11.4745 16.3735 11.6982 16.2788L11.9219 16.1843C12.1456 16.0896 12.4438 16.0896 12.6675 16.1843C13.0403 16.2788 13.4132 16.3735 13.7859 16.0896L14.0842 15.9002C14.457 15.9002 14.8299 15.9002 14.9043 15.9949L15.0535 16.1843C15.1281 16.3735 15.3518 16.2788 15.5008 16.0896C15.65 15.9002 16.4702 16.0896 16.7685 16.0896C17.0667 16.0896 17.8869 15.711 18.1106 15.6163H18.3342C18.7816 15.6163 19.0053 15.6163 19.229 15.5217C19.3036 15.5217 19.3781 15.4271 19.4527 15.4271H19.6019C19.7509 15.3324 20.0492 15.2378 20.1983 15.1431H20.4965C20.6457 15.3324 20.7203 15.2378 20.7203 14.9539L21.093 15.0485C21.3167 15.0485 21.615 15.1431 21.8387 14.9539H21.9878C21.9878 15.1431 21.9878 15.3324 22.2115 15.2378C22.2861 15.2378 22.3607 14.9539 22.4351 14.8592C22.6589 14.7645 22.9572 14.67 23.2553 14.5753H23.5536C23.9264 14.67 24.2993 14.5753 24.4483 14.5753C24.5975 14.4806 25.1195 14.3859 25.1939 14.4806C25.3431 14.4806 25.7905 14.4806 25.7905 14.4806C25.865 14.3859 26.0887 14.2914 26.0887 14.3859C26.0887 14.4806 26.3124 14.5753 26.4616 14.5753C26.6106 14.4806 27.0581 14.3859 27.2071 14.4806C27.2817 14.5753 27.6546 14.7645 27.7291 14.7645C27.8037 14.67 28.0273 14.3859 28.1019 14.2914C28.1765 14.1967 28.6984 14.1967 28.8475 14.1967H29.2204C29.444 14.1967 29.8915 14.1967 30.1897 14.2914H30.4134C30.488 14.2914 30.5625 14.2914 30.6371 14.1967L31.159 13.8181C31.4572 14.102 31.7555 14.1967 31.7555 14.102C31.7555 14.0074 31.9046 13.7235 32.0537 13.8181H32.2774C32.4266 13.8181 32.6503 13.6288 32.7993 13.4396H33.1722C33.3213 13.2502 33.2468 13.061 33.1722 12.8716H33.023C32.7993 12.777 32.7993 12.9663 32.7249 13.1556C32.7249 13.2502 32.5011 13.2502 32.352 13.2502C32.0537 13.3449 31.7555 13.4396 31.6064 13.3449C31.3082 13.1556 31.0099 13.2502 30.7116 13.2502C30.4134 13.2502 30.1151 13.2502 29.8169 13.2502C29.5186 13.2502 29.2204 13.2502 28.9221 13.2502C28.4748 13.3449 28.3256 12.9663 28.1019 12.6824L27.8783 12.3984C27.58 12.3984 27.2817 12.4931 27.1327 12.4931C26.9835 12.5877 26.7598 12.5877 26.6106 12.5877C26.4616 12.5877 26.1633 12.3038 26.0142 12.2092C25.9396 12.1145 25.4177 11.9253 25.3431 12.0198L25.2685 12.1145C25.1939 12.3038 25.1939 12.3038 25.4922 12.3038C25.5668 12.3038 25.6414 12.3038 25.6414 12.3038C25.6414 12.3984 25.6414 12.5877 25.5668 12.5877C25.3431 12.5877 25.0449 12.777 25.0449 12.3984V12.2092C25.1195 11.9253 25.1195 11.7359 25.1939 11.6413C25.1939 11.5466 25.1939 11.452 25.1195 11.452H25.0449C24.9703 11.452 24.8958 11.452 24.7466 11.5466L24.3738 11.6413C24.5229 11.9253 24.4483 12.2092 24.2247 12.3038C24.001 12.3984 23.2553 12.3984 23.2553 12.3038V12.0198C23.3299 11.8306 23.2553 11.7359 23.1808 11.7359C23.1062 11.7359 22.808 11.5466 22.808 11.1681H22.7334L22.2861 11.452C22.4351 10.8841 22.7334 10.4109 22.8826 10.5055L23.0317 10.6002C23.1808 10.6948 23.3299 10.7895 23.4791 10.7895C23.5536 10.7895 23.7028 10.7895 23.7774 10.6948L23.9264 10.6002C24.1501 10.6002 24.4483 10.4109 24.5975 10.3163V10.127C24.4483 10.0323 24.1501 9.84304 24.001 9.84304L23.8518 9.93768C23.7774 10.0323 23.8518 10.3163 23.6282 10.2216L23.4045 10.127C23.2553 9.93768 23.0317 9.93768 22.9572 10.127C22.8826 10.3163 22.4351 10.127 22.5097 10.0323C22.5097 9.93768 22.5097 9.84304 22.4351 9.84304C22.3607 9.84304 22.0624 9.93768 22.0624 10.0323C22.0624 10.127 21.9132 10.4109 21.8387 10.4109C21.7641 10.3163 21.8387 10.2216 21.7641 10.127L21.5405 9.84304C21.1676 9.84304 20.8694 9.84304 20.7948 9.84304C20.7203 9.84304 20.6457 9.46445 20.944 9.08588L21.3167 9.27516L21.615 9.46445C21.9132 9.46445 22.2115 9.27517 22.2115 9.08588C22.2115 8.89659 22.1369 8.42337 22.0624 8.42337C21.9878 8.42337 21.6896 8.51801 21.7641 8.61265V8.80194C21.7641 8.89659 21.5405 8.99123 21.3913 8.99123C21.2422 8.89659 20.944 8.7073 21.093 8.61265V8.51802C21.093 8.42337 20.944 8.23408 20.8694 8.13943C20.8694 8.13943 20.6457 8.23408 20.5711 8.23408C20.4965 8.23408 20.3475 8.13943 20.2729 8.04479C20.2729 8.04479 20.3474 7.85549 20.422 7.85549C20.4965 7.85549 20.7948 7.95014 21.093 8.04479C21.3913 8.13943 22.3607 7.76086 22.4351 7.85549H22.5097C22.5843 7.85549 22.7334 7.76086 22.808 7.66621V7.47692C22.7334 7.38227 22.808 7.38227 22.8826 7.28763C22.9572 7.19298 23.2553 7.19298 23.3299 7.19298C23.4045 7.28763 23.6282 7.38227 23.7028 7.28763C23.7774 7.19298 24.0756 7.19298 24.1501 7.38227C24.2247 7.57157 24.5229 8.04479 24.5975 8.04479C24.5975 8.04479 24.5975 7.76086 24.5229 7.38227V6.90906C24.7466 6.71976 24.8958 6.71976 24.9703 6.71976V6.81441L25.0449 7.0037C25.1195 7.28763 25.2685 7.19298 25.4177 6.81441L25.6414 6.71976L25.865 6.53047C25.9396 6.24655 26.0887 6.05725 26.1633 6.1519C26.2379 6.24655 26.4616 6.43583 26.6852 6.43583L26.9835 6.62512C27.2071 6.71976 27.4308 6.62512 27.4308 6.43583C27.4308 6.24655 27.5054 6.05725 27.58 6.05725H27.6546C27.8783 6.1519 28.0273 6.34118 28.2511 6.34118C28.3256 6.34118 28.4748 5.96261 28.5492 5.96261H28.773C28.9967 5.96261 29.2204 5.96261 29.295 6.05725C29.3695 6.05725 29.5932 6.05725 29.5932 5.77331V5.58402L29.6677 5.39474C29.7423 5.20545 30.1897 5.1108 30.6371 5.3001L31.159 4.82687C31.4572 4.54294 31.6809 4.06971 32.2028 4.54294C32.4266 4.35365 32.7249 4.259 32.7993 4.44829L32.9485 4.54294L33.023 4.63759C33.0976 4.63759 33.3213 4.63759 33.4704 4.63759C33.6195 4.63759 34.067 4.44829 34.2906 4.35365C34.4397 4.259 35.1854 4.259 35.4091 4.259C35.6327 4.259 36.1546 3.88043 36.3038 4.06972C36.4529 4.16436 36.7512 4.63759 36.6766 4.73223C36.6766 4.82687 36.7512 5.20545 36.9003 5.20545H37.3477C37.5713 4.82687 37.795 4.44829 37.9442 4.259C38.0933 4.06972 38.4661 3.59649 38.5407 3.69114H38.6152L38.988 3.88043C38.9134 4.06972 38.7644 4.35365 38.6898 4.44829L38.5407 4.63759C38.6152 4.73223 38.6898 4.92151 38.7644 4.82687C38.839 4.82687 39.1372 4.54294 39.4354 4.259L39.8082 4.54294L39.8828 4.63759C39.9574 4.73223 40.1811 4.54294 40.2557 4.35365C40.3301 4.16436 40.7776 3.59649 40.9267 3.69114H41.0758L41.2995 3.78578C41.5232 3.97508 41.8214 4.06972 41.896 4.16436C42.0451 4.16436 41.9705 4.63759 42.0451 4.73223C42.1197 4.82687 42.2688 4.82687 42.3433 4.92151C42.3433 5.01616 42.6416 4.92151 42.7162 4.73223C42.7162 4.54294 43.2381 4.63759 43.3872 4.63759C43.4618 4.63759 43.9091 4.44829 44.282 4.54294H44.9531C45.3258 4.63759 45.6241 4.63759 45.6987 4.44829C45.7733 4.35365 45.475 3.78578 45.5496 3.69114ZM233.32 8.23408C233.469 7.95014 233.394 7.66621 233.096 7.47692H232.797L232.425 7.38227C232.053 7.38227 231.828 7.47692 231.977 7.57157C232.127 7.66621 233.171 8.51802 233.32 8.23408ZM236.899 10.9788C236.973 10.8841 236.899 10.5055 236.75 10.127H235.706C235.483 10.5055 235.408 10.9788 235.631 11.1681H235.706L235.929 11.0734C236.153 10.8841 236.377 10.7895 236.452 10.8841C236.526 11.0734 236.824 11.0734 236.899 10.9788ZM239.359 33.8827C239.434 33.8827 239.658 33.6935 239.807 33.4096C239.956 33.1256 239.508 32.4631 239.584 32.4631V32.2738C239.359 32.1792 239.136 32.1792 239.061 32.2738C238.987 32.3684 239.136 32.6524 239.21 32.747C239.285 32.8416 239.21 33.2202 239.285 33.4096C239.359 33.5041 239.285 33.8827 239.359 33.8827ZM28.8475 9.93768C28.8475 10.127 28.6984 10.127 28.6238 10.0323C28.4748 9.93768 28.5492 10.3163 28.9221 10.3163H29.2204L29.7423 10.4109C29.9659 10.0323 29.9659 9.84304 29.8169 9.93768C29.6677 10.0323 29.1458 9.84304 29.1458 9.74839C29.1458 9.65374 29.0713 9.36981 28.9967 9.36981C28.9221 9.36981 28.8475 9.74839 28.8475 9.93768ZM35.931 5.20545C36.0801 4.92151 35.8564 4.73223 35.4837 4.73223L35.2599 4.44829C35.1108 4.54294 34.9617 4.73223 34.9617 4.82687C34.9617 4.92151 35.4091 5.20545 35.5581 5.3001C35.5581 5.58402 35.6327 5.67867 35.8564 5.39474L35.931 5.20545ZM224.82 5.58402C224.82 5.39474 224.745 5.3001 224.671 5.48939C224.596 5.58402 224.372 5.77331 224.223 5.67867C224.074 5.58402 223.552 5.48939 223.626 5.58402C223.702 5.67867 223.702 5.77331 223.626 5.86796C223.552 5.96261 223.477 6.1519 223.851 6.05725L224 6.1519L224.223 6.24655C224.671 6.1519 224.894 5.77332 224.82 5.58402ZM239.508 29.7184C239.658 29.813 239.807 29.813 239.807 29.6237C239.881 29.4345 239.584 28.9612 239.508 28.8666L239.359 29.0559L239.061 29.3398C238.763 29.2451 238.464 29.2451 238.39 29.2451V29.4345C238.539 29.5291 238.763 29.7184 238.912 29.813H238.987C239.061 29.9077 239.434 29.6237 239.508 29.7184ZM31.6064 5.58402C31.8301 5.67867 32.0537 5.67867 32.0537 5.58402C32.0537 5.48939 32.1283 5.20545 32.1283 5.1108C32.2028 5.01616 32.0537 4.82687 31.8301 5.01616L31.6809 4.82687C31.4572 4.63759 31.3826 5.01616 31.2336 5.1108C31.0844 5.20545 31.0844 5.39474 31.2336 5.48939C31.3082 5.67867 31.3826 5.86796 31.6064 5.58402ZM220.421 26.3112C220.345 26.4059 220.421 26.4059 220.644 26.4059C220.868 26.4059 221.39 26.7845 221.613 26.7845C221.837 26.7845 221.911 26.2165 221.688 26.2165C221.316 26.2165 220.495 26.3112 220.421 26.3112ZM125.332 38.2364C125.183 38.1418 125.107 38.2364 125.107 38.331C125.107 38.4257 125.033 38.8043 124.958 38.8043C124.884 38.8043 124.66 38.8043 124.66 38.8989C124.66 38.9935 124.66 39.2775 124.735 39.2775C124.735 39.2775 125.183 39.1828 125.704 39.0882V38.7096C125.704 38.5204 125.406 38.2364 125.332 38.2364ZM211.324 1.70361C211.473 1.79825 211.697 1.79825 211.845 1.51431L211.92 1.32502C211.92 1.23038 211.92 1.04109 211.845 0.946445C211.771 0.757157 211.622 0.757157 211.399 0.851802L211.25 0.946445C211.025 1.04109 211.25 1.60896 211.324 1.70361ZM207.149 1.70361C207.447 1.60896 207.596 1.41967 207.596 1.32502C207.521 1.23038 207.074 0.946445 207 1.04109C206.85 1.13573 206.924 1.79825 207.149 1.70361ZM241.82 31.138C241.894 30.9488 241.745 30.8541 241.447 30.9488L241.224 31.0434C241.074 31.138 240.925 31.3273 241.15 31.5167L241.224 31.6113C241.298 31.8006 241.745 31.422 241.82 31.138ZM50.0233 3.78578C49.7996 3.88043 49.8742 4.06972 50.247 4.16436L50.4707 4.259C50.6943 4.35365 50.8435 4.16436 50.918 3.97508C50.9926 3.88043 50.9926 3.78578 50.918 3.69114C50.918 3.59649 50.1724 3.50185 50.0978 3.50185L50.0233 3.78578ZM23.6282 8.51802C23.6282 8.42337 23.4791 8.23408 23.3299 8.23408C23.1808 8.23408 22.9572 8.32872 22.808 8.42337C22.6589 8.61265 22.4351 9.18053 22.4351 9.27516H22.5843C22.6589 9.27516 23.0317 9.08588 23.4045 8.80194L23.6282 8.51802ZM48.2338 4.35365C48.2338 4.44829 48.3084 4.54294 48.5321 4.44829C48.6811 4.35365 49.1286 4.06972 49.203 3.97508L49.054 3.78578C48.9794 3.69114 49.054 3.4072 48.7557 3.50185L48.5321 3.59649C48.3829 3.78578 48.2338 4.259 48.2338 4.35365ZM119.291 2.27147C119.441 2.46076 119.516 2.46076 119.291 2.27147C119.142 2.08218 118.696 1.70361 118.621 1.79825C118.547 1.98753 118.621 2.46076 118.919 2.55541L118.993 2.46076L119.291 2.27147ZM62.7735 3.97508C62.7735 4.06972 62.9226 4.06972 63.0717 3.88043C63.2208 3.69114 63.2208 3.12327 63.0717 3.21792C62.8481 3.31256 62.4006 3.4072 62.4006 3.50185C62.4006 3.59649 62.4006 3.69114 62.4752 3.69114C62.5498 3.59649 62.7735 3.88043 62.7735 3.97508ZM89.2431 2.74469C88.7958 2.74469 88.572 2.83933 88.7212 3.12327L89.0195 3.02863C89.3177 2.93398 89.5414 2.83933 89.765 2.74469C89.765 2.74469 89.765 2.55541 89.765 2.46076L89.616 2.36612L89.2431 2.74469ZM20.7948 35.3024C20.8694 35.1131 20.944 34.7345 20.8694 34.5453L20.5711 34.64C20.4965 34.64 20.3475 34.9239 20.3475 34.7345C20.2729 34.4506 20.1983 34.3559 19.9746 34.5453H19.9C19.9746 34.7345 20.1983 35.0185 20.3475 35.2078L20.4965 35.3024H20.7948ZM217.289 24.9861C217.364 24.8915 217.215 24.7022 216.917 24.7022L216.618 24.8915C216.469 25.0808 216.469 25.3647 216.543 25.5541H216.767C216.917 25.4594 217.289 25.1755 217.289 24.9861ZM191.267 1.60896C191.341 1.41967 191.341 1.32502 191.118 1.41967C190.894 1.51431 190.447 1.41967 190.372 1.51431V1.60896C190.372 1.79825 190.298 1.98753 190.521 1.98753H190.67C190.819 2.17682 191.192 1.79825 191.267 1.60896ZM220.868 5.86796C220.644 5.67867 220.644 5.58402 220.868 5.77331C221.091 5.96261 221.762 6.1519 221.837 6.1519C221.911 6.05725 221.837 5.77331 221.465 5.67867L221.316 5.77331L220.868 5.86796ZM196.114 1.98753C196.337 2.08218 196.486 2.17682 196.412 2.08218C196.412 1.98753 196.486 1.70361 196.486 1.70361C196.486 1.60896 196.412 1.41967 196.188 1.41967C195.964 1.32502 195.889 1.89289 196.114 1.98753ZM121.976 2.08218C121.752 2.08218 121.826 2.27147 122.051 2.55541L122.274 2.65004H122.349C122.648 2.36612 122.2 2.08218 121.976 2.08218ZM49.1286 35.5863C48.9049 35.5863 48.8303 35.681 48.8303 35.8702C48.9049 36.0596 49.2032 36.3435 49.4268 36.2488C49.6505 36.1543 49.3522 35.5863 49.1286 35.5863ZM222.359 28.488C222.359 28.488 222.285 28.6773 222.21 28.772C222.061 28.8666 222.061 29.2451 222.21 29.1506L222.359 29.0559L222.583 28.9612C222.806 28.8666 222.956 28.6773 222.806 28.5827L222.657 28.488C222.583 28.488 222.583 28.3933 222.508 28.3933H222.434C222.359 28.3933 222.359 28.488 222.359 28.488ZM219.452 25.3647C219.675 25.3647 219.824 25.2702 219.675 25.0808C219.526 24.9861 218.929 25.0808 218.781 25.0808C218.482 25.1755 219.153 25.3647 219.452 25.3647ZM113.849 2.46076C114.072 2.74469 114.371 2.55541 114.52 2.08218L114.072 1.89289L113.998 1.79825C113.774 1.98753 113.625 2.17682 113.625 2.17682L113.849 2.46076ZM41.1503 8.89659C41.0758 8.99123 41.0758 9.08588 41.1503 9.18053C41.2249 9.27517 41.6724 9.46445 41.8214 9.5591H41.9705C42.0451 9.5591 42.1197 9.46445 42.1197 9.46445C42.1197 9.36981 42.1197 9.27516 42.1197 9.27516L41.896 9.08588C41.6722 8.89659 41.2995 8.80194 41.1503 8.89659ZM27.4308 10.3163C27.1327 9.93768 26.7598 9.93768 26.387 10.127C26.8344 10.6948 26.8344 10.6948 27.4308 10.3163Z" fill="#00FCC9"/>
</g>
</g>
</g>
<defs>
<clipPath id="clip0_14_14">
<rect width="244.41" height="39.94" fill="white" transform="translate(0.949951)"/>
</clipPath>
<clipPath id="clip1_14_14">
<rect width="244.41" height="39.94" fill="white" transform="translate(0.949951)"/>
</clipPath>
<clipPath id="clip2_14_14">
<rect width="244.339" height="39.94" fill="white" transform="translate(0.985596)"/>
</clipPath>
</defs>
</svg>
