<svg width="186" height="31" viewBox="0 0 186 31" fill="none" xmlns="http://www.w3.org/2000/svg">
<g clip-path="url(#clip0_14_91)">
<g clip-path="url(#clip1_14_91)">
<g clip-path="url(#clip2_14_91)">
<path d="M33.9507 2.80855C33.9507 2.73654 34.0074 2.59251 34.0641 2.59251C34.0641 2.59251 34.2911 2.59251 34.518 2.66452L34.8017 2.37647L34.9152 2.23244C35.0287 2.30446 35.2555 2.30446 35.4258 2.30446C35.596 2.30446 36.1065 1.94439 36.1633 2.01639V2.16042C36.1633 2.30446 36.3335 2.30446 36.5604 2.23244C36.7307 2.16042 37.5249 2.30446 37.7519 2.30446C37.9788 2.30446 38.6596 2.01639 38.8298 2.01639C39 2.01639 39.3404 2.23244 39.4539 2.23244C39.5673 2.23244 39.9078 2.01639 39.9645 2.01639C40.0212 2.01639 40.2481 2.01639 40.2481 1.87237C40.2481 1.72834 40.702 1.94439 40.8155 1.94439L40.929 1.87237C41.1559 1.72834 41.2126 1.80036 41.2693 2.01639L41.3261 2.16042C41.4963 1.94439 41.6665 1.80036 41.78 1.87237C41.8934 1.94439 42.2905 1.94439 42.5175 1.94439L42.6877 1.80036L42.8012 1.72834C42.9146 1.72834 43.1415 1.80036 43.2551 1.80036L43.1983 2.01639C43.3118 2.08841 43.3685 2.23244 43.482 2.37647C43.5954 2.30446 43.6522 2.23244 43.6522 2.08841C43.6522 2.01639 43.9359 1.87237 44.1628 1.80036L44.333 1.94439V2.01639C44.56 2.16042 44.7869 2.16042 44.9003 2.01639L45.0137 1.94439L45.0705 1.87237C45.184 1.87237 45.2407 1.94439 45.2407 2.01639V2.16042C45.2407 2.23244 45.2975 2.23244 45.411 2.23244L45.4676 2.30446C45.5244 2.23244 45.5812 2.08841 45.6379 2.01639L45.7513 1.87237C45.8648 1.94439 46.035 1.94439 46.0917 1.94439C46.1485 1.94439 46.5456 1.94439 46.8293 2.23244L47.2264 1.94439C47.2832 1.87237 47.4534 1.94439 47.4534 1.94439L47.6235 2.23244C47.8505 2.08841 48.0774 1.94439 48.1342 1.87237C48.1909 1.80036 48.4178 1.65633 48.4745 1.72834C48.5313 1.87237 48.7582 2.08841 48.9284 1.94439H49.0419L49.2688 1.87237C49.5525 1.87237 49.7794 1.87237 49.8362 1.80036C49.893 1.80036 50.1198 1.72834 50.2901 1.65633C50.4603 1.58431 51.0843 1.87237 51.1411 1.80036L51.1978 1.72834C51.3113 1.72834 51.368 1.72834 51.3113 1.87237V1.94439C51.3113 2.01639 51.4247 2.08841 51.4815 2.08841L51.6516 2.23244C51.6516 2.08841 51.7084 1.94439 51.7652 1.87237C51.8218 1.80036 52.1055 1.65633 52.3892 1.72834L52.6162 1.80036H52.6728C52.7296 1.87237 52.7296 1.94439 52.7296 1.94439C52.7296 1.94439 52.6162 2.08841 52.5594 2.30446C52.5027 2.5205 51.8786 2.44849 51.8218 2.44849V2.59251C51.8218 2.66452 52.1055 2.88057 52.3892 3.0246L52.7296 2.80855L52.8431 2.66452C53.0133 2.59251 53.0133 2.5205 52.8431 2.44849C52.6728 2.37647 52.8998 1.80036 53.0701 1.65633H53.297C53.6941 1.65633 54.0912 1.80036 54.4884 1.58431C54.6018 1.5123 54.8287 1.58431 54.9423 1.72834L55.0557 1.80036C55.1124 2.01639 55.1692 2.08841 55.2259 1.94439C55.2826 1.80036 55.5663 1.5123 55.7365 1.58431C55.9067 1.58431 56.4741 1.5123 56.5875 1.29626L56.7577 1.44028H56.8145C56.8712 1.5123 56.9279 1.65633 57.0414 1.80036L57.2116 1.65633H57.2683C57.3818 1.65633 57.4953 1.72834 57.4953 1.87237C57.4953 1.94439 57.6087 2.16042 57.6655 2.08841V2.01639C57.6655 1.94439 57.6655 1.87237 57.6655 1.87237C57.7222 1.72834 57.8356 1.72834 57.9492 1.80036C58.2328 2.01639 58.0058 1.58431 58.1761 1.58431H58.2895C58.403 1.5123 58.6299 1.58431 58.8002 1.65633L58.9704 1.5123C59.0271 1.44028 59.1405 1.44028 59.1405 1.44028L59.4809 1.87237C59.7079 1.5123 59.9916 1.36827 60.1617 1.58431C60.3319 1.72834 60.956 1.58431 61.0695 1.65633C61.1829 1.72834 61.6936 1.5123 61.9773 1.5123L62.2042 1.36827H62.2609C62.3176 1.44028 62.6013 1.5123 62.7715 1.58431L63.1119 1.5123L63.3956 1.44028C63.4523 1.65633 63.5658 1.72834 63.6793 1.58431C63.7927 1.5123 64.2466 1.58431 64.3034 1.58431C64.36 1.58431 64.587 1.44028 64.8139 1.36827L65.2678 1.5123C65.5515 1.5123 65.7784 1.5123 65.8351 1.5123C65.8919 1.58431 66.0054 1.58431 66.062 1.5123C66.1188 1.44028 66.4592 1.22424 66.5159 1.29626C66.5727 1.36827 66.7996 1.58431 66.9131 1.65633C67.0266 1.72834 67.4805 1.65633 67.7074 1.5123C67.9343 1.44028 68.5016 1.5123 68.6151 1.5123C68.7286 1.5123 69.1257 1.36827 69.1825 1.44028C69.2959 1.5123 69.5796 1.65633 69.6364 1.65633H69.693L69.8633 1.5123C70.0901 1.5123 70.3738 1.58431 70.4306 1.58431C70.4874 1.58431 70.771 1.5123 70.9412 1.5123C71.1114 1.5123 71.5086 1.5123 71.5086 1.29626L71.8489 1.5123L71.9057 1.58431C71.9624 1.58431 72.1326 1.65633 72.3028 1.65633C72.473 1.65633 72.9836 1.72834 73.1538 1.58431C73.324 1.5123 73.8346 1.36827 73.9481 1.36827L74.0048 1.44028C74.1183 1.58431 74.2318 1.72834 74.4587 1.65633H74.6289C74.7424 1.5123 74.8558 1.36827 74.9126 1.36827H75.1962C75.4231 1.29626 75.7636 1.22424 75.9338 1.15223L76.0472 1.36827C76.1607 1.58431 76.3877 1.65633 76.6146 1.44028L77.6358 1.29626H77.9195C78.2599 1.29626 78.6002 1.36827 78.7138 1.29626C78.8272 1.29626 79.1109 1.5123 79.1109 1.36827C79.1109 1.22424 79.2243 1.15223 79.3378 1.36827C79.4512 1.58431 80.1321 1.36827 80.4158 1.36827C80.6427 1.36827 81.3802 1.22424 81.437 1.15223L81.8341 1.5123C82.3447 1.44028 82.8553 1.44028 82.8553 1.44028C83.0256 1.29626 83.139 1.15223 83.3659 1.29626L83.4794 1.36827C83.7063 1.29626 84.0468 1.15223 84.2737 1.15223H84.7276C85.0112 1.15223 85.2949 1.22424 85.3516 1.29626C85.4083 1.36827 85.5786 1.44028 85.5786 1.44028C85.5786 1.36827 85.8055 1.22424 85.919 1.22424C86.0891 1.22424 86.543 1.15223 86.6565 1.22424V1.58431C86.8267 1.5123 87.1671 1.44028 87.394 1.36827L87.621 1.5123C87.7344 1.58431 87.9047 1.58431 87.9613 1.5123C88.1315 1.36827 88.3018 1.36827 88.5287 1.36827H88.6989C88.9259 1.29626 89.1528 1.22424 89.2096 1.15223C89.323 1.15223 89.6071 1.29626 89.7769 1.29626C89.9467 1.29626 90.4008 1.22424 90.5143 1.22424C90.5715 1.22424 90.7985 1.08021 90.8548 1.15223C90.9111 1.22424 91.3089 1.5123 91.5922 1.72834L91.6494 1.15223C91.6494 1.15223 91.8193 1.08021 91.8756 1.15223L92.3296 1.36827C92.5567 1.29626 93.067 1.22424 93.4648 1.15223H93.9189C93.9752 1.29626 94.372 1.36827 94.8261 1.29626H95.2229C95.3365 1.29626 95.3365 1.5123 95.1666 1.58431L95.1094 1.65633C94.9968 1.65633 94.9968 1.72834 95.1094 1.80036C95.2229 1.87237 95.45 1.87237 95.45 1.72834C95.45 1.58431 95.5635 1.15223 95.7342 1.15223C95.904 1.15223 96.4716 1.29626 96.6414 1.29626H96.8122C96.982 1.29626 97.209 1.29626 97.3789 1.36827L97.6631 1.5123C97.9464 1.36827 98.2298 1.22424 98.4005 1.15223C98.514 1.08021 98.741 1.44028 98.741 1.44028C98.741 1.44028 98.9109 1.36827 98.9681 1.29626L99.0816 1.44028C99.2514 1.58431 99.3649 1.58431 99.4212 1.29626V1.22424C99.5348 1.15223 99.7055 1.15223 99.7618 1.29626C99.819 1.44028 100.273 1.36827 100.499 1.29626C100.726 1.29626 101.407 1.22424 101.521 1.22424L101.577 1.08021C101.577 1.08021 101.804 1.0082 101.804 1.08021C101.861 1.15223 101.861 1.44028 102.088 1.29626L102.202 1.22424C102.258 1.0082 102.485 0.936182 102.712 1.08021L102.939 1.22424C102.996 1.22424 103.563 1.15223 103.62 1.15223C103.79 1.0082 103.96 0.792156 104.017 1.22424C104.074 1.22424 104.187 1.29626 104.301 1.29626C104.414 1.29626 104.755 1.36827 104.755 1.36827C104.811 1.29626 104.925 1.15223 104.925 1.08021C104.925 1.08021 105.095 0.936182 105.265 0.864171C105.436 0.792156 105.833 1.0082 105.889 0.936182C105.889 0.864171 106.173 0.864171 106.229 0.936182C106.287 1.0082 106.627 1.22424 106.74 1.15223C106.797 1.08021 107.08 0.936182 107.138 1.0082C107.194 1.08021 107.365 1.15223 107.421 1.08021C107.421 1.0082 107.592 0.864171 107.705 1.0082H108.045C108.102 1.15223 108.216 1.22424 108.329 1.08021C108.385 0.936182 108.67 0.648128 108.67 0.720142C108.67 0.792156 143.918 0.864171 143.975 0.864171C144.088 0.792156 144.315 0.720142 144.372 0.792156V0.864171C144.429 1.08021 144.599 1.08021 144.655 0.936182C144.712 0.576114 144.939 0.576114 145.109 0.720142L145.28 0.864171C145.45 0.792156 145.733 0.720142 145.96 0.648128L146.131 0.864171C146.3 1.08021 146.471 1.15223 146.697 0.936182C146.697 0.936182 146.811 0.936182 146.811 1.0082L146.982 1.22424C147.038 1.15223 147.151 1.0082 147.209 0.864171H147.492C147.775 0.936182 148.002 0.936182 148.06 0.936182C148.116 0.936182 148.287 0.864171 148.4 0.864171C148.514 0.864171 148.91 1.15223 149.08 1.0082C149.194 0.936182 149.648 0.792156 149.705 0.936182C149.761 1.08021 150.272 0.792156 150.556 0.792156C150.783 0.792156 151.407 0.936182 151.407 0.864171C151.407 0.792156 151.52 0.504099 151.577 0.648128V0.792156C151.577 0.864171 151.747 0.936182 151.974 0.936182C152.144 0.936182 152.598 1.15223 152.485 1.22424C152.371 1.29626 151.123 1.36827 150.839 1.44028C150.556 1.5123 150.612 1.65633 150.783 1.65633L150.953 1.72834C151.009 1.65633 151.18 1.5123 151.293 1.44028C151.463 1.36827 151.634 1.87237 151.747 1.87237C151.804 1.87237 151.917 1.72834 151.861 1.58431V1.5123C151.917 1.22424 151.917 1.29626 151.747 1.22424L151.634 0.792156C151.463 0.864171 151.236 0.936182 151.236 0.936182H151.18L150.953 1.08021C151.18 1.0082 151.52 1.08021 151.747 1.22424C151.974 1.36827 152.428 1.44028 152.598 1.36827C152.712 1.29626 153.222 1.44028 153.336 1.36827C153.449 1.29626 153.449 1.0082 153.392 0.936182C153.392 0.936182 153.165 0.792156 153.109 0.792156C152.995 0.792156 152.882 0.720142 152.995 0.648128C153.109 0.576114 153.506 0.288057 153.506 0.288057C153.506 0.216043 153.79 0.288057 153.846 0.288057C153.903 0.288057 154.073 0.576114 154.13 0.648128C154.187 0.792156 154.697 1.0082 154.697 1.08021C154.754 1.15223 154.811 0.864171 154.754 0.792156H154.697L154.527 0.720142C154.357 0.648128 154.243 0.504099 154.3 0.360071V0.288057C154.243 0.216043 154.187 0.0720142 154.357 0.144028L154.584 0.216043C154.868 0.288057 155.207 0.360071 155.321 0.360071C155.492 0.432085 156.173 0.216043 156.229 0.144028C156.343 0.0720142 156.512 0.0720142 156.683 0L156.797 0.0720142H156.853L156.91 0.144028C157.024 0.288057 157.137 0.288057 157.194 0.216043C157.251 0.144028 157.534 0.144028 157.648 0.216043C157.761 0.288057 158.215 0.144028 158.385 0.288057L158.555 0.432085C158.555 0.432085 158.499 0.576114 158.499 0.648128V0.720142C158.499 0.792156 158.555 0.720142 158.612 0.576114C158.668 0.432085 159.066 0.288057 159.009 0.288057C159.009 0.216043 159.066 0.144028 159.18 0.144028C159.293 0.144028 159.803 0.360071 160.031 0.432085C160.258 0.504099 160.881 0.288057 160.881 0.360071C160.881 0.432085 161.051 0.432085 160.995 0.504099C160.995 0.576114 160.824 0.648128 160.768 0.720142C160.711 0.792156 160.881 1.29626 161.222 1.36827L161.336 1.08021L161.449 0.864171C161.278 0.504099 161.278 0.216043 161.505 0.216043L161.562 0.288057C161.675 0.432085 161.732 0.648128 161.959 0.648128C161.959 0.648128 161.959 0.648128 161.959 0.720142C162.016 1.08021 162.016 1.08021 162.356 1.15223H162.527C162.753 1.22424 162.924 1.15223 162.924 1.0082C162.924 0.864171 162.98 0.432085 163.094 0.432085L163.207 0.576114C163.321 0.720142 163.321 0.864171 163.207 0.936182C163.094 0.936182 163.094 1.36827 163.207 1.36827C163.321 1.36827 163.605 1.15223 163.661 1.15223C163.718 1.22424 163.888 1.36827 163.945 1.29626H164.002C164.058 1.22424 164.115 1.15223 164.172 1.08021C164.229 1.0082 164.512 1.29626 164.569 1.22424C164.626 1.15223 164.853 0.936182 164.966 1.0082C165.08 1.08021 165.42 1.15223 165.477 1.08021C165.534 1.0082 165.704 0.864171 165.761 0.936182C165.761 1.0082 165.931 1.29626 165.987 1.29626H166.044L166.441 1.08021C166.782 1.29626 167.122 1.5123 167.178 1.5123C167.236 1.58431 167.405 1.65633 167.405 1.58431C167.405 1.58431 167.463 1.36827 167.463 1.29626C167.463 1.15223 167.803 1.29626 167.916 1.29626C168.029 1.36827 168.256 1.29626 168.256 1.36827C168.256 1.44028 168.597 1.29626 168.654 1.22424C168.768 1.15223 169.165 1.08021 169.278 1.0082L169.334 0.936182C169.392 0.936182 169.448 0.864171 169.448 0.864171L169.788 1.22424C169.846 0.864171 170.015 0.648128 170.185 0.720142C170.356 0.792156 170.639 1.29626 170.639 1.22424C170.639 1.15223 170.697 1.0082 170.753 0.936182C170.866 1.08021 171.037 1.15223 171.15 1.29626C171.207 1.36827 171.093 1.44028 171.093 1.58431V1.65633C171.093 1.72834 171.207 1.87237 171.263 1.87237L171.32 1.80036C171.547 1.58431 171.661 1.65633 171.717 1.94439C171.831 1.94439 171.944 1.87237 171.944 1.80036C171.944 1.72834 171.944 1.5123 171.888 1.5123C171.831 1.5123 171.944 1.22424 172.058 1.22424C172.171 1.22424 172.398 1.58431 172.455 1.80036V2.01639C172.455 2.08841 172.341 2.23244 172.228 2.23244H171.944C171.604 2.16042 171.32 2.23244 171.377 2.30446C171.377 2.44849 171.888 2.5205 171.944 2.59251C172.002 2.73654 172.058 2.95258 172.058 3.0246C172.058 3.09662 171.944 3.38467 171.888 3.5287L171.831 3.67272C171.717 3.81675 171.604 3.96078 171.434 4.0328C171.434 4.0328 171.377 3.88877 171.377 3.74474C171.377 3.60071 171.15 3.16862 171.037 3.24064C170.924 3.31265 170.697 3.60071 170.753 3.67272L170.866 3.81675C170.924 3.88877 170.98 3.96078 170.924 3.96078C170.866 4.0328 170.81 4.17683 170.866 4.24883C170.924 4.32085 171.944 4.46488 171.888 4.5369C171.831 4.5369 171.774 4.68093 171.888 4.60891C172.058 4.60891 172.171 4.96898 172.228 4.96898C172.285 4.96898 172.398 4.89696 172.398 4.89696C172.398 4.82495 172.398 4.75294 172.512 4.82495H172.625C172.909 5.04099 173.022 5.18503 172.909 5.18503C172.795 5.18503 172.455 5.32906 172.455 5.40106C172.455 5.47308 172.568 5.68912 172.682 5.83315C172.795 5.97718 173.249 6.04919 173.249 5.97718C173.249 5.90517 173.476 5.83315 173.646 5.90517C173.76 5.97718 174.044 5.97718 173.987 5.83315C173.93 5.68912 174.327 5.11301 174.497 4.82495H174.951C175.008 4.60891 175.122 4.5369 175.122 4.60891C175.122 4.68093 175.235 4.96898 175.292 4.89696C175.348 4.82495 175.575 4.68093 175.746 4.82495C175.859 4.96898 176.313 5.18503 176.483 5.18503C176.597 5.11301 176.994 4.82495 177.334 4.89696L177.617 4.96898C177.617 4.96898 177.675 4.89696 177.675 4.82495C177.731 4.75294 177.788 4.68093 177.844 4.68093H178.015C177.958 4.82495 177.902 5.04099 177.844 5.11301C177.788 5.18503 177.844 5.61711 178.129 5.76114L178.298 5.32906C178.356 5.25704 178.526 5.18503 178.639 5.11301C178.695 5.11301 178.809 5.18503 178.809 5.25704C178.866 5.32906 178.866 5.47308 178.98 5.32906C179.093 5.25704 179.207 5.18503 179.263 5.32906C179.32 5.47308 179.376 5.61711 179.32 5.68912C179.263 5.90517 179.093 6.04919 178.98 6.19322L178.866 6.33725C178.922 6.48128 179.207 6.69732 179.376 6.84135C179.603 6.91337 180 6.98538 180.171 6.98538C180.341 6.98538 180.908 7.41747 181.022 7.5615C181.135 7.70552 181.59 7.77753 181.646 7.84955C181.703 7.92156 181.646 8.20963 181.646 8.49768L181.816 8.78574L181.873 8.85775C181.929 9.00179 181.816 9.14578 181.646 9.21782L181.532 9.36182C181.363 9.57786 181.363 9.57786 181.249 9.43386L181.192 9.36182L180.965 9.43386C180.851 9.6499 180.738 9.72194 180.681 9.57786C180.625 9.43386 180.114 9.43386 180 9.43386C179.887 9.43386 179.49 9.6499 179.66 9.72194C179.83 9.79389 180.171 10.082 180.114 10.2261L180.285 10.298L180.512 10.4421C180.681 10.2261 180.795 10.082 180.795 10.082C180.795 10.082 180.908 10.2261 181.022 10.298C181.135 10.298 181.022 10.7301 180.851 10.7301L180.625 11.0182C180.512 11.2342 180.512 11.4502 180.568 11.5223C180.625 11.5223 180.681 11.8104 180.512 12.0264C180.341 12.2424 179.944 12.7465 180 12.7465C180.058 12.7465 180.171 12.8905 180.114 13.0345H179.944C179.831 13.1066 179.66 13.2506 179.603 13.4667L179.773 13.6107C179.83 13.6827 179.603 14.5469 179.547 14.5469L179.376 14.6909C179.207 14.835 179.093 14.979 179.093 15.123C179.093 15.195 178.866 15.555 178.809 15.6991L178.582 15.9872C178.695 16.2032 178.753 16.5633 178.753 16.7793L178.695 16.9953L178.639 17.2834C178.866 17.2834 178.922 17.4274 178.809 17.4995C178.695 17.5715 178.298 17.8595 178.129 17.8595H177.675C177.504 18.0756 177.278 18.2196 177.164 18.2917C176.993 18.0036 176.824 18.4356 176.653 18.2917C176.483 18.1476 176.313 18.1476 176.143 18.0755C176.086 18.2917 175.916 18.3636 175.746 18.2196C175.575 18.1476 175.178 18.3636 175.178 18.3636C175.065 18.2196 174.895 18.3636 174.781 18.2917L174.554 18.1476C174.384 18.2917 174.044 18.2196 173.817 18.1476L173.59 18.3636L173.533 18.4356C173.419 18.4356 173.079 18.2917 172.795 18.1476L172.512 18.3636L172.455 18.4356C172.341 18.4356 172.171 18.4356 172.058 18.4356C171.944 18.4356 171.547 18.2917 171.49 18.2917C171.377 18.2917 171.093 18.2917 170.98 18.3636C170.866 18.4356 170.356 18.3636 170.185 18.3636H169.959C169.846 18.3636 169.732 18.3636 169.675 18.2917L169.505 18.1476C169.392 18.2196 169.107 18.3636 168.881 18.4356L168.71 18.5077C168.654 18.5077 168.597 18.5796 168.597 18.6517L168.483 18.7957C168.427 18.6517 168.314 18.5796 168.256 18.5796C168.2 18.5796 167.973 18.9398 167.973 19.2278V19.5879C167.576 19.5879 167.178 19.6599 167.122 19.6599L167.178 19.5879L167.519 19.2278C167.519 19.5158 167.576 19.7319 167.69 19.7319C167.803 19.7319 167.803 19.3718 167.803 19.2278C167.803 19.0838 167.632 18.7237 167.576 18.7237C167.519 18.6517 167.292 18.8677 167.178 19.0117C167.065 19.1558 167.69 19.6599 168.143 19.8039L168.256 19.6599L168.427 19.5158C168.541 19.2278 168.824 19.0838 168.994 19.1558C169.165 19.2278 169.619 19.5158 169.619 19.2998L169.675 19.1558V19.0838C169.788 19.0838 169.902 19.0838 169.902 19.1558C169.902 19.2278 169.902 19.3718 169.959 19.3718C170.015 19.3718 170.242 19.4439 170.185 19.5158H169.959C169.788 19.6599 169.732 19.876 169.902 19.876L169.959 19.8039L170.185 19.5879C170.412 19.5879 170.753 19.6599 170.866 19.6599C170.98 19.7319 171.32 19.4439 171.377 19.4439H171.434L171.547 19.5158C171.661 19.5879 171.888 19.6599 172.058 19.5879L172.171 19.7319C172.228 19.8039 172.341 19.7319 172.398 19.7319H172.455C172.512 19.7319 172.568 19.8039 172.568 19.876V20.0199C172.568 20.1639 172.455 20.3801 172.341 20.5961H171.888C171.547 20.5961 171.604 20.8121 172.001 21.1001H172.568C172.682 20.9561 172.852 20.8121 172.966 20.8121L173.136 21.0282C173.136 21.3162 173.249 21.5322 173.306 21.6763H173.419C173.476 21.6763 173.533 21.5322 173.476 21.4603V21.3882C173.419 21.3162 173.249 21.3162 173.136 21.3882L172.966 21.3162C172.852 21.3162 172.739 21.4603 172.512 21.3882L172.228 21.3162C171.831 21.3882 171.434 21.6763 171.32 21.8203L171.547 22.1084C171.661 22.1084 171.944 21.9644 172.171 21.6763L172.512 21.8203L173.079 22.2524L173.363 21.8923C173.249 21.6763 173.193 21.3162 173.249 21.2442C173.306 21.1001 173.646 20.8841 173.817 21.1001L173.873 21.2442C173.93 21.3162 173.873 21.4603 173.817 21.5322L173.76 21.6043C173.703 21.9644 173.817 22.2524 173.987 22.1804C174.157 22.1084 174.441 22.6845 174.384 22.7565C174.327 22.8285 174.044 23.1166 174.214 23.0446C174.384 22.9725 175.859 22.7565 176.143 22.6844C176.37 22.5404 176.086 22.4684 175.746 22.5404L175.461 22.6844L175.405 22.7565C175.292 22.7565 175.235 22.7565 175.235 22.6844C175.235 22.6125 175.235 22.4684 175.122 22.4684C175.008 22.6125 174.951 22.7565 174.838 22.9006L174.781 22.9725C174.838 23.1166 175.065 23.2606 175.235 23.3326C175.405 23.4046 175.689 22.9725 175.746 22.9725C175.802 22.9006 175.916 22.9725 175.973 23.2606L176.256 23.1166L176.426 23.0446C176.086 22.9725 175.519 22.9006 175.235 22.7565C174.951 22.6845 174.951 22.3244 175.065 22.2524C175.122 22.1804 175.348 21.8923 175.348 21.8923C175.405 22.0363 175.405 22.2524 175.461 22.3244L175.689 22.4684C175.689 22.2524 175.746 22.0363 175.802 21.9644C175.859 21.8923 176.539 22.0363 176.993 22.1804L177.448 21.8923L177.617 21.8203C177.617 21.9644 177.617 22.1804 177.675 22.1804C177.731 22.2524 177.958 22.3244 177.958 22.2524C177.958 22.1084 178.185 21.9644 178.356 22.0363C178.526 22.1084 178.412 22.6845 178.469 22.7565C178.582 22.8285 179.093 22.9006 179.547 22.6844L179.944 22.5404H180C180.114 22.6844 180.285 22.8285 180.285 22.7565C180.341 22.6845 180.454 22.6125 180.454 22.5404L180.285 22.3964C180.114 22.2524 179.887 22.1804 179.773 22.1804H179.66C179.603 22.1804 179.547 22.1804 179.49 22.1804C179.149 21.9644 179.207 22.2524 179.207 22.4684V22.5404C179.149 22.6125 179.149 22.5404 179.149 22.3964C179.149 22.2524 178.809 22.2524 178.753 22.1804V22.1084C178.753 22.0363 178.866 21.9644 178.922 21.9644C179.093 22.0363 179.263 21.6763 179.49 21.9644C179.717 21.8203 179.944 21.7483 179.944 21.8923L180 21.9644H180.058C180.171 21.8923 180.341 21.8203 180.454 21.7483C180.568 21.6763 180.908 21.5322 180.908 21.6763C180.965 21.8203 181.078 22.1084 181.135 22.0363H181.192L181.476 21.9644C181.816 21.8203 182.213 21.8203 182.383 21.8923C182.383 22.1804 182.497 22.4684 182.27 22.6844C182.27 22.6844 182.27 22.8285 182.327 22.9006C182.383 22.9006 182.497 22.9006 182.497 22.9006C182.554 22.7565 182.61 22.6125 182.724 22.5404L182.781 22.4684C182.837 22.3964 182.894 22.3964 182.951 22.4684C182.951 22.5404 183.121 22.8285 183.178 22.8285C183.234 22.8285 183.461 22.8285 183.518 22.9006C183.575 22.9725 183.745 23.0446 183.802 23.0446C183.802 22.9725 183.915 22.9006 183.972 22.9725C184.029 23.0446 184.369 23.1886 184.483 22.9725L184.653 22.8285C184.766 22.9725 184.823 23.1166 184.766 23.1886C184.71 23.2606 184.596 23.4766 184.71 23.4766C184.823 23.4766 185.05 23.6206 184.993 23.6927C184.936 23.7647 184.936 24.0528 185.05 24.1247C185.163 24.1968 185.277 24.3408 184.993 24.4849L184.766 24.6289C184.71 24.7009 184.596 24.7729 184.596 24.8449C184.596 24.9169 184.596 25.0609 184.596 25.133C184.653 25.205 184.766 25.205 184.88 25.205L185.05 25.133C185.05 24.9889 185.107 24.7729 185.163 24.7009H185.22C185.39 24.6289 185.958 24.8449 185.958 25.0609V25.133C185.844 25.205 185.674 25.349 185.561 25.4211C185.447 25.493 185.163 25.8531 185.163 25.8531C185.163 25.9251 185.05 25.9251 184.993 25.709H184.823C184.653 25.8531 184.653 25.9971 184.71 26.0692C184.766 26.1411 185.05 26.6452 185.05 27.0054V27.7975C184.71 28.0135 184.426 28.1576 184.426 28.0855C184.426 28.0135 184.312 27.8695 184.256 27.9415C184.199 28.0135 184.199 28.3736 184.142 28.3736C184.085 28.3736 183.858 28.5176 183.972 28.6617H184.029C184.142 28.6617 184.312 28.5176 184.426 28.5176C184.539 28.5176 184.71 28.4456 184.71 28.6617C184.71 28.8057 184.653 28.9497 184.596 28.9497L184.369 29.0217C184.142 29.0938 183.915 28.8777 183.972 28.5176L183.575 28.5897L183.291 28.6617C183.405 28.9497 183.405 29.1657 183.291 29.1657C183.178 29.1657 182.781 29.1657 182.781 29.0217C182.781 28.9497 182.667 28.8057 182.554 28.8777C182.44 29.0217 182.156 29.3098 182.156 29.1657C182.156 29.0938 182.043 28.8057 181.986 28.8777C181.929 28.9497 181.476 29.1657 181.192 29.1657L180.738 29.4538C180.512 29.4538 180.171 29.4538 179.944 29.4538H179.66C179.603 29.4538 179.32 29.4538 179.093 29.3818C178.866 29.3098 178.185 29.5258 178.129 29.4538C178.071 29.4538 177.788 29.3818 177.675 29.3818C177.561 29.3818 177.164 29.3818 177.051 29.3098C176.937 29.2378 176.483 29.5978 176.313 29.6698L176.256 29.3098V29.1657C176.086 29.2378 175.916 29.3098 175.802 29.3818C175.689 29.4538 175.519 29.5978 175.461 29.5259C175.405 29.4538 174.951 29.5259 174.838 29.5978C174.724 29.5978 174.327 29.5259 174.27 29.5259C174.214 29.5259 173.987 29.6698 173.93 29.7419C173.873 29.8138 173.646 29.6698 173.59 29.6698C173.533 29.6698 173.193 29.7419 173.022 29.8138C172.795 29.9579 172.115 29.5978 171.888 29.5978C171.661 29.5978 171.093 29.9579 171.037 29.9579C170.924 29.9579 170.583 29.9579 170.469 30.1019L170.185 29.8859C170.072 29.8139 169.788 29.9579 169.619 29.9579C169.448 29.9579 169.278 29.8859 169.107 29.8859C168.994 29.8859 168.881 29.9579 168.71 29.9579L168.427 30.03C168.427 29.8138 168.427 29.7419 168.427 29.8859C168.427 30.03 167.973 29.8859 167.803 29.9579H167.632L167.009 29.8859C166.328 29.8139 165.59 29.8138 165.307 29.8138C165.08 29.8138 164.399 30.03 164.342 30.03C164.285 30.03 164.058 30.1019 163.831 30.1019L163.775 30.03C163.605 29.8138 163.378 30.03 163.207 29.9579L162.98 29.8138C162.753 29.8138 162.47 29.8138 162.3 29.8138C162.186 29.8138 161.675 30.03 161.336 30.1019L161.051 29.9579L160.881 29.8859C160.597 29.9579 160.314 29.9579 160.2 29.9579C160.087 29.8859 159.86 30.03 159.803 29.9579C159.746 29.8859 159.519 29.7419 159.406 29.8138C159.293 29.8859 158.839 30.1019 158.726 30.1019C158.612 30.1019 158.271 30.03 158.215 29.9579C158.102 29.8859 157.59 30.1019 157.251 30.174C156.91 30.246 156.059 30.03 156.002 30.1019C155.946 30.174 155.662 29.9579 155.548 29.9579C155.492 29.9579 155.265 30.03 155.265 29.9579C155.207 29.8859 155.151 29.8139 155.095 29.8859C155.095 29.9579 154.868 30.03 154.754 29.9579C154.584 29.8859 154.13 30.1019 154.017 30.1019L153.96 30.03C153.676 29.8138 153.506 29.8138 153.222 30.03C152.995 30.174 152.768 29.8139 152.598 29.8859C152.371 30.03 152.144 30.1019 151.974 30.03C151.804 29.9579 151.747 29.9579 151.634 30.03C151.577 30.03 151.35 29.9579 151.35 29.9579C151.236 30.174 151.123 29.8859 151.009 29.9579C150.896 30.1019 150.896 30.03 150.783 29.9579L150.612 29.8138C150.385 29.8859 149.875 29.9579 149.478 30.03C149.08 30.1019 147.775 30.03 147.605 30.1019H146.982C146.528 30.1019 146.017 30.174 145.904 30.246C145.79 30.318 145.223 30.174 144.996 30.1019H144.768C144.541 30.1019 144.258 30.1019 143.975 30.1019H108.726C108.67 29.9579 108.612 29.8859 108.556 29.8859C108.556 29.8859 108.385 29.9579 108.329 30.03C108.272 30.1019 107.989 30.246 107.931 30.174C107.875 30.1019 107.307 30.246 106.911 30.246C106.514 30.246 105.379 30.1019 105.265 30.1019C105.152 30.1019 104.697 30.246 104.585 30.1019C104.471 30.03 104.017 30.246 103.847 30.246C103.733 30.246 103.223 30.318 103.053 30.318C102.882 30.318 102.372 30.174 102.258 30.174C102.145 30.246 101.691 30.246 101.577 30.174C101.464 30.1019 100.84 30.246 100.613 30.174L100.386 30.1019L100.216 30.03C99.8753 30.1019 99.3077 30.246 98.9109 30.246C98.514 30.246 97.1527 30.318 96.8685 30.318L96.755 29.8859C96.5279 29.8859 96.4144 29.9579 96.4144 30.03C96.4144 30.1019 96.4144 30.246 96.3009 30.246C96.1874 30.246 95.677 30.318 95.5072 30.39L95.1666 30.174C95.1094 30.1019 94.9968 29.9579 94.8833 29.9579C94.8261 30.03 94.7698 30.174 94.7698 30.174L94.145 30.03C93.4648 30.174 92.8972 30.174 92.8972 30.1019C92.8972 30.03 92.7274 29.7419 92.6139 29.8138H92.5004C92.2161 29.8138 92.3296 30.03 92.2161 30.1019C92.1026 30.174 91.9891 30.1019 91.8756 30.174C91.763 30.174 91.5922 30.246 91.4787 30.318H91.4224C91.3089 30.246 91.1382 30.246 91.0247 30.174C90.9111 30.1019 90.5715 30.246 90.458 30.246C90.4008 30.318 90.0039 30.174 89.8904 30.246C89.7769 30.318 89.1528 30.318 88.8124 30.39L88.5287 30.1019C88.472 30.03 88.245 30.03 88.1883 30.1019L87.9047 30.318C87.621 30.246 87.2806 30.1019 87.1103 30.1019V30.174C86.9402 30.534 86.7132 30.1019 86.543 30.246L86.3728 30.39C86.2027 30.246 85.8055 30.1019 85.5218 30.03L85.2949 30.246L85.1247 30.39C85.0112 30.174 84.7276 30.03 84.5573 30.1019L84.5006 30.174C84.3871 30.39 84.2737 30.1019 84.1602 30.174H84.1035C84.0468 30.174 83.8198 30.174 83.5929 30.1019C83.3659 30.03 82.1178 30.246 82.061 30.246C81.8909 30.1019 81.7207 29.9579 81.5505 30.174C81.3235 30.39 81.3235 30.03 81.0966 30.1019L80.9263 30.174C80.6995 30.1019 80.2456 30.03 79.8485 30.1019H79.508C79.2811 30.1019 78.9975 30.174 78.9407 30.03L78.7705 29.7419C78.6002 29.8859 78.4301 29.9579 78.3733 29.9579C78.3166 29.9579 78.0897 29.9579 77.9195 29.9579H77.7492C77.6358 29.9579 77.4656 30.03 77.3521 30.1019C77.2954 30.03 77.2387 29.8859 77.1819 29.8138C77.1252 29.7419 76.955 29.9579 76.8982 30.1019H76.5579C76.3309 30.1019 75.9905 30.174 75.7636 30.174L75.3097 30.03C75.0828 30.03 74.8558 29.9579 74.7991 29.8859C74.7991 29.8139 74.7424 29.5978 74.7424 29.5978C74.7424 29.5978 74.6857 29.6698 74.6857 29.7419C74.6857 29.8138 74.5155 30.1019 74.402 30.03L74.3452 29.9579C74.1183 29.6698 74.1183 29.6698 73.8346 29.9579H73.7779C73.7211 29.9579 73.4942 30.03 73.2106 30.03C72.9269 30.03 72.1894 29.7419 72.0759 29.8138C71.9624 29.8859 71.7922 29.7419 71.9057 29.6698C71.9624 29.5978 72.1326 29.3098 71.9624 29.3818C71.7922 29.4538 71.4518 29.7419 71.395 29.8138H71.3384C71.2249 29.8138 71.1114 29.7419 70.9979 29.7419C70.8845 29.7419 70.771 29.8138 70.7143 29.8138C70.6008 29.8138 70.4306 29.8138 70.3171 29.8138L69.9767 29.5978C69.5796 29.6698 69.1825 29.8138 69.069 29.8138L68.9555 29.7419C68.7853 29.6698 68.3881 29.5978 68.2179 29.6698L67.8776 29.8138C67.5939 29.6698 67.3103 29.5978 67.2535 29.6698C67.1968 29.7419 66.4592 29.6698 66.0054 29.6698H65.3246C64.9842 29.6698 64.4735 29.7419 64.1898 29.8138L63.9062 29.7419C63.736 29.6698 63.3388 29.5258 63.2254 29.4538C63.1686 29.3818 62.9985 29.4538 62.9985 29.4538C62.9417 29.7419 62.8283 29.8139 62.6013 29.5978C62.6013 29.5978 62.3176 29.6698 62.0339 29.7419L61.807 29.6698C61.5234 29.5978 61.2964 29.5258 61.0695 29.7419C61.0127 29.8138 60.8426 29.7419 60.7291 29.6698H60.6156C60.5022 29.5978 60.3319 29.6698 60.2753 29.7419C60.1617 29.8138 59.6512 29.6698 59.5377 29.6698C59.4242 29.6698 58.8002 29.6698 58.5165 29.7419L58.2895 29.5259C58.2895 29.5259 58.2328 29.5978 58.1761 29.5978L57.552 29.7419C57.2116 29.6698 56.8712 29.5978 56.8145 29.5259C56.7577 29.5259 56.3038 29.5978 55.9067 29.5978L55.5096 29.6698H55.4528C55.3961 29.5259 55.2826 29.4538 55.2826 29.5259C55.2826 29.6698 54.6018 29.7419 54.2047 29.7419L53.9777 29.5978C53.8643 29.6698 53.6374 29.6698 53.4104 29.6698L53.1835 29.5978C53.0133 29.5259 52.8998 29.9579 52.6728 29.6698C52.6162 29.5978 52.5027 29.6698 52.446 29.6698C52.3892 29.6698 52.3325 29.7419 52.2757 29.6698H52.1623C52.0488 29.6698 51.8218 29.6698 51.6516 29.7419L51.5382 29.5978C51.368 29.3098 51.2545 29.7419 51.0276 29.5978C50.8006 29.4538 50.9141 29.1657 50.8006 29.0217C50.744 28.9497 50.5737 28.9497 50.4603 29.0217L50.2901 29.0938C50.1198 29.2378 50.0064 29.3818 50.0631 29.4538C50.1198 29.4538 50.0631 29.5978 49.893 29.5978L49.7227 29.5259C49.6093 29.5259 49.4957 29.4538 49.3823 29.4538H49.0419C48.815 29.1657 48.6447 29.0217 48.6447 29.1657C48.6447 29.2378 48.4745 29.6698 48.2476 29.6698C48.0207 29.6698 47.5668 29.3818 47.5668 29.3818L47.4534 29.5259C47.3966 29.5259 47.1697 29.5978 46.9427 29.5978C46.7159 29.5978 46.0917 29.4538 46.035 29.3818C45.9783 29.3098 45.7513 29.3098 45.7513 29.3818C45.7513 29.4538 45.411 29.5258 45.411 29.4538C45.411 29.4538 45.3542 29.2378 45.2975 29.0217L44.9571 29.2378C44.7869 29.3818 44.6166 29.3818 44.4464 29.4538H44.333C44.1628 29.4538 44.0493 29.3098 44.0493 29.1657V29.0217C44.0493 28.8777 44.0493 28.7337 43.8791 28.7337C43.6522 28.7337 43.7656 28.9497 43.7656 29.0217V29.0938C43.7089 29.1657 43.6522 29.1657 43.5954 29.0938C43.5387 29.0217 43.3118 28.9497 43.1983 29.0938V29.3098C43.1415 29.3818 43.0849 29.3818 43.0281 29.3818H42.9714C42.9146 29.3098 42.8579 29.1657 42.8012 29.0217C42.7444 28.8777 42.4608 28.8057 42.5175 28.8777C42.5742 28.9497 42.5175 29.2378 42.1771 29.4538L41.8934 29.1657L41.78 29.0217C41.6665 29.0938 41.4963 29.1657 41.3829 29.2378C41.2693 29.3098 40.7588 29.0217 40.702 29.0217H40.5885C40.5318 29.0217 40.5318 29.0938 40.5318 29.1657C40.5318 29.1657 40.3616 29.3818 40.0212 29.4538L39.851 29.3098L39.5673 29.1657C39.2836 29.2378 39.1134 29.2378 39.1134 29.1657C39.1702 29.0938 39 28.6617 38.6596 28.4456L38.2624 28.7337L37.9788 28.8777C37.5817 28.7337 37.298 28.5897 37.4114 28.5897L37.5249 28.3016C37.8085 28.3736 38.0355 28.4456 38.0923 28.4456C38.149 28.4456 38.149 28.1576 37.8653 28.2295V28.1576L37.5249 27.8695C37.4114 28.1576 37.3548 28.3016 37.298 28.2295C37.298 28.1576 37.1845 28.0135 37.1278 28.0135C37.0711 28.0135 36.8441 28.1576 36.8441 28.2295C36.8441 28.3016 36.6172 28.5176 36.5037 28.5897C36.3902 28.7337 36.1633 29.3098 36.1633 29.1657C36.1633 29.0217 35.9931 28.7337 35.9363 28.7337C35.8229 28.7337 35.5392 28.6617 35.4825 28.6617C35.4258 28.6617 35.2555 28.7337 35.369 28.7337C35.4258 28.8057 35.6527 28.9497 35.7094 29.0217V29.0938C35.7094 29.0938 35.6527 29.1657 35.596 29.1657L35.4258 29.0938C35.1989 29.0217 35.0853 28.8777 35.0853 28.7337C35.0853 28.5897 35.0287 28.3736 34.9152 28.4456C34.8017 28.5176 34.745 28.8777 34.6882 28.9497C34.6315 29.0217 34.2911 29.0217 34.2911 29.0217C34.2343 29.0217 34.1777 28.7337 34.2911 28.5176C34.4045 28.3016 34.4613 27.7975 34.2911 28.0135C34.1209 28.2295 33.667 28.7337 33.5535 28.6617C33.4401 28.5897 33.2131 28.8777 33.2131 28.9497C33.1564 29.0217 32.7593 29.0938 32.7025 28.9497C32.6458 28.8057 33.1564 28.5897 33.2699 28.5176C33.3833 28.4456 33.7804 28.3016 33.7804 28.2295C33.8372 28.1576 33.8372 27.9415 33.8372 27.8695C33.7804 27.8695 33.667 27.8695 33.6103 27.8695L33.4968 28.0135C33.3833 28.1576 33.2699 28.3016 33.2699 28.3016C33.2131 28.3016 33.1564 28.2295 33.0997 28.0855C33.0997 28.0135 32.9294 27.7255 32.8728 27.6535C32.816 27.5814 32.6458 27.3654 32.5891 27.4374C32.5323 27.4374 32.3621 27.6535 32.2487 27.7975H32.6458C32.7593 28.0135 32.8728 28.2295 32.8728 28.2295C32.8728 28.2295 32.7593 28.3736 32.6458 28.3736H32.4189C32.3054 28.3736 32.1919 28.4456 32.1919 28.5176C32.1352 28.5176 31.965 28.4456 31.9082 28.5176C31.8515 28.5897 31.6813 28.5897 31.6246 28.5176C31.5679 28.3736 31.2842 28.1576 31.114 28.3016L30.887 28.4456C30.7736 28.3736 30.6033 28.2295 30.4332 28.0855L30.2062 27.7975C30.036 27.8695 29.8091 28.0135 29.7523 28.0855L29.5822 28.3016C29.4687 28.5176 29.2985 28.5897 29.1283 28.5176C28.9581 28.4456 28.6744 28.1576 28.561 28.1576C28.4475 28.0855 28.1638 28.0855 28.2206 28.2295L28.1638 28.3016C28.1071 28.3736 27.9369 28.4456 27.8801 28.5176C27.9369 28.5897 27.9369 28.7337 27.8801 28.7337C27.8234 28.7337 27.71 28.6616 27.6532 28.5897C27.5964 28.5176 27.1993 28.1576 26.8589 28.2295L26.9157 28.6617C26.9157 28.8057 26.5752 28.8777 26.5186 28.7337C26.4618 28.5897 26.4618 28.5176 26.632 28.4456C26.6888 28.4456 26.8022 28.3016 26.7454 28.2295L26.6888 28.0135C26.632 28.1576 26.4051 28.2295 26.2349 28.1576C26.0647 28.1576 25.5541 28.3736 25.4406 28.3016H25.3839C25.3271 28.3016 25.1569 28.2295 25.1002 28.3016L24.8732 28.4456C24.6463 28.3736 24.3627 28.2295 24.3627 28.2295C24.3059 28.2295 24.079 28.2295 23.852 28.3016L23.6818 28.1576L23.6251 28.0855C23.5117 28.0135 23.3981 28.0855 23.3981 28.2295C23.3981 28.3016 23.1712 28.6617 22.9443 28.6617C22.7173 28.6617 22.2068 28.5897 22.15 28.6617V28.7337L22.0933 28.8057C22.0366 28.8777 22.0366 28.8777 21.9798 28.8057V28.7337L21.9231 28.8777C21.8663 28.8057 21.6395 28.8057 21.4125 28.9497L21.2422 28.7337C21.1288 28.8777 20.9586 28.9497 20.8451 28.8777C20.7317 28.8057 20.448 28.8777 20.2778 28.8777C20.1076 28.8057 19.6537 29.0217 19.5402 29.0938C19.4268 29.0938 19.0297 29.0217 18.8595 29.0938L18.6892 28.8777L18.519 28.7337C18.2921 28.8057 17.9517 28.9497 17.7248 28.9497L17.3844 29.0938C17.2141 29.0217 16.9872 28.8057 16.8738 28.7337L16.7036 28.9497C16.5901 29.1657 16.4766 28.8777 16.3631 28.8777C16.2497 28.8777 16.0228 29.0217 15.966 29.0217C15.7391 28.8777 15.5689 28.8777 15.3419 28.8777C15.0583 28.8777 14.7746 28.7337 14.5477 29.0217C14.4909 29.0217 14.3207 28.9497 14.2073 28.8777C14.0938 28.8057 13.5832 28.7337 13.3563 28.8777L13.1294 28.8057C12.7322 28.7337 12.2784 28.5897 11.8811 28.4456C11.7677 28.4456 11.7677 28.2295 11.6543 28.1576C11.5975 28.0855 11.5408 28.0135 11.484 28.0135C11.3706 28.0135 11.2571 28.0855 11.2004 28.0855H11.1436C11.0869 27.9415 10.9735 27.7975 10.8033 27.7255C10.633 27.6535 10.2359 27.7255 10.1225 27.7975L10.0089 27.7255C9.782 27.5814 9.55505 27.5095 9.10126 27.5095C9.0445 27.5095 8.98775 27.3654 8.98775 27.2933C9.10126 27.1494 9.27144 27.0773 8.93102 27.0054C8.76082 27.0054 8.81755 26.7893 8.93102 26.7173L8.98775 26.6452C9.0445 26.5733 9.0445 26.4292 8.98775 26.3572C8.93102 26.2852 9.15793 26.1411 9.21469 26.2132C9.27144 26.2852 9.61181 26.1411 9.66857 26.2852L9.72533 26.3572C9.782 26.4292 9.72533 26.5012 9.72533 26.5733C9.72533 26.6452 9.83875 26.6452 9.89551 26.7173H9.95227C10.0089 26.7173 10.1225 26.5733 10.2359 26.4292C10.3494 26.2852 10.5196 25.7811 10.4628 25.709C10.4061 25.5651 9.95227 25.709 9.83875 25.6371V25.5651L9.782 25.349C9.66857 25.133 9.55505 25.0609 9.49839 25.205C9.44163 25.277 9.38487 25.709 9.27144 25.5651C9.15793 25.4211 8.59062 25.205 8.47715 25.133C8.36368 25.0609 8.64735 24.7009 8.76082 24.8449C8.87428 24.9169 9.21469 25.133 9.27144 25.133C9.3282 25.0609 9.44163 24.8449 9.49839 24.7009L9.72533 24.8449C9.782 24.9169 9.95227 24.9169 9.95227 24.8449C10.0089 24.7009 10.0089 24.6289 9.83875 24.5568L9.72533 24.4849C9.61181 24.2688 9.61181 24.0528 9.72533 23.9807L9.83875 23.8367C9.83875 23.6927 9.72533 23.6206 9.66857 23.5487C9.61181 23.5487 9.27144 23.3326 8.98775 23.2606L8.81755 23.9087C8.53388 23.8367 8.36368 23.6927 8.47715 23.6206C8.59062 23.5487 8.70408 23.4766 8.70408 23.4046C8.64735 23.4046 8.47715 23.1886 8.36368 23.0446L8.13674 22.9006C8.02327 22.9725 7.79634 22.9006 7.68287 22.8285H7.56941C7.39921 22.8285 7.28573 22.8285 7.11553 22.8285C6.83186 22.8285 6.60493 22.7565 6.32126 22.8285C6.09432 22.9006 5.92412 22.6845 5.64046 22.7565C5.52699 22.7565 5.35678 22.6844 5.24331 22.6125L5.07311 22.4684C4.84618 22.4684 4.50577 22.3964 4.2221 22.3964C4.0519 22.3244 3.20089 21.8923 2.91723 21.7483L2.63355 21.6763H2.46335C2.23642 21.6763 1.95275 21.6042 1.83928 21.5322L1.27194 21.1722C1.32868 20.8121 1.44214 20.452 1.49888 20.308L1.15848 20.3801C0.988274 20.3801 0.874802 20.308 0.931536 20.1639V20.0199C0.988274 19.876 0.931536 19.7319 0.874802 19.6599C0.818069 19.5879 0.7046 19.3718 0.761335 19.3718C0.818069 19.2998 1.10174 19.0838 1.15848 19.0117L0.988274 18.9398C0.818069 18.8677 0.761335 18.7957 0.818069 18.6517L0.931536 18.4356C0.818069 18.3636 0.591133 17.8595 0.477665 17.3555L0.137261 16.9233C0.250729 16.6353 0.307463 16.4193 0.193996 16.4193C0.137261 16.4193 -0.0329405 16.2752 0.0805273 16.2032C0.193996 16.0591 0.0805274 15.6991 0.137261 15.6991C0.193996 15.6991 0.420931 15.411 0.364197 15.267L0.307463 15.123C0.250729 14.9069 0.137261 14.7629 0.193996 14.5469C0.193996 14.4028 0.364197 14.1868 0.477665 14.0428C0.591133 13.7547 0.874802 13.8267 0.931536 13.7547L1.045 13.5387C1.21521 13.5387 1.38541 13.6107 1.44214 13.6107C1.49888 13.6107 1.89601 13.1786 2.00948 13.1786C2.12295 13.1786 2.52008 13.0345 2.63355 13.0345L2.80375 12.9626C2.91723 12.9626 3.14416 13.1066 3.25763 13.0345C3.42783 12.9626 3.48456 12.9626 3.65476 13.0345C3.76824 13.1066 3.93844 13.0345 4.0519 13.0345L4.3923 12.8185C4.33557 13.0345 4.61924 12.9626 4.90291 12.6745L5.35678 12.7465H5.41351C5.52699 12.6745 5.64046 12.6745 5.69719 12.6745C5.75392 12.6745 6.15105 12.6745 6.43473 12.4585L6.83186 12.6745C6.94533 12.7465 7.28574 12.5305 7.34247 12.6025L7.56941 12.8185C7.73961 12.6745 8.02327 12.4585 8.19347 12.3864L8.36368 12.3145C8.53388 12.2424 8.76082 12.2424 8.93102 12.3145C9.21469 12.3864 9.49839 12.4585 9.782 12.2424L10.0089 12.0983C10.2926 12.0983 10.5763 12.0983 10.633 12.1704L10.7465 12.3145C10.8033 12.4585 10.9735 12.3864 11.0869 12.2424C11.2004 12.0983 11.8245 12.2424 12.0514 12.2424C12.2784 12.2424 12.9024 11.9544 13.0726 11.8823H13.2428C13.5832 11.8823 13.7534 11.8823 13.9236 11.8104C13.9804 11.8104 14.037 11.7383 14.0938 11.7383H14.2073C14.3207 11.6663 14.5477 11.5943 14.6611 11.5223H14.8881C15.0016 11.6663 15.0583 11.5943 15.0583 11.3783L15.3419 11.4502C15.5121 11.4502 15.7391 11.5223 15.9093 11.3783H16.0228C16.0228 11.5223 16.0228 11.6663 16.1929 11.5943C16.2497 11.5943 16.3065 11.3783 16.3631 11.3062C16.5334 11.2342 16.7603 11.1622 16.9872 11.0902H17.2141C17.4978 11.1622 17.7815 11.0902 17.895 11.0902C18.0085 11.0182 18.4056 10.9461 18.4623 11.0182C18.5758 11.0182 18.9162 11.0182 18.9162 11.0182C18.9729 10.9461 19.1431 10.8742 19.1431 10.9461C19.1431 11.0182 19.3133 11.0902 19.4268 11.0902C19.5402 11.0182 19.8807 10.9461 19.9941 11.0182C20.0509 11.0902 20.3346 11.2342 20.3912 11.2342C20.448 11.1622 20.6182 10.9461 20.6749 10.8742C20.7317 10.8021 21.1288 10.8021 21.2422 10.8021H21.5259C21.6961 10.8021 22.0366 10.8021 22.2635 10.8742H22.4337C22.4905 10.8742 22.5471 10.8742 22.6039 10.8021L23.001 10.514C23.228 10.7301 23.4549 10.8021 23.4549 10.7301C23.4549 10.6581 23.5683 10.4421 23.6818 10.514H23.852C23.9655 10.514 24.1357 10.3701 24.2492 10.2261H24.5329C24.6463 10.082 24.5896 9.93798 24.5329 9.79389H24.4193C24.2492 9.72194 24.2492 9.86593 24.1925 10.01C24.1925 10.082 24.0222 10.082 23.9088 10.082C23.6818 10.154 23.4549 10.2261 23.3415 10.154C23.1145 10.01 22.8876 10.082 22.6607 10.082C22.4337 10.082 22.2068 10.082 21.9798 10.082C21.7529 10.082 21.5259 10.082 21.299 10.082C20.9586 10.154 20.8451 9.86593 20.6749 9.6499L20.5048 9.43386C20.2778 9.43386 20.0509 9.5059 19.9374 9.5059C19.8239 9.57786 19.6537 9.57786 19.5402 9.57786C19.4268 9.57786 19.1999 9.36182 19.0864 9.28987C19.0297 9.21782 18.6325 9.07383 18.5758 9.14578L18.519 9.21782C18.4623 9.36182 18.4623 9.36182 18.6892 9.36182C18.746 9.36182 18.8027 9.36182 18.8027 9.36182C18.8027 9.43386 18.8027 9.57786 18.746 9.57786C18.5758 9.57786 18.3488 9.72194 18.3488 9.43386V9.28987C18.4056 9.07383 18.4056 8.92976 18.4623 8.85775C18.4623 8.78573 18.4623 8.71373 18.4056 8.71373H18.3488C18.2921 8.71373 18.2354 8.71372 18.1219 8.78574L17.8382 8.85775C17.9517 9.07383 17.895 9.28987 17.7248 9.36182C17.5546 9.43386 16.9872 9.43386 16.9872 9.36182V9.14578C17.044 9.00179 16.9872 8.92976 16.9305 8.92976C16.8738 8.92976 16.6468 8.78573 16.6468 8.49768H16.5901L16.2497 8.71373C16.3631 8.28163 16.5901 7.92156 16.7036 7.99358L16.817 8.06559C16.9305 8.13761 17.044 8.20963 17.1575 8.20963C17.2141 8.20963 17.3277 8.20962 17.3844 8.13761L17.4978 8.06559C17.668 8.06559 17.895 7.92156 18.0085 7.84955V7.70552C17.895 7.63351 17.668 7.48948 17.5546 7.48948L17.4411 7.5615C17.3844 7.6335 17.4411 7.84955 17.2709 7.77753L17.1007 7.70552C16.9872 7.5615 16.817 7.5615 16.7603 7.70552C16.7036 7.84955 16.3631 7.70552 16.4199 7.63351C16.4199 7.5615 16.4199 7.48948 16.3631 7.48948C16.3065 7.48948 16.0795 7.5615 16.0795 7.63351C16.0795 7.70552 15.966 7.92156 15.9093 7.92156C15.8526 7.84955 15.9093 7.77753 15.8526 7.70552L15.6824 7.48948C15.3987 7.48948 15.1718 7.48948 15.115 7.48948C15.0583 7.48948 15.0016 7.20142 15.2285 6.91337L15.5121 7.05739L15.7391 7.20142C15.966 7.20142 16.1929 7.0574 16.1929 6.91337C16.1929 6.76934 16.1362 6.40927 16.0795 6.40927C16.0228 6.40927 15.7958 6.48128 15.8526 6.55329V6.69732C15.8526 6.76934 15.6824 6.84135 15.5689 6.84135C15.4555 6.76934 15.2285 6.62531 15.3419 6.55329V6.48128C15.3419 6.40927 15.2285 6.26524 15.1718 6.19322C15.1718 6.19322 15.0016 6.26524 14.9448 6.26524C14.8881 6.26524 14.7746 6.19322 14.7179 6.12121C14.7179 6.12121 14.7746 5.97718 14.8314 5.97718C14.8881 5.97718 15.115 6.04919 15.3419 6.12121C15.5689 6.19322 16.3065 5.90517 16.3631 5.97718H16.4199C16.4766 5.97718 16.5901 5.90517 16.6468 5.83315V5.68912C16.5901 5.61711 16.6468 5.61711 16.7036 5.54509C16.7603 5.47308 16.9872 5.47308 17.044 5.47308C17.1007 5.54509 17.2709 5.61711 17.3277 5.54509C17.3844 5.47308 17.6114 5.47308 17.668 5.61711C17.7248 5.76114 17.9517 6.12121 18.0085 6.12121C18.0085 6.12121 18.0085 5.90517 17.9517 5.61711V5.25704C18.1219 5.11301 18.2354 5.11301 18.2921 5.11301V5.18503L18.3488 5.32906C18.4056 5.54509 18.519 5.47308 18.6325 5.18503L18.8027 5.11301L18.9729 4.96898C19.0297 4.75294 19.1431 4.60891 19.1999 4.68093C19.2566 4.75294 19.4268 4.89696 19.597 4.89696L19.8239 5.04099C19.9941 5.11301 20.1643 5.04099 20.1643 4.89696C20.1643 4.75294 20.2211 4.60891 20.2778 4.60891H20.3346C20.5048 4.68093 20.6182 4.82495 20.7885 4.82495C20.8451 4.82495 20.9586 4.5369 21.0153 4.5369H21.1856C21.3558 4.5369 21.5259 4.5369 21.5827 4.60891C21.6395 4.60891 21.8096 4.60891 21.8096 4.39287V4.24883L21.8663 4.10481C21.9231 3.96078 22.2635 3.88877 22.6039 4.0328L23.001 3.67272C23.228 3.45668 23.3981 3.09661 23.7953 3.45668C23.9655 3.31265 24.1925 3.24064 24.2492 3.38467L24.3627 3.45668L24.4193 3.5287C24.4761 3.5287 24.6463 3.5287 24.7598 3.5287C24.8732 3.5287 25.2137 3.38467 25.3839 3.31265C25.4973 3.24064 26.0647 3.24064 26.2349 3.24064C26.4051 3.24064 26.8022 2.95258 26.9157 3.09662C27.0291 3.16862 27.2561 3.5287 27.1993 3.60071C27.1993 3.67272 27.2561 3.96078 27.3696 3.96078H27.71C27.8801 3.67272 28.0503 3.38467 28.1638 3.24064C28.2773 3.09662 28.561 2.73654 28.6177 2.80855H28.6744L28.9581 2.95258C28.9013 3.09662 28.7879 3.31265 28.7311 3.38467L28.6177 3.5287C28.6744 3.60071 28.7311 3.74474 28.7879 3.67272C28.8447 3.67272 29.0716 3.45668 29.2985 3.24064L29.5822 3.45668L29.6389 3.5287C29.6957 3.60071 29.8659 3.45668 29.9226 3.31265C29.9793 3.16862 30.3197 2.73654 30.4332 2.80855H30.5467L30.7169 2.88057C30.887 3.0246 31.114 3.09662 31.1707 3.16862C31.2842 3.16862 31.2274 3.5287 31.2842 3.60071C31.3409 3.67272 31.4544 3.67272 31.5111 3.74474C31.5111 3.81675 31.7381 3.74474 31.7948 3.60071C31.7948 3.45668 32.1919 3.5287 32.3054 3.5287C32.3621 3.5287 32.7025 3.38467 32.9862 3.45668H33.4968C33.7804 3.5287 34.0074 3.5287 34.0641 3.38467C34.1209 3.31265 33.894 2.88057 33.9507 2.80855ZM176.824 6.26524C176.937 6.04919 176.88 5.83315 176.653 5.68912H176.426L176.143 5.61711C175.859 5.61711 175.689 5.68912 175.802 5.76114C175.916 5.83315 176.71 6.48128 176.824 6.26524ZM179.547 8.35365C179.603 8.28163 179.547 7.99358 179.434 7.70552H178.639C178.469 7.99358 178.412 8.35365 178.582 8.49768H178.639L178.809 8.42566C178.98 8.28163 179.149 8.20963 179.207 8.28163C179.263 8.42566 179.49 8.42566 179.547 8.35365ZM181.419 25.7811C181.476 25.7811 181.646 25.6371 181.759 25.4211C181.873 25.205 181.532 24.7009 181.59 24.7009V24.5568C181.419 24.4849 181.249 24.4849 181.192 24.5568C181.135 24.6289 181.249 24.8449 181.305 24.9169C181.363 24.9889 181.305 25.277 181.363 25.4211C181.419 25.493 181.363 25.7811 181.419 25.7811ZM21.2422 7.5615C21.2422 7.70552 21.1288 7.70552 21.0721 7.63351C20.9586 7.5615 21.0153 7.84955 21.299 7.84955H21.5259L21.9231 7.92156C22.0933 7.63351 22.0933 7.48948 21.9798 7.5615C21.8663 7.6335 21.4692 7.48948 21.4692 7.41747C21.4692 7.34545 21.4125 7.1294 21.3558 7.1294C21.299 7.1294 21.2422 7.41747 21.2422 7.5615ZM26.632 3.96078C26.7454 3.74474 26.5752 3.60071 26.2916 3.60071L26.1214 3.38467C26.0079 3.45668 25.8945 3.60071 25.8945 3.67272C25.8945 3.74474 26.2349 3.96078 26.3483 4.0328C26.3483 4.24883 26.4051 4.32085 26.5752 4.10481L26.632 3.96078ZM170.356 4.24883C170.356 4.10481 170.299 4.0328 170.242 4.17683C170.185 4.24883 170.015 4.39287 169.902 4.32085C169.788 4.24883 169.392 4.17683 169.448 4.24883C169.505 4.32085 169.505 4.39287 169.448 4.46488C169.392 4.5369 169.334 4.68093 169.619 4.60891L169.732 4.68093L169.902 4.75294C170.242 4.68093 170.412 4.39287 170.356 4.24883ZM181.532 22.6125C181.646 22.6844 181.759 22.6844 181.759 22.5404C181.816 22.3964 181.59 22.0363 181.532 21.9644L181.419 22.1084L181.192 22.3244C180.965 22.2524 180.738 22.2524 180.681 22.2524V22.3964C180.795 22.4684 180.965 22.6125 181.078 22.6844H181.135C181.192 22.7565 181.476 22.5404 181.532 22.6125ZM23.3415 4.24883C23.5117 4.32085 23.6818 4.32085 23.6818 4.24883C23.6818 4.17683 23.7386 3.96078 23.7386 3.88877C23.7953 3.81675 23.6818 3.67272 23.5117 3.81675L23.3981 3.67272C23.228 3.5287 23.1712 3.81675 23.0578 3.88877C22.9443 3.96078 22.9443 4.10481 23.0578 4.17683C23.1145 4.32085 23.1712 4.46488 23.3415 4.24883ZM167.009 20.0199C166.951 20.092 167.009 20.092 167.178 20.092C167.349 20.092 167.746 20.3801 167.916 20.3801C168.087 20.3801 168.143 19.9479 167.973 19.9479C167.69 19.9479 167.065 20.0199 167.009 20.0199ZM94.6563 29.0938C94.5427 29.0217 94.4855 29.0938 94.4855 29.1657C94.4855 29.2378 94.4292 29.5259 94.372 29.5259C94.3157 29.5259 94.145 29.5259 94.145 29.5978C94.145 29.6698 94.145 29.8859 94.2022 29.8859C94.2022 29.8859 94.5427 29.8138 94.9396 29.7419V29.4538C94.9396 29.3098 94.7126 29.0938 94.6563 29.0938ZM160.087 1.29626C160.2 1.36827 160.371 1.36827 160.484 1.15223L160.541 1.0082C160.541 0.936182 160.541 0.792156 160.484 0.720142C160.427 0.576114 160.314 0.576114 160.144 0.648128L160.031 0.720142C159.86 0.792156 160.031 1.22424 160.087 1.29626ZM156.91 1.29626C157.137 1.22424 157.251 1.08021 157.251 1.0082C157.194 0.936182 156.853 0.720142 156.797 0.792156C156.683 0.864171 156.739 1.36827 156.91 1.29626ZM183.291 23.6927C183.348 23.5487 183.234 23.4766 183.007 23.5487L182.837 23.6206C182.724 23.6927 182.61 23.8367 182.781 23.9807L182.837 24.0528C182.894 24.1968 183.234 23.9087 183.291 23.6927ZM37.3548 2.88057C37.1845 2.95258 37.2412 3.09662 37.5249 3.16862L37.6951 3.24064C37.8653 3.31265 37.9788 3.16862 38.0355 3.0246C38.0923 2.95258 38.0923 2.88057 38.0355 2.80855C38.0355 2.73654 37.4682 2.66452 37.4114 2.66452L37.3548 2.88057ZM17.2709 6.48128C17.2709 6.40927 17.1575 6.26524 17.044 6.26524C16.9305 6.26524 16.7603 6.33725 16.6468 6.40927C16.5334 6.55329 16.3631 6.98538 16.3631 7.05739H16.4766C16.5334 7.05739 16.817 6.91337 17.1007 6.69732L17.2709 6.48128ZM35.9931 3.31265C35.9931 3.38467 36.0499 3.45668 36.22 3.38467C36.3335 3.31265 36.6739 3.09662 36.7306 3.0246L36.6172 2.88057C36.5604 2.80855 36.6172 2.59251 36.3902 2.66452L36.22 2.73654C36.1065 2.88057 35.9931 3.24064 35.9931 3.31265ZM90.0602 1.72834C90.1737 1.87237 90.2309 1.87237 90.0602 1.72834C89.9467 1.58431 89.6071 1.29626 89.5499 1.36827C89.4935 1.5123 89.5499 1.87237 89.7769 1.94439L89.8332 1.87237L90.0602 1.72834ZM47.0562 3.0246C47.0562 3.09662 47.1697 3.09662 47.2832 2.95258C47.3966 2.80855 47.3966 2.37647 47.2832 2.44849C47.113 2.5205 46.7725 2.59251 46.7725 2.66452C46.7725 2.73654 46.7725 2.80855 46.8293 2.80855C46.886 2.73654 47.0562 2.95258 47.0562 3.0246ZM67.1968 2.08841C66.8564 2.08841 66.6861 2.16043 66.7996 2.37647L67.0266 2.30446C67.2535 2.23244 67.4237 2.16042 67.5939 2.08841C67.5939 2.08841 67.5939 1.94439 67.5939 1.87237L67.4805 1.80036L67.1968 2.08841ZM15.115 26.8613C15.1718 26.7173 15.2285 26.4292 15.1718 26.2852L14.9448 26.3572C14.8881 26.3572 14.7746 26.5733 14.7746 26.4292C14.7179 26.2132 14.6611 26.1411 14.4909 26.2852H14.4342C14.4909 26.4292 14.6611 26.6452 14.7746 26.7893L14.8881 26.8613H15.115ZM164.626 19.0117C164.683 18.9398 164.569 18.7957 164.342 18.7957L164.115 18.9398C164.002 19.0838 164.002 19.2998 164.058 19.4439H164.229C164.342 19.3718 164.626 19.1558 164.626 19.0117ZM144.826 1.22424C144.882 1.08021 144.882 1.0082 144.712 1.08021C144.542 1.15223 144.202 1.08021 144.145 1.15223V1.22424C144.145 1.36827 144.088 1.5123 144.258 1.5123H144.372C144.485 1.65633 144.768 1.36827 144.826 1.22424ZM167.349 4.46488C167.178 4.32085 167.178 4.24883 167.349 4.39287C167.519 4.5369 168.029 4.68093 168.087 4.68093C168.143 4.60891 168.087 4.39287 167.803 4.32085L167.69 4.39287L167.349 4.46488ZM148.514 1.5123C148.683 1.58431 148.797 1.65633 148.741 1.58431C148.741 1.5123 148.797 1.29626 148.797 1.29626C148.797 1.22424 148.741 1.08021 148.57 1.08021C148.4 1.0082 148.343 1.44028 148.514 1.5123ZM92.1026 1.58431C91.9328 1.58431 91.9891 1.72834 92.1598 1.94439L92.3296 2.01639H92.3868C92.6139 1.80036 92.2733 1.58431 92.1026 1.58431ZM36.6739 27.0773C36.5037 27.0773 36.447 27.1494 36.447 27.2933C36.5037 27.4374 36.7307 27.6535 36.9009 27.5814C37.0711 27.5095 36.8441 27.0773 36.6739 27.0773ZM168.483 21.6763C168.483 21.6763 168.427 21.8203 168.37 21.8923C168.256 21.9644 168.256 22.2524 168.37 22.1804L168.483 22.1084L168.654 22.0363C168.824 21.9644 168.937 21.8203 168.824 21.7483L168.71 21.6763C168.654 21.6763 168.654 21.6043 168.597 21.6043H168.541C168.483 21.6043 168.483 21.6763 168.483 21.6763ZM166.271 19.2998C166.441 19.2998 166.555 19.2278 166.441 19.0838C166.327 19.0117 165.873 19.0838 165.761 19.0838C165.534 19.1558 166.044 19.2998 166.271 19.2998ZM85.919 1.87237C86.0891 2.08841 86.3161 1.94439 86.4295 1.58431L86.0891 1.44028L86.0324 1.36827C85.8622 1.5123 85.7488 1.65633 85.7488 1.65633L85.919 1.87237ZM30.6033 6.76934C30.5467 6.84135 30.5467 6.91337 30.6033 6.98538C30.6601 7.0574 31.0006 7.20142 31.114 7.27344H31.2274C31.2842 7.27344 31.3409 7.20142 31.3409 7.20142C31.3409 7.12941 31.3409 7.05739 31.3409 7.05739L31.1707 6.91337C31.0005 6.76934 30.7169 6.69732 30.6033 6.76934ZM20.1643 7.84955C19.9374 7.5615 19.6537 7.5615 19.37 7.70552C19.7105 8.13761 19.7105 8.13761 20.1643 7.84955Z" fill="#FF0336"/>
</g>
</g>
</g>
<defs>
<clipPath id="clip0_14_91">
<rect width="186" height="30.39" fill="white"/>
</clipPath>
<clipPath id="clip1_14_91">
<rect width="186" height="30.39" fill="white"/>
</clipPath>
<clipPath id="clip2_14_91">
<rect width="185.915" height="30.39" fill="white" transform="translate(0.0423584)"/>
</clipPath>
</defs>
</svg>
