<svg width="230" height="38" viewBox="0 0 230 38" fill="none" xmlns="http://www.w3.org/2000/svg">
<g clip-path="url(#clip0_14_760)">
<g clip-path="url(#clip1_14_760)">
<g clip-path="url(#clip2_14_760)">
<path d="M41.9607 3.47396C41.9607 3.38488 42.0308 3.20673 42.101 3.20673C42.101 3.20673 42.3817 3.20673 42.6624 3.2958L43.0134 2.9395L43.1537 2.76135C43.2941 2.85043 43.5747 2.85043 43.7853 2.85043C43.9958 2.85043 44.6273 2.40505 44.6975 2.49412V2.67227C44.6975 2.85043 44.908 2.85043 45.1887 2.76135C45.3993 2.67227 46.3817 2.85043 46.6625 2.85043C46.9432 2.85043 47.7852 2.49412 47.9958 2.49412C48.2063 2.49412 48.6273 2.76135 48.7677 2.76135C48.908 2.76135 49.3291 2.49412 49.3992 2.49412C49.4694 2.49412 49.7501 2.49412 49.7501 2.31598C49.7501 2.13782 50.3116 2.40505 50.4519 2.40505L50.5923 2.31598C50.873 2.13782 50.9431 2.2269 51.0133 2.49412L51.0835 2.67227C51.294 2.40505 51.5045 2.2269 51.6449 2.31598C51.7852 2.40505 52.2764 2.40505 52.5571 2.40505L52.7676 2.2269L52.908 2.13782C53.0483 2.13782 53.329 2.2269 53.4695 2.2269L53.3993 2.49412C53.5397 2.5832 53.6098 2.76135 53.7502 2.9395C53.8905 2.85043 53.9607 2.76135 53.9607 2.5832C53.9607 2.49412 54.3116 2.31598 54.5923 2.2269L54.8028 2.40505V2.49412C55.0835 2.67227 55.3642 2.67227 55.5045 2.49412L55.6448 2.40505L55.715 2.31598C55.8554 2.31598 55.9255 2.40505 55.9255 2.49412V2.67227C55.9255 2.76135 55.9957 2.76135 56.1361 2.76135L56.2062 2.85043C56.2764 2.76135 56.3466 2.5832 56.4168 2.49412L56.5571 2.31598C56.6974 2.40505 56.9081 2.40505 56.9781 2.40505C57.0484 2.40505 57.5396 2.40505 57.8905 2.76135L58.3817 2.40505C58.4519 2.31597 58.6624 2.40505 58.6624 2.40505L58.8729 2.76135C59.1536 2.5832 59.4343 2.40505 59.5045 2.31598C59.5747 2.2269 59.8553 2.04874 59.9255 2.13782C59.9957 2.31598 60.2765 2.5832 60.487 2.40505H60.6274L60.908 2.31598C61.2589 2.31598 61.5396 2.31598 61.6098 2.2269C61.68 2.2269 61.9606 2.13782 62.1712 2.04874C62.3817 1.95967 63.1536 2.31598 63.2238 2.2269L63.2939 2.13782C63.4343 2.13782 63.5045 2.13782 63.4343 2.31598V2.40505C63.4343 2.49412 63.5746 2.5832 63.6448 2.5832L63.8554 2.76135C63.8554 2.5832 63.9256 2.40505 63.9958 2.31598C64.0659 2.2269 64.4168 2.04874 64.7677 2.13782L65.0484 2.2269H65.1185C65.1887 2.31598 65.1887 2.40505 65.1887 2.40505C65.1887 2.40505 65.0484 2.5832 64.9782 2.85043C64.908 3.11766 64.1361 3.02858 64.0659 3.02858V3.20673C64.0659 3.2958 64.4168 3.56303 64.7677 3.74119L65.1887 3.47396L65.3291 3.2958C65.5396 3.20673 65.5396 3.11766 65.3291 3.02858C65.1185 2.9395 65.3992 2.2269 65.6098 2.04874H65.8905C66.3817 2.04874 66.8729 2.2269 67.3642 1.95967C67.5045 1.87059 67.7852 1.95967 67.9256 2.13782L68.0659 2.2269C68.1361 2.49412 68.2063 2.5832 68.2764 2.40505C68.3466 2.2269 68.6975 1.87059 68.908 1.95967C69.1185 1.95967 69.8203 1.87059 69.9606 1.60337L70.1711 1.78151H70.2413C70.3115 1.87059 70.3816 2.04874 70.522 2.2269L70.7326 2.04874H70.8028C70.9431 2.04874 71.0835 2.13782 71.0835 2.31598C71.0835 2.40505 71.2238 2.67227 71.294 2.5832V2.49412C71.294 2.40505 71.294 2.31598 71.294 2.31598C71.3642 2.13782 71.5045 2.13782 71.6449 2.2269C71.9957 2.49412 71.715 1.95967 71.9256 1.95967H72.0659C72.2062 1.87059 72.4869 1.95967 72.6975 2.04874L72.908 1.87059C72.9782 1.78151 73.1185 1.78151 73.1185 1.78151L73.5395 2.31598C73.8202 1.87059 74.1712 1.69245 74.3817 1.95967C74.5922 2.13782 75.3641 1.95967 75.5045 2.04874C75.6448 2.13782 76.2764 1.87059 76.6273 1.87059L76.908 1.69245H76.9781C77.0483 1.78151 77.3993 1.87059 77.6098 1.95967L78.0308 1.87059L78.3817 1.78151C78.4519 2.04874 78.5922 2.13782 78.7326 1.95967C78.8729 1.87059 79.4343 1.95967 79.5045 1.95967C79.5746 1.95967 79.8553 1.78151 80.136 1.69245L80.6974 1.87059C81.0484 1.87059 81.3291 1.87059 81.3992 1.87059C81.4694 1.95967 81.6098 1.95967 81.6799 1.87059C81.7501 1.78151 82.1711 1.51429 82.2413 1.60337C82.3115 1.69245 82.5922 1.95967 82.7325 2.04874C82.8729 2.13782 83.4343 2.04874 83.715 1.87059C83.9957 1.78151 84.6975 1.87059 84.8378 1.87059C84.9782 1.87059 85.4694 1.69245 85.5396 1.78151C85.6799 1.87059 86.0308 2.04874 86.101 2.04874H86.1711L86.3817 1.87059C86.6623 1.87059 87.0132 1.95967 87.0834 1.95967C87.1536 1.95967 87.5044 1.87059 87.7149 1.87059C87.9256 1.87059 88.4168 1.87059 88.4168 1.60337L88.8378 1.87059L88.908 1.95967C88.9782 1.95967 89.1887 2.04874 89.3992 2.04874C89.6097 2.04874 90.2413 2.13782 90.4518 1.95967C90.6623 1.87059 91.2939 1.69245 91.4342 1.69245L91.5044 1.78151C91.6449 1.95967 91.7852 2.13782 92.0659 2.04874H92.2764C92.4168 1.87059 92.5571 1.69245 92.6273 1.69245H92.9781C93.2588 1.60337 93.6799 1.51429 93.8904 1.42521L94.0307 1.69245C94.1711 1.95967 94.4518 2.04874 94.7325 1.78151L95.9957 1.60337H96.3466C96.7676 1.60337 97.1886 1.69245 97.329 1.60337C97.4693 1.60337 97.8202 1.87059 97.8202 1.69245C97.8202 1.51429 97.9605 1.42521 98.1009 1.69245C98.2412 1.95967 99.0834 1.69245 99.4343 1.69245C99.715 1.69245 100.627 1.51429 100.697 1.42521L101.189 1.87059C101.82 1.78151 102.452 1.78151 102.452 1.78151C102.662 1.60337 102.803 1.42521 103.083 1.60337L103.224 1.69245C103.504 1.60337 103.926 1.42521 104.206 1.42521H104.768C105.118 1.42521 105.469 1.51429 105.54 1.60337C105.61 1.69245 105.82 1.78151 105.82 1.78151C105.82 1.69245 106.101 1.51429 106.241 1.51429C106.452 1.51429 107.013 1.42521 107.154 1.51429V1.95967C107.364 1.87059 107.785 1.78151 108.066 1.69245L108.347 1.87059C108.487 1.95967 108.697 1.95967 108.768 1.87059C108.978 1.69245 109.189 1.69245 109.469 1.69245H109.68C109.961 1.60337 110.241 1.51429 110.312 1.42521C110.452 1.42521 110.803 1.60337 111.013 1.60337C111.223 1.60337 111.785 1.51429 111.925 1.51429C111.996 1.51429 112.277 1.33614 112.347 1.42521C112.416 1.51429 112.908 1.87059 113.259 2.13782L113.329 1.42521C113.329 1.42521 113.539 1.33614 113.609 1.42521L114.171 1.69245C114.452 1.60337 115.083 1.51429 115.575 1.42521H116.137C116.206 1.60337 116.697 1.69245 117.259 1.60337H117.75C117.89 1.60337 117.89 1.87059 117.68 1.95967L117.609 2.04874C117.47 2.04874 117.47 2.13782 117.609 2.2269C117.75 2.31598 118.03 2.31598 118.03 2.13782C118.03 1.95967 118.171 1.42521 118.382 1.42521C118.592 1.42521 119.294 1.60337 119.504 1.60337H119.715C119.925 1.60337 120.206 1.60337 120.416 1.69245L120.768 1.87059C121.118 1.69245 121.469 1.51429 121.68 1.42521C121.82 1.33614 122.101 1.78151 122.101 1.78151C122.101 1.78151 122.311 1.69245 122.382 1.60337L122.522 1.78151C122.732 1.95967 122.873 1.95967 122.943 1.60337V1.51429C123.083 1.42521 123.294 1.42521 123.364 1.60337C123.435 1.78151 123.996 1.69245 124.276 1.60337C124.557 1.60337 125.399 1.51429 125.54 1.51429L125.609 1.33614C125.609 1.33614 125.89 1.24706 125.89 1.33614C125.961 1.42521 125.961 1.78151 126.242 1.60337L126.382 1.51429C126.452 1.24706 126.732 1.15798 127.013 1.33614L127.294 1.51429C127.364 1.51429 128.066 1.42521 128.135 1.42521C128.347 1.24706 128.557 0.979834 128.627 1.51429C128.697 1.51429 128.838 1.60337 128.978 1.60337C129.118 1.60337 129.54 1.69245 129.54 1.69245C129.609 1.60337 129.75 1.42521 129.75 1.33614C129.75 1.33614 129.961 1.15798 130.171 1.06891C130.382 0.979834 130.873 1.24706 130.943 1.15798C130.943 1.06891 131.294 1.06891 131.364 1.15798C131.435 1.24706 131.856 1.51429 131.995 1.42521C132.066 1.33614 132.416 1.15798 132.487 1.24706C132.557 1.33614 132.768 1.42521 132.838 1.33614C132.838 1.24706 133.049 1.06891 133.189 1.24706H133.609C133.68 1.42521 133.82 1.51429 133.961 1.33614C134.03 1.15798 134.382 0.801683 134.382 0.890758C134.382 0.979834 177.981 1.06891 178.052 1.06891C178.192 0.979834 178.473 0.890758 178.543 0.979834V1.06891C178.613 1.33614 178.823 1.33614 178.893 1.15798C178.964 0.712607 179.245 0.712607 179.455 0.890758L179.666 1.06891C179.876 0.979834 180.226 0.890758 180.507 0.801683L180.718 1.06891C180.928 1.33614 181.14 1.42521 181.419 1.15798C181.419 1.15798 181.56 1.15798 181.56 1.24706L181.771 1.51429C181.841 1.42521 181.981 1.24706 182.052 1.06891H182.402C182.753 1.15798 183.033 1.15798 183.104 1.15798C183.174 1.15798 183.385 1.06891 183.525 1.06891C183.666 1.06891 184.157 1.42521 184.367 1.24706C184.507 1.15798 185.069 0.979834 185.14 1.15798C185.209 1.33614 185.841 0.979834 186.192 0.979834C186.473 0.979834 187.245 1.15798 187.245 1.06891C187.245 0.979834 187.385 0.623531 187.455 0.801683V0.979834C187.455 1.06891 187.666 1.15798 187.946 1.15798C188.157 1.15798 188.718 1.42521 188.578 1.51429C188.438 1.60337 186.893 1.69245 186.543 1.78151C186.192 1.87059 186.262 2.04874 186.473 2.04874L186.683 2.13782C186.753 2.04874 186.964 1.87059 187.104 1.78151C187.314 1.69245 187.525 2.31598 187.666 2.31598C187.736 2.31598 187.876 2.13782 187.806 1.95967V1.87059C187.876 1.51429 187.876 1.60337 187.666 1.51429L187.525 0.979834C187.314 1.06891 187.033 1.15798 187.033 1.15798H186.964L186.683 1.33614C186.964 1.24706 187.385 1.33614 187.666 1.51429C187.946 1.69245 188.507 1.78151 188.718 1.69245C188.859 1.60337 189.49 1.78151 189.63 1.69245C189.771 1.60337 189.771 1.24706 189.7 1.15798C189.7 1.15798 189.419 0.979834 189.35 0.979834C189.209 0.979834 189.069 0.890758 189.209 0.801683C189.35 0.712607 189.841 0.356303 189.841 0.356303C189.841 0.267227 190.192 0.356303 190.262 0.356303C190.333 0.356303 190.543 0.712607 190.612 0.801683C190.683 0.979834 191.314 1.24706 191.314 1.33614C191.385 1.42521 191.455 1.06891 191.385 0.979834H191.314L191.104 0.890758C190.893 0.801683 190.753 0.623531 190.823 0.44538V0.356303C190.753 0.267227 190.683 0.0890758 190.893 0.178151L191.174 0.267227C191.525 0.356303 191.946 0.44538 192.086 0.44538C192.297 0.534455 193.14 0.267227 193.209 0.178151C193.35 0.0890758 193.56 0.0890758 193.771 0L193.911 0.0890758H193.981L194.052 0.178151C194.192 0.356303 194.333 0.356303 194.402 0.267227C194.473 0.178151 194.823 0.178151 194.964 0.267227C195.104 0.356303 195.666 0.178151 195.876 0.356303L196.086 0.534455C196.086 0.534455 196.016 0.712607 196.016 0.801683V0.890758C196.016 0.979834 196.086 0.890758 196.157 0.712607C196.226 0.534455 196.718 0.356303 196.648 0.356303C196.648 0.267227 196.718 0.178151 196.859 0.178151C196.999 0.178151 197.631 0.44538 197.911 0.534455C198.192 0.623531 198.964 0.356303 198.964 0.44538C198.964 0.534455 199.174 0.534455 199.104 0.623531C199.104 0.712607 198.893 0.801683 198.823 0.890758C198.753 0.979834 198.964 1.60337 199.385 1.69245L199.526 1.33614L199.666 1.06891C199.455 0.623531 199.455 0.267227 199.736 0.267227L199.805 0.356303C199.946 0.534455 200.016 0.801683 200.297 0.801683C200.297 0.801683 200.297 0.801683 200.297 0.890758C200.367 1.33614 200.367 1.33614 200.788 1.42521H200.999C201.279 1.51429 201.49 1.42521 201.49 1.24706C201.49 1.06891 201.56 0.534455 201.7 0.534455L201.841 0.712607C201.981 0.890758 201.981 1.06891 201.841 1.15798C201.7 1.15798 201.7 1.69245 201.841 1.69245C201.981 1.69245 202.333 1.42521 202.402 1.42521C202.472 1.51429 202.683 1.69245 202.753 1.60337H202.823C202.893 1.51429 202.964 1.42521 203.034 1.33614C203.104 1.24706 203.455 1.60337 203.526 1.51429C203.595 1.42521 203.876 1.15798 204.016 1.24706C204.157 1.33614 204.578 1.42521 204.648 1.33614C204.718 1.24706 204.929 1.06891 204.999 1.15798C204.999 1.24706 205.209 1.60337 205.279 1.60337H205.35L205.841 1.33614C206.262 1.60337 206.683 1.87059 206.753 1.87059C206.824 1.95967 207.034 2.04874 207.034 1.95967C207.034 1.95967 207.104 1.69245 207.104 1.60337C207.104 1.42521 207.526 1.60337 207.665 1.60337C207.805 1.69245 208.086 1.60337 208.086 1.69245C208.086 1.78151 208.507 1.60337 208.578 1.51429C208.718 1.42521 209.209 1.33614 209.35 1.24706L209.419 1.15798C209.49 1.15798 209.56 1.06891 209.56 1.06891L209.981 1.51429C210.052 1.06891 210.262 0.801683 210.472 0.890758C210.683 0.979834 211.034 1.60337 211.034 1.51429C211.034 1.42521 211.104 1.24706 211.174 1.15798C211.314 1.33614 211.526 1.42521 211.665 1.60337C211.736 1.69245 211.595 1.78151 211.595 1.95967V2.04874C211.595 2.13782 211.736 2.31598 211.805 2.31598L211.876 2.2269C212.157 1.95967 212.297 2.04874 212.367 2.40505C212.507 2.40505 212.648 2.31598 212.648 2.2269C212.648 2.13782 212.648 1.87059 212.578 1.87059C212.507 1.87059 212.648 1.51429 212.788 1.51429C212.929 1.51429 213.209 1.95967 213.279 2.2269V2.49412C213.279 2.5832 213.139 2.76135 212.998 2.76135H212.648C212.227 2.67227 211.876 2.76135 211.946 2.85043C211.946 3.02858 212.578 3.11766 212.648 3.20673C212.718 3.38488 212.788 3.65211 212.788 3.74119C212.788 3.83027 212.648 4.18656 212.578 4.36472L212.507 4.54286C212.367 4.72102 212.227 4.89917 212.016 4.98825C212.016 4.98825 211.946 4.81009 211.946 4.63194C211.946 4.4538 211.665 3.91933 211.526 4.00841C211.385 4.09749 211.104 4.4538 211.174 4.54286L211.314 4.72102C211.385 4.81009 211.455 4.89917 211.385 4.89917C211.314 4.98825 211.245 5.1664 211.314 5.25547C211.385 5.34455 212.648 5.5227 212.578 5.61178C212.507 5.61178 212.438 5.78993 212.578 5.70086C212.788 5.70086 212.929 6.14623 212.998 6.14623C213.069 6.14623 213.209 6.05715 213.209 6.05715C213.209 5.96808 213.209 5.87901 213.35 5.96808H213.49C213.841 6.23531 213.981 6.41346 213.841 6.41346C213.7 6.41346 213.279 6.59162 213.279 6.68068C213.279 6.76976 213.419 7.03699 213.56 7.21515C213.7 7.39329 214.262 7.48237 214.262 7.39329C214.262 7.30422 214.543 7.21515 214.753 7.30422C214.893 7.39329 215.245 7.39329 215.174 7.21515C215.104 7.03699 215.595 6.32438 215.805 5.96808H216.367C216.438 5.70085 216.578 5.61178 216.578 5.70086C216.578 5.78993 216.719 6.14623 216.788 6.05715C216.858 5.96808 217.139 5.78993 217.35 5.96808C217.49 6.14623 218.052 6.41346 218.262 6.41346C218.402 6.32438 218.893 5.96808 219.314 6.05715L219.665 6.14623C219.665 6.14623 219.736 6.05715 219.736 5.96808C219.805 5.87901 219.876 5.78993 219.946 5.78993H220.157C220.086 5.96808 220.016 6.23531 219.946 6.32438C219.876 6.41346 219.946 6.94791 220.297 7.12607L220.507 6.59162C220.578 6.50254 220.788 6.41346 220.929 6.32438C220.998 6.32438 221.139 6.41346 221.139 6.50254C221.209 6.59162 221.209 6.76976 221.35 6.59162C221.49 6.50254 221.631 6.41346 221.7 6.59162C221.771 6.76976 221.841 6.94791 221.771 7.03699C221.7 7.30422 221.49 7.48237 221.35 7.66052L221.209 7.83868C221.279 8.01683 221.631 8.28405 221.841 8.4622C222.122 8.55128 222.612 8.64036 222.824 8.64036C223.034 8.64036 223.736 9.17481 223.876 9.35297C224.016 9.53111 224.578 9.62019 224.648 9.70926C224.719 9.79834 224.648 10.1547 224.648 10.5109L224.858 10.8673L224.929 10.9563C224.998 11.1345 224.858 11.3126 224.648 11.4017L224.507 11.5798C224.297 11.847 224.297 11.847 224.157 11.6689L224.086 11.5798L223.805 11.6689C223.665 11.9362 223.525 12.0253 223.455 11.847C223.385 11.6689 222.753 11.6689 222.612 11.6689C222.472 11.6689 221.981 11.9362 222.191 12.0253C222.402 12.1143 222.824 12.4706 222.753 12.6488L222.964 12.7378L223.245 12.916C223.455 12.6488 223.595 12.4706 223.595 12.4706C223.595 12.4706 223.736 12.6488 223.876 12.7378C224.016 12.7378 223.876 13.2723 223.665 13.2723L223.385 13.6286C223.245 13.8958 223.245 14.163 223.314 14.2521C223.385 14.2521 223.455 14.6085 223.245 14.8757C223.034 15.1429 222.543 15.7665 222.612 15.7665C222.683 15.7665 222.824 15.9446 222.753 16.1227H222.543C222.402 16.2118 222.191 16.3899 222.122 16.6572L222.332 16.8353C222.402 16.9245 222.122 17.9933 222.052 17.9933L221.841 18.1714C221.631 18.3497 221.49 18.5278 221.49 18.7059C221.49 18.795 221.209 19.2403 221.139 19.4186L220.858 19.7749C220.998 20.0421 221.069 20.4874 221.069 20.7547L220.998 21.0219L220.929 21.3782C221.209 21.3782 221.279 21.5563 221.139 21.6454C220.998 21.7345 220.507 22.0908 220.297 22.0908H219.736C219.524 22.3581 219.245 22.5362 219.104 22.6253C218.893 22.269 218.683 22.8034 218.472 22.6253C218.262 22.4471 218.052 22.4471 217.841 22.358C217.771 22.6253 217.56 22.7143 217.35 22.5362C217.139 22.4471 216.648 22.7143 216.648 22.7143C216.507 22.5362 216.297 22.7143 216.157 22.6253L215.876 22.4471C215.665 22.6253 215.245 22.5362 214.964 22.4471L214.683 22.7143L214.612 22.8034C214.472 22.8034 214.052 22.6253 213.7 22.4471L213.35 22.7143L213.279 22.8034C213.139 22.8034 212.929 22.8034 212.788 22.8034C212.648 22.8034 212.157 22.6253 212.086 22.6253C211.946 22.6253 211.595 22.6253 211.455 22.7143C211.314 22.8034 210.683 22.7143 210.472 22.7143H210.192C210.052 22.7143 209.911 22.7143 209.841 22.6253L209.631 22.4471C209.49 22.5362 209.139 22.7143 208.859 22.8034L208.648 22.8925C208.578 22.8925 208.507 22.9815 208.507 23.0706L208.367 23.2488C208.297 23.0706 208.157 22.9815 208.086 22.9815C208.016 22.9815 207.736 23.427 207.736 23.7833V24.2286C207.245 24.2286 206.753 24.3177 206.683 24.3177L206.753 24.2286L207.174 23.7833C207.174 24.1395 207.245 24.4067 207.385 24.4067C207.526 24.4067 207.526 23.9614 207.526 23.7833C207.526 23.6051 207.314 23.1598 207.245 23.1598C207.174 23.0706 206.893 23.3379 206.753 23.516C206.612 23.6942 207.385 24.3177 207.946 24.4959L208.086 24.3177L208.297 24.1395C208.438 23.7833 208.788 23.6051 208.998 23.6942C209.209 23.7833 209.771 24.1395 209.771 23.8723L209.841 23.6942V23.6051C209.981 23.6051 210.121 23.6051 210.121 23.6942C210.121 23.7833 210.121 23.9614 210.192 23.9614C210.262 23.9614 210.543 24.0505 210.472 24.1395H210.192C209.981 24.3177 209.911 24.585 210.121 24.585L210.192 24.4959L210.472 24.2286C210.753 24.2286 211.174 24.3177 211.314 24.3177C211.455 24.4067 211.876 24.0505 211.946 24.0505H212.016L212.157 24.1395C212.297 24.2286 212.578 24.3177 212.788 24.2286L212.929 24.4067C212.998 24.4959 213.139 24.4067 213.209 24.4067H213.279C213.35 24.4067 213.419 24.4959 213.419 24.585V24.7631C213.419 24.9412 213.279 25.2085 213.139 25.4757H212.578C212.157 25.4757 212.227 25.743 212.718 26.0992H213.419C213.56 25.9211 213.771 25.743 213.911 25.743L214.121 26.0102C214.121 26.3664 214.262 26.6336 214.332 26.8118H214.472C214.543 26.8118 214.612 26.6336 214.543 26.5446V26.4555C214.472 26.3664 214.262 26.3664 214.121 26.4555L213.911 26.3664C213.771 26.3664 213.631 26.5446 213.35 26.4555L212.998 26.3664C212.507 26.4555 212.016 26.8118 211.876 26.99L212.157 27.3463C212.297 27.3463 212.648 27.1682 212.929 26.8118L213.35 26.99L214.052 27.5244L214.402 27.0791C214.262 26.8118 214.192 26.3664 214.262 26.2774C214.332 26.0992 214.753 25.832 214.964 26.0992L215.034 26.2774C215.104 26.3664 215.034 26.5446 214.964 26.6336L214.893 26.7227C214.824 27.1682 214.964 27.5244 215.174 27.4354C215.385 27.3463 215.736 28.0589 215.665 28.1479C215.595 28.2371 215.245 28.5934 215.455 28.5043C215.665 28.4152 217.49 28.1479 217.841 28.0588C218.121 27.8807 217.771 27.7916 217.35 27.8807L216.998 28.0588L216.929 28.1479C216.788 28.1479 216.719 28.1479 216.719 28.0588C216.719 27.9698 216.719 27.7916 216.578 27.7916C216.438 27.9698 216.367 28.1479 216.227 28.3262L216.157 28.4152C216.227 28.5934 216.507 28.7715 216.719 28.8606C216.929 28.9496 217.279 28.4152 217.35 28.4152C217.419 28.3262 217.56 28.4152 217.631 28.7715L217.981 28.5934L218.191 28.5043C217.771 28.4152 217.069 28.3262 216.719 28.1479C216.367 28.0589 216.367 27.6135 216.507 27.5244C216.578 27.4354 216.858 27.0791 216.858 27.0791C216.929 27.2572 216.929 27.5244 216.998 27.6135L217.279 27.7916C217.279 27.5244 217.35 27.2572 217.419 27.1682C217.49 27.0791 218.332 27.2572 218.893 27.4354L219.455 27.0791L219.665 26.99C219.665 27.1682 219.665 27.4354 219.736 27.4354C219.805 27.5244 220.086 27.6135 220.086 27.5244C220.086 27.3463 220.367 27.1682 220.578 27.2572C220.788 27.3463 220.648 28.0589 220.719 28.1479C220.858 28.2371 221.49 28.3262 222.052 28.0588L222.543 27.8807H222.612C222.753 28.0588 222.964 28.2371 222.964 28.1479C223.034 28.0589 223.174 27.9698 223.174 27.8807L222.964 27.7026C222.753 27.5244 222.472 27.4354 222.332 27.4354H222.191C222.122 27.4354 222.052 27.4354 221.981 27.4354C221.56 27.1682 221.631 27.5244 221.631 27.7916V27.8807C221.56 27.9698 221.56 27.8807 221.56 27.7026C221.56 27.5244 221.139 27.5244 221.069 27.4354V27.3463C221.069 27.2572 221.209 27.1682 221.279 27.1682C221.49 27.2572 221.7 26.8118 221.981 27.1682C222.262 26.99 222.543 26.901 222.543 27.0791L222.612 27.1682H222.683C222.824 27.0791 223.034 26.99 223.174 26.901C223.314 26.8118 223.736 26.6336 223.736 26.8118C223.805 26.99 223.946 27.3463 224.016 27.2572H224.086L224.438 27.1682C224.858 26.99 225.35 26.99 225.56 27.0791C225.56 27.4354 225.7 27.7916 225.419 28.0588C225.419 28.0588 225.419 28.2371 225.49 28.3262C225.56 28.3262 225.7 28.3262 225.7 28.3262C225.771 28.1479 225.841 27.9698 225.981 27.8807L226.052 27.7916C226.122 27.7026 226.191 27.7026 226.262 27.7916C226.262 27.8807 226.472 28.2371 226.543 28.2371C226.612 28.2371 226.893 28.2371 226.964 28.3262C227.034 28.4152 227.245 28.5043 227.314 28.5043C227.314 28.4152 227.455 28.3262 227.525 28.4152C227.595 28.5043 228.017 28.6824 228.157 28.4152L228.367 28.2371C228.507 28.4152 228.578 28.5934 228.507 28.6824C228.438 28.7715 228.297 29.0387 228.438 29.0387C228.578 29.0387 228.858 29.2168 228.788 29.3059C228.717 29.395 228.717 29.7514 228.858 29.8404C228.998 29.9295 229.139 30.1076 228.788 30.2858L228.507 30.4639C228.438 30.553 228.297 30.642 228.297 30.7311C228.297 30.8203 228.297 30.9984 228.297 31.0875C228.367 31.1766 228.507 31.1766 228.648 31.1766L228.858 31.0875C228.858 30.9093 228.929 30.642 228.998 30.553H229.069C229.279 30.4639 229.981 30.7312 229.981 30.9984V31.0875C229.841 31.1766 229.631 31.3547 229.49 31.4438C229.35 31.5328 228.998 31.9783 228.998 31.9783C228.998 32.0673 228.858 32.0673 228.788 31.8H228.578C228.367 31.9783 228.367 32.1564 228.438 32.2455C228.507 32.3345 228.858 32.958 228.858 33.4035V34.3832C228.438 34.6505 228.086 34.8287 228.086 34.7396C228.086 34.6505 227.946 34.4724 227.876 34.5615C227.805 34.6505 227.805 35.0959 227.736 35.0959C227.665 35.0959 227.384 35.274 227.525 35.4522H227.595C227.736 35.4522 227.946 35.274 228.086 35.274C228.227 35.274 228.438 35.1849 228.438 35.4522C228.438 35.6303 228.367 35.8085 228.297 35.8085L228.017 35.8976C227.736 35.9867 227.455 35.7195 227.525 35.274L227.034 35.3631L226.683 35.4522C226.824 35.8085 226.824 36.0757 226.683 36.0757C226.543 36.0757 226.052 36.0757 226.052 35.8976C226.052 35.8085 225.911 35.6303 225.771 35.7195C225.631 35.8976 225.279 36.2539 225.279 36.0757C225.279 35.9867 225.139 35.6303 225.069 35.7195C224.998 35.8085 224.438 36.0757 224.086 36.0757L223.525 36.432C223.245 36.432 222.824 36.432 222.543 36.432H222.191C222.122 36.432 221.771 36.432 221.49 36.3429C221.209 36.2539 220.367 36.5211 220.297 36.432C220.227 36.432 219.876 36.3429 219.736 36.3429C219.595 36.3429 219.104 36.3429 218.964 36.2539C218.824 36.1648 218.262 36.6101 218.052 36.6992L217.981 36.2539V36.0757C217.771 36.1648 217.56 36.2539 217.419 36.3429C217.279 36.432 217.069 36.6101 216.998 36.5211C216.929 36.432 216.367 36.5211 216.227 36.6101C216.086 36.6101 215.595 36.5211 215.524 36.5211C215.455 36.5211 215.174 36.6992 215.104 36.7883C215.034 36.8773 214.753 36.6992 214.683 36.6992C214.612 36.6992 214.192 36.7883 213.981 36.8773C213.7 37.0556 212.859 36.6101 212.578 36.6101C212.297 36.6101 211.595 37.0556 211.526 37.0556C211.385 37.0556 210.964 37.0556 210.824 37.2337L210.472 36.9664C210.332 36.8774 209.981 37.0556 209.771 37.0556C209.56 37.0556 209.35 36.9664 209.139 36.9664C208.998 36.9664 208.859 37.0556 208.648 37.0556L208.297 37.1447C208.297 36.8773 208.297 36.7883 208.297 36.9664C208.297 37.1447 207.736 36.9664 207.526 37.0556H207.314L206.543 36.9664C205.7 36.8774 204.788 36.8773 204.438 36.8773C204.157 36.8773 203.314 37.1447 203.245 37.1447C203.174 37.1447 202.893 37.2337 202.612 37.2337L202.543 37.1447C202.333 36.8773 202.052 37.1447 201.841 37.0556L201.56 36.8773C201.279 36.8773 200.928 36.8773 200.718 36.8773C200.578 36.8773 199.946 37.1447 199.526 37.2337L199.174 37.0556L198.964 36.9664C198.612 37.0556 198.262 37.0556 198.121 37.0556C197.981 36.9664 197.7 37.1447 197.631 37.0556C197.56 36.9664 197.279 36.7883 197.139 36.8773C196.999 36.9664 196.438 37.2337 196.297 37.2337C196.157 37.2337 195.736 37.1447 195.666 37.0556C195.525 36.9664 194.893 37.2337 194.473 37.3228C194.052 37.4119 192.999 37.1447 192.928 37.2337C192.859 37.3228 192.507 37.0556 192.367 37.0556C192.297 37.0556 192.016 37.1447 192.016 37.0556C191.946 36.9664 191.876 36.8774 191.806 36.9664C191.806 37.0556 191.525 37.1447 191.385 37.0556C191.174 36.9664 190.612 37.2337 190.473 37.2337L190.402 37.1447C190.052 36.8773 189.841 36.8773 189.49 37.1447C189.209 37.3228 188.928 36.8774 188.718 36.9664C188.438 37.1447 188.157 37.2337 187.946 37.1447C187.736 37.0556 187.666 37.0556 187.525 37.1447C187.455 37.1447 187.174 37.0556 187.174 37.0556C187.033 37.3228 186.893 36.9664 186.753 37.0556C186.612 37.2337 186.612 37.1447 186.473 37.0556L186.262 36.8773C185.981 36.9664 185.35 37.0556 184.859 37.1447C184.367 37.2337 182.753 37.1447 182.543 37.2337H181.771C181.209 37.2337 180.578 37.3228 180.438 37.4119C180.297 37.5009 179.595 37.3228 179.314 37.2337H179.033C178.753 37.2337 178.402 37.2337 178.052 37.2337H134.452C134.382 37.0556 134.311 36.9664 134.242 36.9664C134.242 36.9664 134.03 37.0556 133.961 37.1447C133.89 37.2337 133.54 37.4119 133.469 37.3228C133.399 37.2337 132.697 37.4119 132.206 37.4119C131.715 37.4119 130.311 37.2337 130.171 37.2337C130.03 37.2337 129.469 37.4119 129.329 37.2337C129.189 37.1447 128.627 37.4119 128.416 37.4119C128.276 37.4119 127.645 37.5009 127.435 37.5009C127.223 37.5009 126.592 37.3228 126.452 37.3228C126.311 37.4119 125.75 37.4119 125.609 37.3228C125.469 37.2337 124.697 37.4119 124.416 37.3228L124.135 37.2337L123.925 37.1447C123.504 37.2337 122.802 37.4119 122.311 37.4119C121.82 37.4119 120.137 37.5009 119.785 37.5009L119.645 36.9664C119.364 36.9664 119.223 37.0556 119.223 37.1447C119.223 37.2337 119.223 37.4119 119.083 37.4119C118.942 37.4119 118.311 37.5009 118.101 37.59L117.68 37.3228C117.609 37.2337 117.47 37.0556 117.329 37.0556C117.259 37.1447 117.189 37.3228 117.189 37.3228L116.416 37.1447C115.575 37.3228 114.873 37.3228 114.873 37.2337C114.873 37.1447 114.663 36.7883 114.522 36.8773H114.382C114.03 36.8773 114.171 37.1447 114.03 37.2337C113.89 37.3228 113.75 37.2337 113.609 37.3228C113.47 37.3228 113.259 37.4119 113.118 37.5009H113.049C112.908 37.4119 112.697 37.4119 112.557 37.3228C112.416 37.2337 111.996 37.4119 111.856 37.4119C111.785 37.5009 111.294 37.3228 111.154 37.4119C111.013 37.5009 110.241 37.5009 109.82 37.59L109.469 37.2337C109.399 37.1447 109.118 37.1447 109.048 37.2337L108.697 37.5009C108.347 37.4119 107.926 37.2337 107.715 37.2337V37.3228C107.504 37.7681 107.224 37.2337 107.013 37.4119L106.803 37.59C106.592 37.4119 106.101 37.2337 105.75 37.1447L105.469 37.4119L105.259 37.59C105.118 37.3228 104.768 37.1447 104.557 37.2337L104.487 37.3228C104.347 37.59 104.206 37.2337 104.066 37.3228H103.996C103.926 37.3228 103.645 37.3228 103.364 37.2337C103.083 37.1447 101.54 37.4119 101.469 37.4119C101.259 37.2337 101.048 37.0556 100.838 37.3228C100.557 37.59 100.557 37.1447 100.276 37.2337L100.066 37.3228C99.7852 37.2337 99.2238 37.1447 98.7326 37.2337H98.3114C98.0307 37.2337 97.6799 37.3228 97.6097 37.1447L97.3992 36.7883C97.1886 36.9664 96.9781 37.0556 96.9079 37.0556C96.8378 37.0556 96.5571 37.0556 96.3466 37.0556H96.136C95.9957 37.0556 95.7852 37.1447 95.6448 37.2337C95.5747 37.1447 95.5045 36.9664 95.4343 36.8773C95.3641 36.7883 95.1536 37.0556 95.0834 37.2337H94.6623C94.3816 37.2337 93.9606 37.3228 93.6799 37.3228L93.1185 37.1447C92.8378 37.1447 92.5571 37.0556 92.4869 36.9664C92.4869 36.8774 92.4168 36.6101 92.4168 36.6101C92.4168 36.6101 92.3466 36.6992 92.3466 36.7883C92.3466 36.8773 92.1361 37.2337 91.9957 37.1447L91.9255 37.0556C91.6448 36.6992 91.6449 36.6992 91.2939 37.0556H91.2237C91.1535 37.0556 90.8728 37.1447 90.522 37.1447C90.1711 37.1447 89.2589 36.7883 89.1185 36.8773C88.9782 36.9664 88.7676 36.7883 88.908 36.6992C88.9782 36.6101 89.1887 36.2539 88.9782 36.3429C88.7676 36.432 88.3466 36.7883 88.2764 36.8773H88.2063C88.0658 36.8773 87.9256 36.7883 87.7851 36.7883C87.6448 36.7883 87.5044 36.8773 87.4343 36.8773C87.2939 36.8773 87.0834 36.8773 86.943 36.8773L86.522 36.6101C86.0308 36.6992 85.5396 36.8773 85.3992 36.8773L85.2589 36.7883C85.0484 36.6992 84.5571 36.6101 84.3465 36.6992L83.9255 36.8773C83.5746 36.6992 83.2238 36.6101 83.1536 36.6992C83.0834 36.7883 82.1711 36.6992 81.6098 36.6992H80.7676C80.3466 36.6992 79.715 36.7883 79.3641 36.8773L79.0133 36.7883C78.8027 36.6992 78.3115 36.5211 78.1712 36.432C78.101 36.3429 77.8905 36.432 77.8905 36.432C77.8203 36.7883 77.68 36.8774 77.3993 36.6101C77.3993 36.6101 77.0483 36.6992 76.6974 36.7883L76.4167 36.6992C76.0659 36.6101 75.7852 36.5211 75.5045 36.7883C75.4343 36.8773 75.2238 36.7883 75.0835 36.6992H74.9431C74.8028 36.6101 74.5922 36.6992 74.5221 36.7883C74.3817 36.8773 73.7501 36.6992 73.6097 36.6992C73.4694 36.6992 72.6975 36.6992 72.3466 36.7883L72.0659 36.5211C72.0659 36.5211 71.9957 36.6101 71.9256 36.6101L71.1536 36.7883C70.7326 36.6992 70.3115 36.6101 70.2413 36.5211C70.1711 36.5211 69.6097 36.6101 69.1185 36.6101L68.6273 36.6992H68.5571C68.487 36.5211 68.3466 36.432 68.3466 36.5211C68.3466 36.6992 67.5045 36.7883 67.0132 36.7883L66.7325 36.6101C66.5922 36.6992 66.3115 36.6992 66.0308 36.6992L65.7501 36.6101C65.5396 36.5211 65.3992 37.0556 65.1185 36.6992C65.0484 36.6101 64.908 36.6992 64.8379 36.6992C64.7677 36.6992 64.6975 36.7883 64.6273 36.6992H64.487C64.3466 36.6992 64.0659 36.6992 63.8554 36.7883L63.715 36.6101C63.5045 36.2539 63.3641 36.7883 63.0834 36.6101C62.8027 36.432 62.9431 36.0757 62.8027 35.8976C62.7326 35.8085 62.522 35.8085 62.3817 35.8976L62.1712 35.9867C61.9606 36.1648 61.8203 36.3429 61.8905 36.432C61.9606 36.432 61.8905 36.6101 61.68 36.6101L61.4694 36.5211C61.3291 36.5211 61.1887 36.432 61.0484 36.432H60.6274C60.3467 36.0757 60.136 35.8976 60.136 36.0757C60.136 36.1648 59.9255 36.6992 59.6448 36.6992C59.3641 36.6992 58.8027 36.3429 58.8027 36.3429L58.6624 36.5211C58.5922 36.5211 58.3115 36.6101 58.0308 36.6101C57.7502 36.6101 56.9781 36.432 56.9081 36.3429C56.8379 36.2539 56.5571 36.2539 56.5571 36.3429C56.5571 36.432 56.1361 36.5211 56.1361 36.432C56.1361 36.432 56.0659 36.1648 55.9957 35.8976L55.5747 36.1648C55.3642 36.3429 55.1536 36.3429 54.9431 36.432H54.8028C54.5923 36.432 54.4519 36.2539 54.4519 36.0757V35.8976C54.4519 35.7195 54.4519 35.5412 54.2414 35.5412C53.9607 35.5412 54.101 35.8085 54.101 35.8976V35.9867C54.0309 36.0757 53.9607 36.0757 53.8905 35.9867C53.8203 35.8976 53.5397 35.8085 53.3993 35.9867V36.2539C53.329 36.3429 53.2589 36.3429 53.1887 36.3429H53.1185C53.0483 36.2539 52.9782 36.0757 52.908 35.8976C52.8378 35.7195 52.487 35.6303 52.5571 35.7195C52.6273 35.8085 52.5571 36.1648 52.1361 36.432L51.7852 36.0757L51.6449 35.8976C51.5045 35.9867 51.294 36.0757 51.1537 36.1648C51.0133 36.2539 50.3818 35.8976 50.3116 35.8976H50.1712C50.1011 35.8976 50.1011 35.9867 50.1011 36.0757C50.1011 36.0757 49.8904 36.3429 49.4694 36.432L49.2589 36.2539L48.908 36.0757C48.5571 36.1648 48.3466 36.1648 48.3466 36.0757C48.4168 35.9867 48.2063 35.4522 47.7852 35.1849L47.294 35.5412L46.9432 35.7195C46.452 35.5412 46.101 35.3631 46.2413 35.3631L46.3818 35.0068C46.7326 35.0959 47.0133 35.1849 47.0835 35.1849C47.1537 35.1849 47.1537 34.8287 46.8028 34.9177V34.8287L46.3818 34.4724C46.2413 34.8287 46.1712 35.0068 46.101 34.9177C46.101 34.8287 45.9606 34.6505 45.8905 34.6505C45.8203 34.6505 45.5396 34.8287 45.5396 34.9177C45.5396 35.0068 45.2589 35.274 45.1186 35.3631C44.9782 35.5412 44.6975 36.2539 44.6975 36.0757C44.6975 35.8976 44.487 35.5412 44.4168 35.5412C44.2765 35.5412 43.9256 35.4522 43.8554 35.4522C43.7853 35.4522 43.5747 35.5412 43.7151 35.5412C43.7853 35.6303 44.066 35.8085 44.1361 35.8976V35.9867C44.1361 35.9867 44.066 36.0757 43.9958 36.0757L43.7853 35.9867C43.5046 35.8976 43.3642 35.7195 43.3642 35.5412C43.3642 35.3631 43.2941 35.0959 43.1537 35.1849C43.0134 35.274 42.9431 35.7195 42.8729 35.8085C42.8027 35.8976 42.3817 35.8976 42.3817 35.8976C42.3115 35.8976 42.2414 35.5412 42.3817 35.274C42.522 35.0068 42.5922 34.3832 42.3817 34.6505C42.1712 34.9177 41.6098 35.5412 41.4694 35.4522C41.3291 35.3631 41.0484 35.7195 41.0484 35.8085C40.9782 35.8976 40.487 35.9867 40.4168 35.8085C40.3467 35.6303 40.9782 35.3631 41.1186 35.274C41.2589 35.1849 41.7501 35.0068 41.7501 34.9177C41.8203 34.8287 41.8203 34.5615 41.8203 34.4724C41.7501 34.4724 41.6098 34.4724 41.5396 34.4724L41.3993 34.6505C41.2589 34.8287 41.1186 35.0068 41.1186 35.0068C41.0484 35.0068 40.9782 34.9177 40.9081 34.7396C40.9081 34.6505 40.6975 34.2942 40.6274 34.2051C40.5572 34.116 40.3467 33.8488 40.2765 33.9379C40.2063 33.9379 39.9958 34.2051 39.8555 34.3832H40.3467C40.487 34.6505 40.6274 34.9177 40.6274 34.9177C40.6274 34.9177 40.487 35.0959 40.3467 35.0959H40.066C39.9256 35.0959 39.7853 35.1849 39.7853 35.274C39.7151 35.274 39.5045 35.1849 39.4343 35.274C39.3641 35.3631 39.1536 35.3631 39.0835 35.274C39.0133 35.0959 38.6624 34.8287 38.4519 35.0068L38.1712 35.1849C38.0309 35.0959 37.8203 34.9177 37.6098 34.7396L37.3291 34.3832C37.1186 34.4724 36.8379 34.6505 36.7677 34.7396L36.5572 35.0068C36.4169 35.274 36.2062 35.3631 35.9957 35.274C35.7852 35.1849 35.4343 34.8287 35.294 34.8287C35.1537 34.7396 34.8028 34.7396 34.873 34.9177L34.8028 35.0068C34.7326 35.0959 34.5221 35.1849 34.4519 35.274C34.5221 35.3631 34.5221 35.5412 34.4519 35.5412C34.3817 35.5412 34.2414 35.4521 34.1712 35.3631C34.101 35.274 33.6098 34.8287 33.1888 34.9177L33.259 35.4522C33.259 35.6303 32.8379 35.7195 32.7678 35.5412C32.6976 35.3631 32.6976 35.274 32.9081 35.1849C32.9783 35.1849 33.1186 35.0068 33.0484 34.9177L32.9783 34.6505C32.9081 34.8287 32.6273 34.9177 32.4168 34.8287C32.2063 34.8287 31.5747 35.0959 31.4344 35.0068H31.3642C31.294 35.0068 31.0835 34.9177 31.0133 35.0068L30.7326 35.1849C30.4519 35.0959 30.1011 34.9177 30.1011 34.9177C30.0309 34.9177 29.7502 34.9177 29.4695 35.0068L29.259 34.8287L29.1887 34.7396C29.0484 34.6505 28.908 34.7396 28.908 34.9177C28.908 35.0068 28.6273 35.4522 28.3466 35.4522C28.0659 35.4522 27.4344 35.3631 27.3642 35.4522V35.5412L27.294 35.6303C27.2239 35.7195 27.2239 35.7195 27.1537 35.6303V35.5412L27.0835 35.7195C27.0133 35.6303 26.7327 35.6303 26.452 35.8085L26.2414 35.5412C26.1011 35.7195 25.8906 35.8085 25.7501 35.7195C25.6098 35.6303 25.2589 35.7195 25.0484 35.7195C24.8379 35.6303 24.2765 35.8976 24.1361 35.9867C23.9958 35.9867 23.5046 35.8976 23.2941 35.9867L23.0835 35.7195L22.873 35.5412C22.5923 35.6303 22.1712 35.8085 21.8905 35.8085L21.4695 35.9867C21.2589 35.8976 20.9782 35.6303 20.8379 35.5412L20.6274 35.8085C20.487 36.0757 20.3467 35.7195 20.2063 35.7195C20.066 35.7195 19.7853 35.8976 19.7151 35.8976C19.4344 35.7195 19.2239 35.7195 18.9432 35.7195C18.5924 35.7195 18.2414 35.5412 17.9607 35.8976C17.8905 35.8976 17.68 35.8085 17.5397 35.7195C17.3993 35.6303 16.7677 35.5412 16.4871 35.7195L16.2064 35.6303C15.7151 35.5412 15.1537 35.3631 14.6624 35.1849C14.5221 35.1849 14.5221 34.9177 14.3818 34.8287C14.3116 34.7396 14.2414 34.6505 14.1712 34.6505C14.0309 34.6505 13.8905 34.7396 13.8204 34.7396H13.7502C13.68 34.5615 13.5397 34.3832 13.3292 34.2942C13.1186 34.2051 12.6274 34.2942 12.4871 34.3832L12.3467 34.2942C12.066 34.116 11.7852 34.027 11.2239 34.027C11.1537 34.027 11.0835 33.8488 11.0835 33.7597C11.2239 33.5816 11.4344 33.4925 11.0134 33.4035C10.8028 33.4035 10.873 33.1362 11.0134 33.0471L11.0835 32.958C11.1537 32.869 11.1537 32.6908 11.0835 32.6018C11.0134 32.5127 11.294 32.3345 11.3642 32.4236C11.4344 32.5127 11.8554 32.3345 11.9257 32.5127L11.9959 32.6018C12.066 32.6908 11.9959 32.7799 11.9959 32.869C11.9959 32.958 12.1362 32.958 12.2064 33.0471H12.2766C12.3467 33.0471 12.4871 32.869 12.6274 32.6908C12.7678 32.5127 12.9783 31.8891 12.9081 31.8C12.8379 31.6219 12.2766 31.8 12.1362 31.711V31.6219L12.066 31.3547C11.9257 31.0875 11.7852 30.9984 11.7151 31.1766C11.6449 31.2656 11.5747 31.8 11.4344 31.6219C11.294 31.4438 10.5923 31.1766 10.452 31.0875C10.3116 30.9984 10.6625 30.553 10.8028 30.7311C10.9432 30.8203 11.3642 31.0875 11.4344 31.0875C11.5046 30.9984 11.6449 30.7311 11.7151 30.553L11.9959 30.7311C12.066 30.8203 12.2766 30.8203 12.2766 30.7311C12.3467 30.553 12.3467 30.4639 12.1362 30.3748L11.9959 30.2858C11.8554 30.0186 11.8554 29.7514 11.9959 29.6623L12.1362 29.484C12.1362 29.3059 11.9959 29.2168 11.9257 29.1278C11.8554 29.1278 11.4344 28.8606 11.0835 28.7715L10.873 29.5732C10.5221 29.484 10.3116 29.3059 10.452 29.2168C10.5923 29.1278 10.7327 29.0387 10.7327 28.9496C10.6625 28.9496 10.452 28.6824 10.3116 28.5043L10.0309 28.3262C9.89055 28.4152 9.60985 28.3262 9.4695 28.2371H9.32916C9.11863 28.2371 8.97828 28.2371 8.76775 28.2371C8.41687 28.2371 8.13617 28.1479 7.7853 28.2371C7.50459 28.3262 7.29407 28.0589 6.9432 28.1479C6.80284 28.1479 6.59232 28.0588 6.45196 27.9698L6.24144 27.7916C5.96074 27.7916 5.53969 27.7026 5.18881 27.7026C4.97828 27.6135 3.92565 27.0791 3.57478 26.901L3.2239 26.8118H3.01337C2.73268 26.8118 2.38179 26.7227 2.24145 26.6336L1.53969 26.1883C1.60987 25.743 1.75022 25.2975 1.8204 25.1194L1.39935 25.2085C1.18882 25.2085 1.04847 25.1194 1.11864 24.9412V24.7631C1.18882 24.585 1.11864 24.4067 1.04847 24.3177C0.97829 24.2286 0.837939 23.9614 0.908115 23.9614C0.97829 23.8723 1.32916 23.6051 1.39935 23.516L1.18882 23.427C0.97829 23.3379 0.908115 23.2488 0.97829 23.0706L1.11864 22.8034C0.97829 22.7143 0.697589 22.0908 0.557238 21.4673L0.136186 20.9328C0.276537 20.5765 0.346712 20.3093 0.206362 20.3093C0.136186 20.3093 -0.0743399 20.1311 0.0660107 20.0421C0.206362 19.8639 0.0660108 19.4186 0.136186 19.4186C0.206362 19.4186 0.487063 19.0622 0.416887 18.8841L0.346712 18.7059C0.276537 18.4387 0.136186 18.2606 0.206362 17.9933C0.206362 17.8151 0.416887 17.5479 0.557238 17.3698C0.697589 17.0135 1.04847 17.1026 1.11864 17.0135L1.25899 16.7462C1.46952 16.7462 1.68004 16.8353 1.75022 16.8353C1.8204 16.8353 2.31162 16.3009 2.45197 16.3009C2.59232 16.3009 3.08354 16.1227 3.2239 16.1227L3.43443 16.0337C3.57478 16.0337 3.85548 16.2118 3.99583 16.1227C4.20636 16.0337 4.27653 16.0337 4.48706 16.1227C4.62741 16.2118 4.83794 16.1227 4.97828 16.1227L5.39933 15.8555C5.32916 16.1227 5.68004 16.0337 6.03091 15.6774L6.59232 15.7665H6.66249C6.80284 15.6774 6.9432 15.6774 7.01337 15.6774C7.08354 15.6774 7.57476 15.6774 7.92564 15.4101L8.41687 15.6774C8.55722 15.7665 8.97828 15.4992 9.04845 15.5882L9.32916 15.8555C9.53968 15.6774 9.89055 15.4101 10.1011 15.321L10.3116 15.232C10.5221 15.1429 10.8028 15.1429 11.0134 15.232C11.3642 15.321 11.7151 15.4101 12.066 15.1429L12.3467 14.9647C12.6976 14.9647 13.0485 14.9647 13.1186 15.0538L13.259 15.232C13.3292 15.4101 13.5397 15.321 13.68 15.1429C13.8204 14.9647 14.5923 15.1429 14.873 15.1429C15.1537 15.1429 15.9257 14.7866 16.1362 14.6975H16.3467C16.7677 14.6975 16.9783 14.6975 17.1888 14.6085C17.259 14.6085 17.3291 14.5194 17.3993 14.5194H17.5397C17.68 14.4302 17.9607 14.3412 18.101 14.2521H18.3817C18.5221 14.4302 18.5923 14.3412 18.5923 14.074L18.9432 14.163C19.1537 14.163 19.4344 14.2521 19.645 14.074H19.7853C19.7853 14.2521 19.7853 14.4302 19.9958 14.3412C20.066 14.3412 20.1362 14.074 20.2063 13.9849C20.4169 13.8958 20.6976 13.8068 20.9782 13.7177H21.2589C21.6098 13.8068 21.9607 13.7177 22.101 13.7177C22.2415 13.6286 22.7327 13.5395 22.8028 13.6286C22.9432 13.6286 23.3642 13.6286 23.3642 13.6286C23.4344 13.5395 23.6449 13.4505 23.6449 13.5395C23.6449 13.6286 23.8554 13.7177 23.9958 13.7177C24.1361 13.6286 24.5572 13.5395 24.6975 13.6286C24.7677 13.7177 25.1186 13.8958 25.1887 13.8958C25.2589 13.8068 25.4694 13.5395 25.5396 13.4505C25.6098 13.3614 26.1011 13.3614 26.2414 13.3614H26.5923C26.8028 13.3614 27.2239 13.3614 27.5046 13.4505H27.7151C27.7853 13.4505 27.8554 13.4505 27.9256 13.3614L28.4168 13.005C28.6975 13.2723 28.9782 13.3614 28.9782 13.2723C28.9782 13.1833 29.1185 12.916 29.259 13.005H29.4695C29.6099 13.005 29.8204 12.8269 29.9607 12.6488H30.3116C30.4519 12.4706 30.3818 12.2925 30.3116 12.1143H30.1712C29.9607 12.0253 29.9607 12.2034 29.8906 12.3816C29.8906 12.4706 29.68 12.4706 29.5397 12.4706C29.259 12.5597 28.9782 12.6488 28.8379 12.5597C28.5572 12.3816 28.2765 12.4706 27.9958 12.4706C27.7151 12.4706 27.4344 12.4706 27.1537 12.4706C26.873 12.4706 26.5923 12.4706 26.3116 12.4706C25.8906 12.5597 25.7501 12.2034 25.5396 11.9362L25.3291 11.6689C25.0484 11.6689 24.7677 11.758 24.6274 11.758C24.487 11.847 24.2765 11.847 24.1361 11.847C23.9958 11.847 23.7151 11.5798 23.5748 11.4908C23.5046 11.4017 23.0134 11.2236 22.9432 11.3126L22.873 11.4017C22.8028 11.5798 22.8028 11.5798 23.0835 11.5798C23.1537 11.5798 23.2239 11.5798 23.2239 11.5798C23.2239 11.6689 23.2239 11.847 23.1537 11.847C22.9432 11.847 22.6625 12.0253 22.6625 11.6689V11.4908C22.7327 11.2236 22.7327 11.0454 22.8028 10.9563C22.8028 10.8672 22.8028 10.7782 22.7327 10.7782H22.6625C22.5923 10.7782 22.5222 10.7782 22.3818 10.8673L22.0308 10.9563C22.1712 11.2236 22.101 11.4908 21.8905 11.5798C21.68 11.6689 20.9782 11.6689 20.9782 11.5798V11.3126C21.0484 11.1345 20.9782 11.0454 20.9081 11.0454C20.8379 11.0454 20.5572 10.8672 20.5572 10.5109H20.487L20.066 10.7782C20.2063 10.2437 20.487 9.79834 20.6274 9.88742L20.7677 9.9765C20.9081 10.0656 21.0484 10.1547 21.1888 10.1547C21.2589 10.1547 21.3993 10.1546 21.4695 10.0656L21.6098 9.9765C21.8203 9.9765 22.101 9.79834 22.2415 9.70926V9.53111C22.101 9.44204 21.8203 9.26389 21.68 9.26389L21.5396 9.35297C21.4695 9.44203 21.5396 9.70926 21.3291 9.62019L21.1186 9.53111C20.9782 9.35297 20.7677 9.35297 20.6976 9.53111C20.6274 9.70926 20.2063 9.53111 20.2765 9.44204C20.2765 9.35297 20.2765 9.26389 20.2063 9.26389C20.1362 9.26389 19.8555 9.35297 19.8555 9.44204C19.8555 9.53111 19.7151 9.79834 19.645 9.79834C19.5748 9.70926 19.645 9.62019 19.5748 9.53111L19.3643 9.26389C19.0134 9.26389 18.7326 9.26389 18.6624 9.26389C18.5923 9.26389 18.5221 8.90758 18.8029 8.55128L19.1537 8.72943L19.4344 8.90758C19.7151 8.90758 19.9958 8.72944 19.9958 8.55128C19.9958 8.37313 19.9256 7.92775 19.8555 7.92775C19.7853 7.92775 19.5046 8.01683 19.5748 8.1059V8.28405C19.5748 8.37313 19.3643 8.4622 19.2239 8.4622C19.0836 8.37313 18.8029 8.19497 18.9432 8.1059V8.01683C18.9432 7.92775 18.8029 7.7496 18.7326 7.66052C18.7326 7.66052 18.5221 7.7496 18.4519 7.7496C18.3817 7.7496 18.2414 7.66052 18.1712 7.57144C18.1712 7.57144 18.2414 7.39329 18.3116 7.39329C18.3817 7.39329 18.6624 7.48237 18.9432 7.57144C19.2239 7.66052 20.1362 7.30422 20.2063 7.39329H20.2765C20.3467 7.39329 20.487 7.30422 20.5572 7.21515V7.03699C20.487 6.94791 20.5572 6.94791 20.6274 6.85884C20.6976 6.76976 20.9782 6.76976 21.0484 6.76976C21.1186 6.85884 21.3291 6.94791 21.3993 6.85884C21.4695 6.76976 21.7502 6.76976 21.8203 6.94791C21.8905 7.12607 22.1712 7.57144 22.2415 7.57144C22.2415 7.57144 22.2415 7.30422 22.1712 6.94791V6.50254C22.3818 6.32438 22.5222 6.32438 22.5923 6.32438V6.41346L22.6625 6.59162C22.7327 6.85884 22.873 6.76976 23.0134 6.41346L23.2239 6.32438L23.4344 6.14623C23.5046 5.87901 23.6449 5.70085 23.7151 5.78993C23.7853 5.87901 23.9958 6.05715 24.2063 6.05715L24.487 6.23531C24.6975 6.32438 24.908 6.23531 24.908 6.05715C24.908 5.87901 24.9782 5.70086 25.0484 5.70086H25.1186C25.3291 5.78993 25.4694 5.96808 25.6801 5.96808C25.7501 5.96808 25.8906 5.61178 25.9607 5.61178H26.1713C26.3818 5.61178 26.5923 5.61178 26.6625 5.70086C26.7327 5.70086 26.9432 5.70085 26.9432 5.43362V5.25547L27.0133 5.07733C27.0835 4.89917 27.5046 4.81009 27.9256 4.98825L28.4168 4.54286C28.6975 4.27564 28.908 3.83026 29.3993 4.27564C29.6099 4.09749 29.8906 4.00841 29.9607 4.18656L30.1011 4.27564L30.1712 4.36472C30.2414 4.36472 30.4519 4.36472 30.5923 4.36472C30.7326 4.36472 31.1537 4.18656 31.3642 4.09749C31.5045 4.00841 32.2063 4.00841 32.4168 4.00841C32.6273 4.00841 33.1186 3.65211 33.259 3.83027C33.3993 3.91933 33.68 4.36472 33.6098 4.4538C33.6098 4.54286 33.68 4.89917 33.8204 4.89917H34.2414C34.4519 4.54286 34.6624 4.18656 34.8028 4.00841C34.9431 3.83027 35.294 3.38488 35.3642 3.47396H35.4343L35.7852 3.65211C35.715 3.83027 35.5747 4.09749 35.5045 4.18656L35.3642 4.36472C35.4343 4.4538 35.5045 4.63194 35.5747 4.54286C35.6449 4.54286 35.9256 4.27564 36.2062 4.00841L36.5572 4.27564L36.6274 4.36472C36.6976 4.4538 36.9081 4.27564 36.9783 4.09749C37.0484 3.91933 37.4695 3.38488 37.6098 3.47396H37.7502L37.9607 3.56303C38.1712 3.74119 38.4519 3.83027 38.5221 3.91933C38.6624 3.91933 38.5922 4.36472 38.6624 4.4538C38.7326 4.54286 38.8729 4.54286 38.9431 4.63194C38.9431 4.72102 39.2238 4.63194 39.294 4.4538C39.294 4.27564 39.7853 4.36472 39.9256 4.36472C39.9958 4.36472 40.4168 4.18656 40.7677 4.27564H41.3993C41.7501 4.36472 42.0308 4.36472 42.101 4.18656C42.1712 4.09749 41.8905 3.56303 41.9607 3.47396ZM218.683 7.7496C218.824 7.48237 218.753 7.21515 218.472 7.03699H218.191L217.841 6.94791C217.49 6.94791 217.279 7.03699 217.419 7.12607C217.56 7.21515 218.543 8.01683 218.683 7.7496ZM222.052 10.3328C222.122 10.2437 222.052 9.88742 221.911 9.53111H220.929C220.719 9.88742 220.648 10.3328 220.858 10.5109H220.929L221.139 10.4219C221.35 10.2437 221.56 10.1547 221.631 10.2437C221.7 10.4219 221.981 10.4219 222.052 10.3328ZM224.367 31.8891C224.438 31.8891 224.648 31.711 224.788 31.4438C224.929 31.1766 224.507 30.553 224.578 30.553V30.3748C224.367 30.2858 224.157 30.2858 224.086 30.3748C224.016 30.4639 224.157 30.7312 224.227 30.8203C224.297 30.9093 224.227 31.2656 224.297 31.4438C224.367 31.5328 224.297 31.8891 224.367 31.8891ZM26.2414 9.35297C26.2414 9.53111 26.1011 9.53111 26.0309 9.44204C25.8906 9.35297 25.9607 9.70926 26.3116 9.70926H26.5923L27.0835 9.79834C27.294 9.44204 27.294 9.26389 27.1537 9.35297C27.0133 9.44203 26.5221 9.26389 26.5221 9.17481C26.5221 9.08574 26.452 8.8185 26.3818 8.8185C26.3116 8.8185 26.2414 9.17481 26.2414 9.35297ZM32.9081 4.89917C33.0484 4.63194 32.8379 4.4538 32.487 4.4538L32.2764 4.18656C32.1361 4.27564 31.9958 4.4538 31.9958 4.54286C31.9958 4.63194 32.4168 4.89917 32.5571 4.98825C32.5571 5.25547 32.6273 5.34455 32.8379 5.07733L32.9081 4.89917ZM210.683 5.25547C210.683 5.07733 210.612 4.98825 210.543 5.1664C210.472 5.25547 210.262 5.43362 210.121 5.34455C209.981 5.25547 209.49 5.1664 209.56 5.25547C209.631 5.34455 209.631 5.43362 209.56 5.5227C209.49 5.61178 209.419 5.78993 209.771 5.70086L209.911 5.78993L210.121 5.87901C210.543 5.78993 210.753 5.43362 210.683 5.25547ZM224.507 27.9698C224.648 28.0588 224.788 28.0588 224.788 27.8807C224.858 27.7026 224.578 27.2572 224.507 27.1682L224.367 27.3463L224.086 27.6135C223.805 27.5244 223.525 27.5244 223.455 27.5244V27.7026C223.595 27.7916 223.805 27.9698 223.946 28.0588H224.016C224.086 28.1479 224.438 27.8807 224.507 27.9698ZM28.8379 5.25547C29.0484 5.34455 29.259 5.34455 29.259 5.25547C29.259 5.1664 29.3292 4.89917 29.3292 4.81009C29.3993 4.72102 29.259 4.54286 29.0485 4.72102L28.908 4.54286C28.6975 4.36472 28.6273 4.72102 28.487 4.81009C28.3466 4.89917 28.3466 5.07733 28.487 5.1664C28.5572 5.34455 28.6273 5.5227 28.8379 5.25547ZM206.543 24.7631C206.472 24.8522 206.543 24.8522 206.753 24.8522C206.964 24.8522 207.455 25.2085 207.665 25.2085C207.876 25.2085 207.946 24.674 207.736 24.674C207.385 24.674 206.612 24.7631 206.543 24.7631ZM117.049 35.9867C116.908 35.8976 116.837 35.9867 116.837 36.0757C116.837 36.1648 116.768 36.5211 116.697 36.5211C116.627 36.5211 116.416 36.5211 116.416 36.6101C116.416 36.6992 116.416 36.9664 116.487 36.9664C116.487 36.9664 116.908 36.8773 117.399 36.7883V36.432C117.399 36.2539 117.118 35.9867 117.049 35.9867ZM197.981 1.60337C198.121 1.69245 198.333 1.69245 198.472 1.42521L198.543 1.24706C198.543 1.15798 198.543 0.979834 198.472 0.890758C198.402 0.712607 198.262 0.712607 198.052 0.801683L197.911 0.890758C197.7 0.979834 197.911 1.51429 197.981 1.60337ZM194.052 1.60337C194.333 1.51429 194.473 1.33614 194.473 1.24706C194.402 1.15798 193.981 0.890758 193.911 0.979834C193.771 1.06891 193.841 1.69245 194.052 1.60337ZM226.683 29.3059C226.753 29.1278 226.612 29.0387 226.332 29.1278L226.122 29.2168C225.981 29.3059 225.841 29.484 226.052 29.6623L226.122 29.7514C226.191 29.9295 226.612 29.5732 226.683 29.3059ZM46.1712 3.56303C45.9606 3.65211 46.0308 3.83027 46.3818 3.91933L46.5923 4.00841C46.8028 4.09749 46.9432 3.91933 47.0133 3.74119C47.0835 3.65211 47.0835 3.56303 47.0133 3.47396C47.0133 3.38488 46.3115 3.2958 46.2413 3.2958L46.1712 3.56303ZM21.3291 8.01683C21.3291 7.92775 21.1888 7.7496 21.0484 7.7496C20.9081 7.7496 20.6976 7.83868 20.5572 7.92775C20.4169 8.1059 20.2063 8.64036 20.2063 8.72943H20.3467C20.4169 8.72943 20.7677 8.55128 21.1186 8.28405L21.3291 8.01683ZM44.487 4.09749C44.487 4.18656 44.5572 4.27564 44.7677 4.18656C44.908 4.09749 45.3291 3.83027 45.3992 3.74119L45.2589 3.56303C45.1887 3.47396 45.2589 3.20673 44.9782 3.2958L44.7677 3.38488C44.6273 3.56303 44.487 4.00841 44.487 4.09749ZM111.364 2.13782C111.504 2.31598 111.575 2.31598 111.364 2.13782C111.223 1.95967 110.803 1.60337 110.732 1.69245C110.663 1.87059 110.732 2.31597 111.013 2.40505L111.083 2.31598L111.364 2.13782ZM58.1712 3.74119C58.1712 3.83027 58.3115 3.83027 58.4519 3.65211C58.5922 3.47396 58.5922 2.9395 58.4519 3.02858C58.2414 3.11766 57.8203 3.20673 57.8203 3.2958C57.8203 3.38488 57.8203 3.47396 57.8905 3.47396C57.9607 3.38488 58.1712 3.65211 58.1712 3.74119ZM83.0834 2.5832C82.6624 2.5832 82.4518 2.67227 82.5922 2.9395L82.8729 2.85043C83.1536 2.76135 83.3641 2.67227 83.5746 2.5832C83.5746 2.5832 83.5746 2.40505 83.5746 2.31598L83.4343 2.2269L83.0834 2.5832ZM18.6624 33.2252C18.7326 33.0471 18.8029 32.6908 18.7326 32.5127L18.4519 32.6018C18.3817 32.6018 18.2414 32.869 18.2414 32.6908C18.1712 32.4236 18.101 32.3345 17.8905 32.5127H17.8203C17.8905 32.6908 18.101 32.958 18.2414 33.1362L18.3817 33.2252H18.6624ZM203.595 23.516C203.666 23.427 203.526 23.2488 203.245 23.2488L202.964 23.427C202.823 23.6051 202.823 23.8723 202.893 24.0505H203.104C203.245 23.9614 203.595 23.6942 203.595 23.516ZM179.104 1.51429C179.174 1.33614 179.174 1.24706 178.964 1.33614C178.754 1.42521 178.332 1.33614 178.262 1.42521V1.51429C178.262 1.69245 178.192 1.87059 178.402 1.87059H178.543C178.683 2.04874 179.033 1.69245 179.104 1.51429ZM206.964 5.5227C206.753 5.34455 206.753 5.25547 206.964 5.43362C207.174 5.61178 207.805 5.78993 207.876 5.78993C207.946 5.70085 207.876 5.43362 207.526 5.34455L207.385 5.43362L206.964 5.5227ZM183.666 1.87059C183.876 1.95967 184.016 2.04874 183.947 1.95967C183.947 1.87059 184.016 1.60337 184.016 1.60337C184.016 1.51429 183.947 1.33614 183.736 1.33614C183.525 1.24706 183.455 1.78151 183.666 1.87059ZM113.89 1.95967C113.68 1.95967 113.75 2.13782 113.961 2.40505L114.171 2.49412H114.242C114.522 2.2269 114.101 1.95967 113.89 1.95967ZM45.3291 33.4925C45.1186 33.4925 45.0484 33.5816 45.0484 33.7597C45.1186 33.9379 45.3993 34.2051 45.6098 34.116C45.8203 34.027 45.5396 33.4925 45.3291 33.4925ZM208.367 26.8118C208.367 26.8118 208.297 26.99 208.226 27.0791C208.086 27.1682 208.086 27.5244 208.226 27.4354L208.367 27.3463L208.578 27.2572C208.788 27.1682 208.929 26.99 208.788 26.901L208.648 26.8118C208.578 26.8118 208.578 26.7227 208.507 26.7227H208.438C208.367 26.7227 208.367 26.8118 208.367 26.8118ZM205.631 23.8723C205.841 23.8723 205.981 23.7833 205.841 23.6051C205.7 23.516 205.139 23.6051 204.999 23.6051C204.718 23.6942 205.35 23.8723 205.631 23.8723ZM106.241 2.31598C106.452 2.5832 106.732 2.40505 106.873 1.95967L106.452 1.78151L106.382 1.69245C106.171 1.87059 106.031 2.04874 106.031 2.04874L106.241 2.31598ZM37.8203 8.37313C37.7502 8.4622 37.7502 8.55128 37.8203 8.64036C37.8905 8.72944 38.3116 8.90758 38.4519 8.99666H38.5922C38.6624 8.99666 38.7326 8.90758 38.7326 8.90758C38.7326 8.8185 38.7326 8.72943 38.7326 8.72943L38.5221 8.55128C38.3115 8.37313 37.9607 8.28405 37.8203 8.37313ZM24.908 9.70926C24.6274 9.35297 24.2765 9.35297 23.9256 9.53111C24.3467 10.0656 24.3467 10.0656 24.908 9.70926Z" fill="#FF0336"/>
</g>
</g>
</g>
<defs>
<clipPath id="clip0_14_760">
<rect width="230" height="37.59" fill="white"/>
</clipPath>
<clipPath id="clip1_14_760">
<rect width="230" height="37.59" fill="white"/>
</clipPath>
<clipPath id="clip2_14_760">
<rect width="229.962" height="37.59" fill="white" transform="translate(0.0187988)"/>
</clipPath>
</defs>
</svg>
