<svg width="14" height="5" viewBox="0 0 14 5" fill="none" xmlns="http://www.w3.org/2000/svg">
<path d="M12.7926 0.413268L13.6666 4.58593H12.6653C12.6253 4.41127 12.594 4.2286 12.554 4.05394C12.514 3.87927 12.554 3.9666 12.4506 3.9666H11.2353C11.2222 3.96433 11.2088 3.96483 11.1959 3.96805C11.183 3.97127 11.171 3.97715 11.1605 3.98531C11.15 3.99347 11.1413 4.00373 11.135 4.01543C11.1288 4.02713 11.125 4.04002 11.124 4.05327C11.068 4.21327 11.0126 4.37194 10.9493 4.5226C10.8853 4.67327 10.8933 4.59394 10.8693 4.59394H9.79731V4.4986C10.3266 3.24327 10.8566 1.98527 11.386 0.724602C11.4173 0.639028 11.4733 0.56466 11.5468 0.510904C11.6204 0.457148 11.7083 0.426418 11.7993 0.422601C12.1486 0.406601 12.4666 0.414601 12.7926 0.414601M12.046 1.58327L11.4813 3.10127H12.3713L12.046 1.58327ZM3.07465 3.2506V3.15527C3.39265 2.27327 3.71798 1.39127 4.02798 0.509268C4.02798 0.437935 4.09198 0.405935 4.17131 0.405935H5.22798V0.509268L3.58331 4.4826C3.5755 4.51554 3.55563 4.54436 3.52761 4.56336C3.4996 4.58237 3.46547 4.59018 3.43198 4.58527H2.51065C2.43065 4.58527 2.39931 4.58527 2.37531 4.48193C2.08198 3.33793 1.77931 2.19393 1.48531 1.04193C1.47835 1.01242 1.46565 0.984576 1.44791 0.959982C1.43018 0.935387 1.40778 0.914529 1.38198 0.898601C1.07517 0.727883 0.750273 0.591931 0.413313 0.493268C0.413313 0.493268 0.357313 0.453268 0.333313 0.437935C0.367281 0.429832 0.402678 0.429832 0.436646 0.437935H2.02598C2.09236 0.427839 2.16013 0.431882 2.22484 0.449798C2.28955 0.467715 2.34975 0.499101 2.40148 0.541901C2.45322 0.584701 2.49533 0.637948 2.52506 0.698155C2.55479 0.758362 2.57146 0.82417 2.57398 0.891268L3.02731 3.2186C3.02468 3.23718 3.02468 3.25603 3.02731 3.2746L3.07465 3.2506ZM6.77731 4.4266L6.93665 3.4966L7.04798 3.5606C7.45363 3.77076 7.91914 3.83524 8.36665 3.74327C8.4522 3.73594 8.53334 3.70216 8.59881 3.6466C8.66428 3.59105 8.71083 3.51649 8.73198 3.43327C8.74008 3.35028 8.72133 3.26689 8.67849 3.19536C8.63564 3.12383 8.57097 3.06795 8.49398 3.03593C8.33465 2.9326 8.16065 2.85327 8.00931 2.74994C7.81357 2.64034 7.63218 2.50688 7.46931 2.3526C7.30441 2.15533 7.21407 1.90638 7.21407 1.64927C7.21407 1.39215 7.30441 1.14321 7.46931 0.945935C7.70847 0.684444 8.02138 0.501721 8.36665 0.421935C8.89261 0.290651 9.4457 0.318258 9.95598 0.501268H9.99598L9.84465 1.35927C9.6442 1.29757 9.43971 1.2499 9.23265 1.2166C9.02628 1.20073 8.81901 1.20073 8.61265 1.2166C8.53812 1.23141 8.46941 1.26727 8.41465 1.31993C8.38811 1.3424 8.36678 1.37038 8.35215 1.40193C8.33753 1.43347 8.32995 1.46783 8.32995 1.5026C8.32995 1.53737 8.33753 1.57173 8.35215 1.60327C8.36678 1.63482 8.38811 1.6628 8.41465 1.68527C8.50951 1.77264 8.61318 1.84994 8.72398 1.91593C8.93065 2.0426 9.14531 2.14594 9.34398 2.28127C9.50832 2.38174 9.64462 2.5221 9.74021 2.68932C9.83581 2.85655 9.8876 3.04521 9.8908 3.2378C9.89399 3.4304 9.84847 3.62067 9.75847 3.79097C9.66847 3.96127 9.5369 4.10607 9.37598 4.21193C9.05916 4.45724 8.67847 4.60628 8.27931 4.64127C7.76855 4.69767 7.25183 4.62382 6.77731 4.4266ZM5.01331 4.58527L5.69665 0.413935H6.78531L6.10198 4.58527H5.01331Z" fill="#1B2E86"/>
</svg>
