<svg width="21" height="15" viewBox="0 0 21 15" fill="none" xmlns="http://www.w3.org/2000/svg">
<g clip-path="url(#clip0_47_340)">
<path d="M8.53125 2.30469V3.45696H20.9885L21 2.3865" fill="#EC1C24"/>
<path d="M20.2125 1.15234H8.53125V2.30462H20.7998C20.6666 1.87473 20.4684 1.48268 20.2125 1.15234Z" fill="#E6E7E8"/>
<path d="M21 0H8.53125V1.02273H21C21 0 21 0 21 0Z" fill="#EC1C24"/>
<path d="M20.9885 3.45703H8.53125V4.6093H21V3.84124C21 3.77271 20.9957 3.7059 20.9938 3.63874C20.9925 3.62033 20.9905 3.57294 20.9885 3.45703Z" fill="#E6E7E8"/>
<path d="M8.53125 5.76116H21V4.60889H8.53125V5.76116Z" fill="#EC1C24"/>
<path d="M8.53125 6.9135H21V5.76123H8.53125V6.9135Z" fill="#E6E7E8"/>
<path d="M8.53125 6.91357H21V8.06585H8.53125V6.91357Z" fill="#EC1C24"/>
<path d="M0 8.06592V9.21819H21V8.06592H8.53125H0Z" fill="#E6E7E8"/>
<path d="M0 9.21826H21V10.3705H0V9.21826Z" fill="#EC1C24"/>
<path d="M0.00164062 11.0794C0.00164062 11.0794 -0.0013125 11.3586 0.0065625 11.5229H20.9934C21.0026 11.3545 20.9984 11.0794 20.9984 11.0794L21 10.3706H0L0.00164062 11.0794Z" fill="#E6E7E8"/>
<path d="M3.28128 14.9999L21 14.9999C21 14.9999 21 14.9999 21 13.8271H0.164062C0.164075 14.9999 0.164075 14.9999 0.164075 14.9999" fill="#EC1C24"/>
<path d="M0.766173 13.8271H20.2338C20.4934 13.4845 20.6872 13.0933 20.8048 12.6748H0.198517C0.318314 13.0921 0.511323 13.4827 0.767814 13.8271" fill="#E6E7E8"/>
<path d="M0.00659843 12.6752H20.9934C20.9934 12.6752 20.9745 11.9136 20.9934 11.5229H0.00656128L0.00659843 12.6752Z" fill="#EC1C24"/>
<path d="M8.53125 0H-5.96046e-08C-2.17448 0 4.05312e-06 1.67898 4.05312e-06 3.75V8.06591H8.53125V0Z" fill="#176496"/>
<path d="M0.918114 2.03731L1.09661 1.89481L1.27479 2.03731L1.20555 1.80822L1.38307 1.6681H1.16388L1.09596 1.43799L1.02836 1.6681H0.809505L0.987677 1.80822L0.918114 2.03731ZM2.0974 2.03731L2.2759 1.89481L2.45407 2.03731L2.38516 1.80822L2.56235 1.6681H2.34349L2.27557 1.43799L2.20797 1.6681H1.98846L2.16663 1.80822L2.0974 2.03731ZM3.39841 2.03731L3.57658 1.89481L3.75508 2.03731L3.68585 1.80822L3.86304 1.6681H3.64549L3.57658 1.43799L3.50866 1.6681H3.29111L3.46732 1.80822L3.39841 2.03731ZM4.68991 2.03731L4.86808 1.89481L5.04658 2.03731L4.97768 1.80822L5.15486 1.6681H4.93502L4.86808 1.43799L4.80049 1.6681H4.5813L4.75915 1.80822L4.68991 2.03731ZM5.986 2.03731L6.16451 1.89481L6.34268 2.03731L6.27377 1.80822L6.45129 1.6681H6.23177L6.16418 1.43799L6.09658 1.6681H5.87772L6.05491 1.80822L5.986 2.03731ZM1.54582 2.6356L1.72399 2.49344L1.90216 2.6356L1.83358 2.40685L2.01077 2.26674H1.79158L1.72366 2.03697L1.65705 2.26674H1.43721L1.61472 2.40685L1.54582 2.6356ZM2.72543 2.6356L2.9036 2.49344L3.08177 2.6356L3.01286 2.40685L3.19005 2.26674H2.96955L2.9036 2.03697L2.83568 2.26674H2.61682L2.79433 2.40685L2.72543 2.6356ZM4.02644 2.6356L4.20429 2.49344L4.38246 2.6356L4.31355 2.40685L4.49107 2.26674H4.27221L4.20429 2.03697L4.13636 2.26674H3.91718L4.09469 2.40685L4.02644 2.6356ZM5.31729 2.6356L5.49579 2.49344L5.67429 2.6356L5.6044 2.40685L5.78224 2.26674H5.56338L5.49546 2.03697L5.42819 2.26674H5.209L5.38652 2.40685L5.31729 2.6356ZM6.61502 2.6356L6.79188 2.49344L6.97005 2.6356L6.90049 2.40685L7.07833 2.26674H6.8598L6.79155 2.03697L6.72429 2.26674H6.5051L6.68261 2.40685L6.61502 2.6356ZM7.34575 2.03731L7.52393 1.89481L7.70243 2.03731L7.63319 1.80822L7.81038 1.6681H7.59283L7.5236 1.43799L7.45601 1.6681H7.23518L7.41466 1.80822L7.34575 2.03731ZM0.900724 6.82503L1.07922 6.68424L1.2574 6.82503L1.18849 6.59799L1.36568 6.45753L1.14682 6.45822L1.07857 6.22844L1.01163 6.45822L0.792114 6.45753L0.96963 6.59799L0.900724 6.82503ZM2.08033 6.82503L2.2585 6.68424L2.437 6.82503L2.36777 6.59799L2.54496 6.45753L2.32643 6.45822L2.25818 6.22844L2.19091 6.45822L1.97205 6.45753L2.14924 6.59799L2.08033 6.82503ZM3.38135 6.82503L3.55952 6.68424L3.73802 6.82503L3.66879 6.59799L3.84597 6.45753L3.6258 6.45822L3.55919 6.22844L3.4916 6.45822L3.27274 6.45753L3.45025 6.59799L3.38135 6.82503ZM4.67285 6.82503L4.85102 6.68424L5.02919 6.82503L4.96127 6.59799L5.13747 6.45753L4.91829 6.45822L4.85069 6.22844L4.7831 6.45822L4.56424 6.45753L4.74143 6.59799L4.67285 6.82503ZM5.96861 6.82503L6.14711 6.68424L6.32561 6.82503L6.25736 6.59799L6.43357 6.45753L6.21471 6.45822L6.14679 6.22844L6.07952 6.45822L5.86033 6.45753L6.03752 6.59799L5.96861 6.82503ZM7.32836 6.82503L7.50654 6.68424L7.68504 6.82503L7.6158 6.59799L7.79332 6.45753L7.57315 6.45822L7.50621 6.22844L7.43861 6.45822L7.21877 6.45753L7.39727 6.59799L7.32836 6.82503ZM0.918114 3.23458L1.09661 3.09208L1.27479 3.23458L1.20555 3.00549L1.38307 2.86537L1.16388 2.86606L1.09596 2.6356L1.02836 2.86606L0.809505 2.86537L0.987677 3.00549L0.918114 3.23458ZM2.0974 3.23458L2.2759 3.09208L2.45407 3.23458L2.38516 3.00549L2.56235 2.86537L2.34349 2.86606L2.27557 2.6356L2.20797 2.86606L1.98846 2.86537L2.16663 3.00549L2.0974 3.23458ZM3.39841 3.23458L3.57658 3.09208L3.75508 3.23458L3.68585 3.00549L3.86304 2.86537L3.64549 2.86606L3.57658 2.6356L3.50866 2.86606L3.29111 2.86537L3.46732 3.00549L3.39841 3.23458ZM4.68991 3.23458L4.86808 3.09208L5.04658 3.23458L4.97768 3.00549L5.15486 2.86537L4.93502 2.86606L4.86808 2.6356L4.80049 2.86606L4.5813 2.86537L4.75915 3.00549L4.68991 3.23458ZM5.986 3.23458L6.16451 3.09208L6.34268 3.23458L6.27377 3.00549L6.45129 2.86537L6.23177 2.86606L6.16418 2.6356L6.09658 2.86606L5.87772 2.86537L6.05491 3.00549L5.986 3.23458ZM1.54582 3.83322L1.72399 3.69106L1.90216 3.83322L1.83358 3.60447L2.01077 3.46367H1.79158L1.72366 3.23458L1.65705 3.46367H1.43721L1.61472 3.60447L1.54582 3.83322ZM2.72543 3.83322L2.9036 3.69106L3.08177 3.83322L3.01286 3.60447L3.19005 3.46367H2.96955L2.9036 3.23458L2.83568 3.46367H2.61682L2.79433 3.60447L2.72543 3.83322ZM4.02644 3.83322L4.20429 3.69106L4.38246 3.83322L4.31355 3.60447L4.49107 3.46367H4.27221L4.20429 3.23458L4.13636 3.46367H3.91718L4.09469 3.60447L4.02644 3.83322ZM5.31729 3.83322L5.49579 3.69106L5.67429 3.83322L5.6044 3.60447L5.78224 3.46367H5.56338L5.49546 3.23458L5.42819 3.46367H5.209L5.38652 3.60447L5.31729 3.83322ZM6.61502 3.83322L6.79188 3.69106L6.97005 3.83322L6.90049 3.60447L7.07833 3.46367H6.8598L6.79155 3.23458L6.72429 3.46367H6.5051L6.68261 3.60447L6.61502 3.83322ZM7.34575 3.23458L7.52393 3.09208L7.70243 3.23458L7.63319 3.00549L7.81038 2.86537L7.59283 2.86606L7.5236 2.6356L7.45601 2.86606L7.23518 2.86537L7.41466 3.00549L7.34575 3.23458ZM0.900724 4.43185L1.07922 4.28969L1.2574 4.43185L1.18816 4.20344L1.36568 4.06299L1.14649 4.06367L1.07857 3.83322L1.01163 4.06367L0.792114 4.06299L0.96963 4.20344L0.900724 4.43185ZM2.08033 4.43185L2.2585 4.28969L2.437 4.43185L2.36777 4.20344L2.54496 4.06299L2.32643 4.06367L2.25818 3.83322L2.19091 4.06367L1.97205 4.06299L2.14891 4.20344L2.08033 4.43185ZM3.38135 4.43185L3.55952 4.28969L3.73769 4.43185L3.66879 4.20344L3.84597 4.06299L3.6258 4.06367L3.55919 3.83322L3.4916 4.06367L3.27274 4.06299L3.45025 4.20344L3.38135 4.43185ZM4.67285 4.43185L4.85069 4.28969L5.02919 4.43185L4.96127 4.20344L5.13747 4.06299L4.91829 4.06367L4.85069 3.83322L4.7831 4.06367L4.56424 4.06299L4.74143 4.20344L4.67285 4.43185ZM5.96861 4.43185L6.14711 4.28969L6.32529 4.43185L6.25736 4.20344L6.43357 4.06299L6.21438 4.06367L6.14679 3.83322L6.07952 4.06367L5.86033 4.06299L6.03752 4.20344L5.96861 4.43185ZM1.52843 5.03049L1.7066 4.88867L1.88477 5.03049L1.81619 4.80344L1.99305 4.66231H1.77386L1.70627 4.43185L1.639 4.66231H1.41982L1.59733 4.80344L1.52843 5.03049ZM2.70804 5.03049L2.88621 4.88867L3.06438 5.03049L2.99547 4.80344L3.17266 4.66231H2.95315L2.88588 4.43185L2.81829 4.66231H2.5991L2.77694 4.80344L2.70804 5.03049ZM4.00938 5.03049L4.1869 4.88867L4.3654 5.03049L4.29518 4.80344L4.47368 4.66231H4.25482L4.1869 4.43185L4.1193 4.66231H3.90011L4.07763 4.80344L4.00938 5.03049ZM5.29924 5.03049L5.4784 4.88867L5.6569 5.03049L5.58799 4.80344L5.76485 4.66231H5.54599L5.47807 4.43185L5.4108 4.66231H5.19161L5.36913 4.80344L5.29924 5.03049ZM6.59533 5.03049L6.77449 4.88867L6.95299 5.03049L6.88376 4.80344L7.0616 4.66231H6.84274L6.77449 4.43185L6.7069 4.66231H6.48771L6.66522 4.80344L6.59533 5.03049ZM7.32836 4.43185L7.50654 4.28969L7.68471 4.43185L7.6158 4.20344L7.79332 4.06299L7.57315 4.06367L7.50621 3.83322L7.43861 4.06367L7.21877 4.06299L7.39727 4.20344L7.32836 4.43185ZM0.900724 5.62947L1.07922 5.48867L1.2574 5.62947L1.18816 5.40072L1.36568 5.26026L1.14649 5.26094L1.07857 5.03049L1.01163 5.26094L0.792114 5.26026L0.96963 5.40072L0.900724 5.62947ZM2.08033 5.62947L2.2585 5.48867L2.437 5.62947L2.36777 5.40072L2.54496 5.26026L2.32643 5.26094L2.25818 5.03049L2.19091 5.26094L1.97205 5.26026L2.14891 5.40072L2.08033 5.62947ZM3.38135 5.62947L3.55952 5.48867L3.73769 5.62947L3.66879 5.40072L3.84597 5.26026L3.6258 5.26094L3.55919 5.03049L3.4916 5.26094L3.27274 5.26026L3.45025 5.40072L3.38135 5.62947ZM4.67285 5.62947L4.85069 5.48867L5.02919 5.62947L4.96127 5.40072L5.13747 5.26026L4.91829 5.26094L4.85069 5.03049L4.7831 5.26094L4.56424 5.26026L4.74143 5.40072L4.67285 5.62947ZM5.96861 5.62947L6.14711 5.48867L6.32529 5.62947L6.25736 5.40072L6.43357 5.26026L6.21438 5.26094L6.14679 5.03049L6.07952 5.26094L5.86033 5.26026L6.03752 5.40072L5.96861 5.62947ZM1.52843 6.22844L1.7066 6.08594L1.88477 6.22844L1.81619 5.99935L1.99305 5.86026H1.77386L1.70627 5.62947L1.639 5.86026H1.41982L1.59733 5.99935L1.52843 6.22844ZM2.70804 6.22844L2.88621 6.08594L3.06438 6.22844L2.99547 5.99935L3.17266 5.86026H2.95315L2.88588 5.62947L2.81829 5.86026H2.5991L2.77694 5.99935L2.70804 6.22844ZM4.00938 6.22844L4.1869 6.08594L4.3654 6.22844L4.29518 5.99935L4.47368 5.86026H4.25482L4.1869 5.62947L4.1193 5.86026H3.90011L4.07763 5.99935L4.00938 6.22844ZM5.29924 6.22844L5.4784 6.08594L5.6569 6.22844L5.58799 5.99935L5.76485 5.86026H5.54599L5.47807 5.62947L5.4108 5.86026H5.19161L5.36913 5.99935L5.29924 6.22844ZM6.59533 6.22844L6.77449 6.08594L6.95299 6.22844L6.88376 5.99935L7.0616 5.86026H6.84274L6.77449 5.62947L6.7069 5.86026H6.48771L6.66522 5.99935L6.59533 6.22844ZM7.32836 5.62947L7.50654 5.48867L7.68471 5.62947L7.6158 5.40072L7.79332 5.26026L7.57315 5.26094L7.50621 5.03049L7.43861 5.26094L7.21877 5.26026L7.39727 5.40072L7.32836 5.62947Z" fill="white"/>
</g>
<defs>
<clipPath id="clip0_47_340">
<rect width="21" height="15" rx="1" fill="white"/>
</clipPath>
</defs>
</svg>
