<svg width="20" height="17" viewBox="0 0 20 17" fill="none" xmlns="http://www.w3.org/2000/svg">
<rect x="0.35" y="0.85" width="19.3" height="15.3" rx="1.65" fill="white"/>
<rect x="0.35" y="0.85" width="19.3" height="15.3" rx="1.65" stroke="#C5CDD0" stroke-width="0.7"/>
<g clip-path="url(#clip0_47_322)">
<path d="M12.7865 4.77821C12.3511 4.25232 11.5639 4.02686 10.557 4.02686H7.63448C7.53485 4.02686 7.43848 4.06452 7.36272 4.13307C7.28695 4.20162 7.23675 4.29657 7.22113 4.40083L6.00426 12.5785C5.98007 12.7398 6.09791 12.8858 6.25216 12.8858H8.05641L8.50954 9.84043L8.49548 9.9358C8.52776 9.72053 8.70151 9.56176 8.90726 9.56176H9.76463C11.4489 9.56176 12.7678 8.83686 13.153 6.73987C13.1645 6.67785 13.1744 6.61748 13.1829 6.55851C13.1343 6.53123 13.1343 6.53123 13.1829 6.55851C13.2977 5.78344 13.1822 5.25586 12.7865 4.77821Z" fill="#27346A"/>
<path d="M9.19991 6.27931C9.24924 6.25442 9.30319 6.24152 9.35782 6.24156H11.649C11.9203 6.24156 12.1734 6.26027 12.4046 6.2997C12.4693 6.31064 12.5337 6.32369 12.5977 6.33884C12.6883 6.36003 12.7779 6.38597 12.8661 6.41656C12.9798 6.45679 13.0857 6.50364 13.183 6.55851C13.2977 5.78315 13.1822 5.25586 12.7865 4.77821C12.3508 4.25232 11.5639 4.02686 10.557 4.02686H7.63423C7.42844 4.02686 7.25338 4.1856 7.22113 4.40083L6.00426 12.5782C5.98007 12.7398 6.09791 12.8856 6.25191 12.8856H8.05641L8.99651 6.56871C9.00575 6.50662 9.02909 6.44784 9.06453 6.39743C9.09996 6.34701 9.14642 6.30648 9.19991 6.27931Z" fill="#27346A"/>
<path d="M13.153 6.73995C12.7678 8.83664 11.449 9.56184 9.76463 9.56184H8.90701C8.70126 9.56184 8.52748 9.72061 8.49551 9.93588L7.93179 13.7225C7.91073 13.8636 8.01373 13.9915 8.14848 13.9915H9.66941C9.75654 13.9914 9.84079 13.9585 9.90703 13.8985C9.97327 13.8385 10.0171 13.7555 10.0308 13.6643L10.0456 13.5822L10.3322 11.6572L10.3507 11.5508C10.3643 11.4596 10.4082 11.3766 10.4744 11.3166C10.5406 11.2566 10.6249 11.2237 10.712 11.2236H10.9396C12.413 11.2236 13.5666 10.5894 13.9038 8.75508C14.0445 7.98853 13.9717 7.34853 13.5994 6.89899C13.4865 6.76283 13.3463 6.65038 13.1829 6.55859C13.1741 6.61787 13.1645 6.67793 13.153 6.73995Z" fill="#2790C3"/>
<path d="M12.7798 6.38836C12.7197 6.36977 12.6591 6.35331 12.5979 6.33902C12.534 6.32411 12.4696 6.31115 12.4049 6.30014C12.1734 6.26044 11.9205 6.2417 11.649 6.2417H9.35807C9.3034 6.24157 9.24941 6.25458 9.20017 6.27975C9.14661 6.30683 9.1001 6.34735 9.06465 6.39777C9.0292 6.4482 9.00589 6.50703 8.99673 6.56915L8.50979 9.84061L8.49573 9.93597C8.52776 9.72071 8.70151 9.56193 8.90729 9.56193H9.76491C11.4492 9.56193 12.768 8.83703 13.1533 6.74004C13.1648 6.67802 13.1744 6.61793 13.1832 6.55869C13.0857 6.50412 12.9801 6.45697 12.8664 6.417C12.8377 6.40692 12.8088 6.39737 12.7798 6.38836" fill="#1F264F"/>
</g>
<defs>
<clipPath id="clip0_47_322">
<rect width="8" height="10" fill="white" transform="translate(6 4)"/>
</clipPath>
</defs>
</svg>
