<svg width="34" height="30" viewBox="0 0 34 30" fill="none" xmlns="http://www.w3.org/2000/svg">
<path d="M19.2165 4.6875C19.2165 3.65039 18.159 2.8125 16.85 2.8125C15.5411 2.8125 14.4836 3.65039 14.4836 4.6875V13.125H3.83469C2.52576 13.125 1.46826 13.9629 1.46826 15C1.46826 16.0371 2.52576 16.875 3.83469 16.875H14.4836V25.3125C14.4836 26.3496 15.5411 27.1875 16.85 27.1875C18.159 27.1875 19.2165 26.3496 19.2165 25.3125V16.875H29.8654C31.1743 16.875 32.2318 16.0371 32.2318 15C32.2318 13.9629 31.1743 13.125 29.8654 13.125H19.2165V4.6875Z" fill="white"/>
</svg>
