<svg width="39" height="39" viewBox="0 0 39 39" fill="none" xmlns="http://www.w3.org/2000/svg">
<path d="M34.5939 11.57C34.618 11.9076 34.618 12.2452 34.618 12.5827C34.618 22.8783 26.7817 34.7413 12.4594 34.7413C8.04693 34.7413 3.94798 33.4633 0.5 31.2452C1.12693 31.3175 1.72966 31.3416 2.3807 31.3416C6.0215 31.3416 9.37307 30.1119 12.0495 28.0142C8.62562 27.9418 5.75632 25.6995 4.76773 22.6132C5.25 22.6854 5.7322 22.7337 6.23859 22.7337C6.93781 22.7337 7.6371 22.6372 8.28807 22.4685C4.71956 21.7451 2.04308 18.6106 2.04308 14.8251V14.7287C3.07984 15.3074 4.28553 15.669 5.56335 15.7172C3.46563 14.3187 2.09132 11.9317 2.09132 9.23115C2.09132 7.78448 2.47704 6.45834 3.15221 5.30097C6.98598 10.0268 12.7487 13.1131 19.2105 13.4507C19.09 12.872 19.0177 12.2693 19.0177 11.6665C19.0177 7.37457 22.4898 3.87842 26.8057 3.87842C29.0481 3.87842 31.0735 4.81877 32.4961 6.3378C34.2562 6.00026 35.944 5.34921 37.439 4.4571C36.8602 6.26552 35.6306 7.78455 34.0151 8.74895C35.5824 8.58025 37.1014 8.14614 38.4999 7.54341C37.4391 9.0865 36.1129 10.4608 34.5939 11.57Z" fill="#646464"/>
</svg>
