<svg width="42" height="39" viewBox="0 0 42 39" fill="none" xmlns="http://www.w3.org/2000/svg">
<path d="M39.349 9.51934C38.91 7.76407 37.6169 6.38167 35.9749 5.91254C32.9988 5.06006 21.0649 5.06006 21.0649 5.06006C21.0649 5.06006 9.13106 5.06006 6.15486 5.91254C4.51293 6.38175 3.21976 7.76407 2.78085 9.51934C1.9834 12.7009 1.9834 19.3389 1.9834 19.3389C1.9834 19.3389 1.9834 25.9768 2.78085 29.1584C3.21976 30.9136 4.51293 32.2384 6.15486 32.7076C9.13106 33.5601 21.0649 33.5601 21.0649 33.5601C21.0649 33.5601 32.9987 33.5601 35.9749 32.7076C37.6169 32.2384 38.91 30.9136 39.349 29.1584C40.1464 25.9768 40.1464 19.3389 40.1464 19.3389C40.1464 19.3389 40.1464 12.7009 39.349 9.51934ZM17.1618 25.3656V13.3121L27.1362 19.339L17.1618 25.3656Z" fill="#646464"/>
</svg>
