<svg width="38" height="39" viewBox="0 0 38 39" fill="none" xmlns="http://www.w3.org/2000/svg">
<path d="M37.44 19.3101C37.44 29.478 29.0613 37.7163 18.72 37.7163C16.7876 37.7163 14.9307 37.4269 13.1795 36.8925C13.9419 35.6679 15.0817 33.664 15.5044 32.0683C15.7308 31.2073 16.6668 27.6894 16.6668 27.6894C17.2783 28.8323 19.0597 29.8046 20.9543 29.8046C26.6005 29.8046 30.6691 24.6983 30.6691 18.3526C30.6691 12.2741 25.6192 7.72451 19.1276 7.72451C11.0508 7.72451 6.75581 13.0534 6.75581 18.8647C6.75581 21.5663 8.22019 24.9284 10.5526 25.9972C10.9074 26.1604 11.0961 26.0862 11.1792 25.7522C11.2395 25.4999 11.5566 24.2456 11.7 23.6667C11.7453 23.4812 11.7226 23.3179 11.5717 23.1397C10.8093 22.212 10.1903 20.5198 10.1903 18.939C10.1903 14.8792 13.3154 10.953 18.6445 10.953C23.2415 10.953 26.4646 14.0331 26.4646 18.4417C26.4646 23.4218 23.9057 26.8729 20.5769 26.8729C18.7426 26.8729 17.3613 25.3812 17.8066 23.5479C18.335 21.3585 19.3541 18.9983 19.3541 17.4175C19.3541 16.0073 18.5841 14.8272 16.9839 14.8272C15.1043 14.8272 13.5946 16.7347 13.5946 19.2952C13.5946 20.928 14.1532 22.0265 14.1532 22.0265C14.1532 22.0265 12.3039 29.7304 11.9642 31.1702C11.5868 32.7585 11.7377 34.9999 11.8963 36.4546C4.93665 33.7753 0 27.1104 0 19.3101C0 9.14209 8.37871 0.903809 18.72 0.903809C29.0613 0.903809 37.44 9.14209 37.44 19.3101Z" fill="#646464"/>
</svg>
