<svg width="818" height="866" viewBox="0 0 818 866" fill="none" xmlns="http://www.w3.org/2000/svg">
<g filter="url(#filter0_d_46_8)">
<path d="M4 26C4 11.6406 15.6406 0 30 0H788C802.359 0 814 11.6406 814 26V832C814 846.359 802.359 858 788 858H30C15.6406 858 4 846.359 4 832V26Z" fill="white"/>
<path d="M4.5 26C4.5 11.9167 15.9167 0.5 30 0.5H788C802.083 0.5 813.5 11.9167 813.5 26V832C813.5 846.083 802.083 857.5 788 857.5H30C15.9167 857.5 4.5 846.083 4.5 832V26Z" stroke="black"/>
</g>
<defs>
<filter id="filter0_d_46_8" x="0" y="0" width="818" height="866" filterUnits="userSpaceOnUse" color-interpolation-filters="sRGB">
<feFlood flood-opacity="0" result="BackgroundImageFix"/>
<feColorMatrix in="SourceAlpha" type="matrix" values="0 0 0 0 0 0 0 0 0 0 0 0 0 0 0 0 0 0 127 0" result="hardAlpha"/>
<feOffset dy="4"/>
<feGaussianBlur stdDeviation="2"/>
<feComposite in2="hardAlpha" operator="out"/>
<feColorMatrix type="matrix" values="0 0 0 0 0 0 0 0 0 0 0 0 0 0 0 0 0 0 0.25 0"/>
<feBlend mode="normal" in2="BackgroundImageFix" result="effect1_dropShadow_46_8"/>
<feBlend mode="normal" in="SourceGraphic" in2="effect1_dropShadow_46_8" result="shape"/>
</filter>
</defs>
</svg>
