<svg width="20" height="17" viewBox="0 0 20 17" fill="none" xmlns="http://www.w3.org/2000/svg">
<rect x="0.35" y="0.85" width="19.3" height="15.3" rx="1.65" fill="white"/>
<rect x="0.35" y="0.85" width="19.3" height="15.3" rx="1.65" stroke="#C5CDD0" stroke-width="0.7"/>
<g clip-path="url(#clip0_47_316)">
<path d="M8.10223 4.95068H11.8839V11.9398H8.10223V4.95068Z" fill="#FF5F00"/>
<path d="M8.34237 8.44538C8.34237 7.02535 8.99063 5.7658 9.98704 4.95079C9.25477 4.35809 8.33039 4 7.32195 4C4.93282 4 3 5.98804 3 8.44538C3 10.9027 4.93282 12.8908 7.3219 12.8908C8.33034 12.8908 9.25472 12.5327 9.98704 11.9399C8.99063 11.1373 8.34237 9.86541 8.34237 8.44538Z" fill="#EB001B"/>
<path d="M16.9861 8.44538C16.9861 10.9027 15.0533 12.8908 12.6642 12.8908C11.6558 12.8908 10.7314 12.5327 9.99908 11.9399C11.0075 11.125 11.6438 9.86541 11.6438 8.44538C11.6438 7.02535 10.9955 5.7658 9.99908 4.95079C10.7314 4.35809 11.6558 4 12.6642 4C15.0533 4 16.9861 6.00042 16.9861 8.44538Z" fill="#F79E1B"/>
</g>
<defs>
<clipPath id="clip0_47_316">
<rect width="14" height="9" fill="white" transform="translate(3 4)"/>
</clipPath>
</defs>
</svg>
