<svg width="14" height="5" viewBox="0 0 14 5" fill="none" xmlns="http://www.w3.org/2000/svg">
<path d="M12.7927 0.413268L13.6667 4.58593H12.6653C12.6253 4.41127 12.594 4.2286 12.554 4.05394C12.514 3.87927 12.554 3.9666 12.4507 3.9666H11.2353C11.2223 3.96433 11.2088 3.96483 11.1959 3.96805C11.1831 3.97127 11.171 3.97715 11.1605 3.98531C11.15 3.99347 11.1414 4.00373 11.1351 4.01543C11.1288 4.02713 11.125 4.04002 11.124 4.05327C11.068 4.21327 11.0127 4.37194 10.9493 4.5226C10.8853 4.67327 10.8933 4.59394 10.8693 4.59394H9.79734V4.4986C10.3267 3.24327 10.8567 1.98527 11.386 0.724602C11.4173 0.639028 11.4733 0.56466 11.5469 0.510904C11.6204 0.457148 11.7083 0.426418 11.7993 0.422601C12.1487 0.406601 12.4667 0.414601 12.7927 0.414601M12.046 1.58327L11.4813 3.10127H12.3713L12.046 1.58327ZM3.07468 3.2506V3.15527C3.39268 2.27327 3.71801 1.39127 4.02801 0.509268C4.02801 0.437935 4.09201 0.405935 4.17134 0.405935H5.22801V0.509268L3.58334 4.4826C3.57553 4.51554 3.55566 4.54436 3.52764 4.56336C3.49963 4.58237 3.4655 4.59018 3.43201 4.58527H2.51068C2.43068 4.58527 2.39934 4.58527 2.37534 4.48193C2.08201 3.33793 1.77934 2.19393 1.48534 1.04193C1.47838 1.01242 1.46568 0.984576 1.44795 0.959982C1.43021 0.935387 1.40781 0.914529 1.38201 0.898601C1.0752 0.727883 0.750303 0.591931 0.413343 0.493268C0.413343 0.493268 0.357344 0.453268 0.333344 0.437935C0.367311 0.429832 0.402709 0.429832 0.436677 0.437935H2.02601C2.09239 0.427839 2.16016 0.431882 2.22487 0.449798C2.28958 0.467715 2.34978 0.499101 2.40151 0.541901C2.45325 0.584701 2.49536 0.637948 2.52509 0.698155C2.55482 0.758362 2.57149 0.82417 2.57401 0.891268L3.02734 3.2186C3.02471 3.23718 3.02471 3.25603 3.02734 3.2746L3.07468 3.2506ZM6.77734 4.4266L6.93668 3.4966L7.04801 3.5606C7.45366 3.77076 7.91917 3.83524 8.36668 3.74327C8.45223 3.73594 8.53337 3.70216 8.59884 3.6466C8.66431 3.59105 8.71086 3.51649 8.73201 3.43327C8.74011 3.35028 8.72136 3.26689 8.67852 3.19536C8.63567 3.12383 8.571 3.06795 8.49401 3.03593C8.33468 2.9326 8.16068 2.85327 8.00934 2.74994C7.8136 2.64034 7.63221 2.50688 7.46934 2.3526C7.30445 2.15533 7.2141 1.90638 7.2141 1.64927C7.2141 1.39215 7.30445 1.14321 7.46934 0.945935C7.7085 0.684444 8.02141 0.501721 8.36668 0.421935C8.89264 0.290651 9.44573 0.318258 9.95601 0.501268H9.99601L9.84468 1.35927C9.64423 1.29757 9.43974 1.2499 9.23268 1.2166C9.02631 1.20073 8.81904 1.20073 8.61268 1.2166C8.53815 1.23141 8.46944 1.26727 8.41468 1.31993C8.38814 1.3424 8.36681 1.37038 8.35219 1.40193C8.33756 1.43347 8.32998 1.46783 8.32998 1.5026C8.32998 1.53737 8.33756 1.57173 8.35219 1.60327C8.36681 1.63482 8.38814 1.6628 8.41468 1.68527C8.50954 1.77264 8.61321 1.84994 8.72401 1.91593C8.93068 2.0426 9.14534 2.14594 9.34401 2.28127C9.50835 2.38174 9.64465 2.5221 9.74024 2.68932C9.83584 2.85655 9.88763 3.04521 9.89083 3.2378C9.89402 3.4304 9.8485 3.62067 9.7585 3.79097C9.6685 3.96127 9.53693 4.10607 9.37601 4.21193C9.05919 4.45724 8.6785 4.60628 8.27934 4.64127C7.76858 4.69767 7.25186 4.62382 6.77734 4.4266ZM5.01334 4.58527L5.69668 0.413935H6.78534L6.10201 4.58527H5.01334Z" fill="#1B2E86"/>
</svg>
